<?xml version="1.0" encoding="utf-8"?>
<!-- Generator: Adobe Illustrator 15.0.0, SVG Export Plug-In . SVG Version: 6.00 Build 0)  -->
<!DOCTYPE svg PUBLIC "-//W3C//DTD SVG 1.1//EN" "http://www.w3.org/Graphics/SVG/1.1/DTD/svg11.dtd">
<svg version="1.1" id="Isolation_Mode" xmlns="http://www.w3.org/2000/svg" xmlns:xlink="http://www.w3.org/1999/xlink" x="0px"
	 y="0px" width="197px" height="198px" viewBox="0 0 197 198" enable-background="new 0 0 197 198" xml:space="preserve">
<g>
	<rect fill="none" width="197" height="198"/>
	<polygon points="155,143 155,112 130,112 130,143 112,143 112,57 87,57 87,143 70,143 70,99 45,99 45,143 30,143 30,39 29,39 
		29,143 14,143 14,144 29,144 29,157 30,157 30,144 45.5,144 70.5,144 87.5,144 112.5,144 130.5,144 155.5,144 182,144 182,143 	"/>
</g>
</svg>
