<?xml version="1.0" encoding="utf-8"?>
<!-- Generator: Adobe Illustrator 15.0.0, SVG Export Plug-In . SVG Version: 6.00 Build 0)  -->
<!DOCTYPE svg PUBLIC "-//W3C//DTD SVG 1.1//EN" "http://www.w3.org/Graphics/SVG/1.1/DTD/svg11.dtd">
<svg version="1.1" id="Isolation_Mode" xmlns="http://www.w3.org/2000/svg" xmlns:xlink="http://www.w3.org/1999/xlink" x="0px"
	 y="0px" width="197px" height="198px" viewBox="0 0 197 198" enable-background="new 0 0 197 198" xml:space="preserve">
<g>
	<rect fill="none" width="197" height="198"/>
	<g>
		<path fill="#878787" d="M99.912,41C99.905,41,100,41,99,41v26c1,0,0.905,0,0.912,0c11.216,0,21.053,5.67,26.617,14.51
			l20.013-16.552C136.143,50.43,119.139,41,99.912,41z"/>
		<path d="M146.541,64.701l-20.013,16.6c3.048,4.843,4.816,10.569,4.816,16.714c0,11.282-5.948,21.171-14.875,26.716l15.497,20.809
			c15.242-10.302,25.264-27.742,25.264-47.524C157.23,85.586,153.262,74.091,146.541,64.701z"/>
		<path fill="#878787" d="M99.912,155.333c11.874,0,22.905-3.611,32.055-9.794L116.47,124.73c-4.81,2.987-10.48,4.717-16.558,4.717
			c-11.439,0-21.448-6.111-26.947-15.246l-24.118,9.838C58.331,142.609,77.629,155.333,99.912,155.333z"/>
		<path d="M73.137,114.481c-2.952-4.789-5.105-10.428-5.105-16.467C68.032,80.661,82,66.592,99,66.582V40.696
			c-32,0.01-56.854,25.668-56.854,57.318c0,9.468,2.533,18.391,6.598,26.26L73.137,114.481z"/>
	</g>
</g>
</svg>
