<?xml version="1.0" encoding="utf-8"?>
<!-- Generator: Adobe Illustrator 15.0.0, SVG Export Plug-In . SVG Version: 6.00 Build 0)  -->
<!DOCTYPE svg PUBLIC "-//W3C//DTD SVG 1.1//EN" "http://www.w3.org/Graphics/SVG/1.1/DTD/svg11.dtd">
<svg version="1.1" id="Isolation_Mode" xmlns="http://www.w3.org/2000/svg" xmlns:xlink="http://www.w3.org/1999/xlink" x="0px"
	 y="0px" width="197px" height="198px" viewBox="0 0 197 198" enable-background="new 0 0 197 198" xml:space="preserve">
<g>
	<rect fill="none" width="197" height="198"/>
	<circle fill="none" stroke="#000000" stroke-width="3" stroke-miterlimit="10" cx="98.69" cy="98.591" r="57.318"/>
	<path d="M102.861,75.747l6.29,4.135l-9.124,13.878c-0.429-0.118-0.871-0.202-1.337-0.202c-2.78,0-5.033,2.252-5.033,5.033
		c0,2.779,2.252,5.033,5.033,5.033c2.779,0,5.033-2.254,5.033-5.033c0-0.831-0.221-1.603-0.577-2.294l9.348-14.218l7.032,4.623
		l1.156-19.908L102.861,75.747z"/>
	
		<line fill="none" stroke="#000000" stroke-width="3" stroke-linecap="round" stroke-linejoin="round" stroke-miterlimit="10" x1="97.5" y1="42" x2="97.5" y2="49"/>
	
		<line fill="none" stroke="#000000" stroke-width="3" stroke-linecap="round" stroke-linejoin="round" stroke-miterlimit="10" x1="155" y1="99.5" x2="148" y2="99.5"/>
	
		<line fill="none" stroke="#000000" stroke-width="3" stroke-linecap="round" stroke-linejoin="round" stroke-miterlimit="10" x1="49" y1="99.5" x2="42" y2="99.5"/>
	
		<line fill="none" stroke="#000000" stroke-width="2.9479" stroke-linecap="round" stroke-linejoin="round" stroke-miterlimit="10" x1="138.452" y1="58.401" x2="133.589" y2="63.265"/>
	
		<line fill="none" stroke="#000000" stroke-width="2.9479" stroke-linecap="round" stroke-linejoin="round" stroke-miterlimit="10" x1="63.412" y1="133.442" x2="58.548" y2="138.306"/>
	
		<line fill="none" stroke="#000000" stroke-width="2.9479" stroke-linecap="round" stroke-linejoin="round" stroke-miterlimit="10" x1="138.452" y1="138.306" x2="133.589" y2="133.442"/>
	
		<line fill="none" stroke="#000000" stroke-width="2.9479" stroke-linecap="round" stroke-linejoin="round" stroke-miterlimit="10" x1="63.412" y1="63.265" x2="58.548" y2="58.401"/>
	
		<line fill="none" stroke="#000000" stroke-width="2.9479" stroke-linecap="round" stroke-linejoin="round" stroke-miterlimit="10" x1="150.572" y1="76.427" x2="144.233" y2="79.097"/>
	
		<line fill="none" stroke="#000000" stroke-width="2.9479" stroke-linecap="round" stroke-linejoin="round" stroke-miterlimit="10" x1="52.766" y1="117.611" x2="46.427" y2="120.28"/>
	
		<line fill="none" stroke="#000000" stroke-width="2.9479" stroke-linecap="round" stroke-linejoin="round" stroke-miterlimit="10" x1="79.242" y1="52.62" x2="76.573" y2="46.281"/>
	
		<line fill="none" stroke="#000000" stroke-width="2.9479" stroke-linecap="round" stroke-linejoin="round" stroke-miterlimit="10" x1="119.976" y1="46.093" x2="117.361" y2="52.455"/>
	
		<line fill="none" stroke="#000000" stroke-width="2.9479" stroke-linecap="round" stroke-linejoin="round" stroke-miterlimit="10" x1="150.76" y1="119.829" x2="144.398" y2="117.215"/>
	
		<line fill="none" stroke="#000000" stroke-width="2.9479" stroke-linecap="round" stroke-linejoin="round" stroke-miterlimit="10" x1="52.602" y1="79.492" x2="46.239" y2="76.878"/>
</g>
</svg>
