<?xml version="1.0" encoding="utf-8"?>
<!-- Generator: Adobe Illustrator 15.0.0, SVG Export Plug-In . SVG Version: 6.00 Build 0)  -->
<!DOCTYPE svg PUBLIC "-//W3C//DTD SVG 1.1//EN" "http://www.w3.org/Graphics/SVG/1.1/DTD/svg11.dtd">
<svg version="1.1" id="Isolation_Mode" xmlns="http://www.w3.org/2000/svg" xmlns:xlink="http://www.w3.org/1999/xlink" x="0px"
	 y="0px" width="197px" height="198px" viewBox="0 0 197 198" enable-background="new 0 0 197 198" xml:space="preserve">
<g>
	<rect fill="none" width="197" height="198"/>
	<polyline fill="#878787" points="29.709,127.209 49.176,107.69 77.803,134.062 83.193,99.965 106.932,103.428 115.205,117.014 
		133.061,80.52 152.51,92.507 169.326,74.66 181,93 181,143 30,143 	"/>
	<polygon points="30,143 30,39 29,39 29,143 14,143 14,144 29,144 29,157 30,157 30,144 182,144 182,143 	"/>
	<polygon points="78.277,135.066 49.44,108.385 29.854,128.021 29.146,127.315 49.412,106.996 77.579,133.057 82.838,99.399 
		107.269,102.967 115.174,115.973 132.861,79.805 152.434,91.871 169.901,73.866 182.416,92.724 181.584,93.276 169.755,75.453 
		152.594,93.143 133.275,81.235 115.268,118.055 106.658,103.889 83.673,100.531 	"/>
</g>
</svg>
