<?xml version="1.0" encoding="utf-8"?>
<!-- Generator: Adobe Illustrator 16.0.0, SVG Export Plug-In . SVG Version: 6.00 Build 0)  -->
<!DOCTYPE svg PUBLIC "-//W3C//DTD SVG 1.1//EN" "http://www.w3.org/Graphics/SVG/1.1/DTD/svg11.dtd">
<svg version="1.1" id="Layer_1" xmlns="http://www.w3.org/2000/svg" xmlns:xlink="http://www.w3.org/1999/xlink" x="0px" y="0px"
	 width="60px" height="60px" viewBox="0 0 60 60" enable-background="new 0 0 60 60" xml:space="preserve">
<g>
	<path fill="#388E33" d="M0,0v60h60V0H0z"/>
</g>
<path fill="#FFFFFF" d="M49.986,44.467c-0.897-3.376-9.438-5.578-13.84-7.299c-1.404-0.547-1.748-2.73-1.767-4.58
	c0.638-0.475,1.198-1.154,1.763-2.044c0.807-1.27,1.599-2.264,2.229-3.915c0.4-0.055,0.855-0.38,1.104-0.812
	c0.963-1.702,1.463-4.379,1.148-5.232c-0.17-0.471-0.659-0.582-1.062-0.589c0.233-6.101-2.609-9.745-6.221-11.121
	c-0.807-0.343-2.141-0.798-4.093-0.632c-2.662,0.227-4.188,0.778-5.852,2.168c-2.263,1.899-3.775,5.067-3.603,9.582
	c-0.423-0.012-0.991,0.074-1.178,0.589c-0.315,0.853,0.186,3.523,1.148,5.227c0.264,0.465,0.771,0.796,1.195,0.808
	c0.616,1.647,1.388,2.625,2.191,3.896c0.618,0.979,1.244,1.664,1.96,2.146c-0.046,1.677-0.437,3.577-1.896,4.002
	c-2.723,0.784-12.654,3.896-13.883,7.812c-0.736,2.348-0.736,3.881-0.736,3.881c0,1.688,1.424,3.062,3.182,3.062H47.57
	c1.759,0,3.184-1.373,3.184-3.062C50.757,47.58,50.648,46.966,49.986,44.467z M42.034,46.675h-1.859v1.859
	c0,0.717-0.582,1.3-1.3,1.3s-1.3-0.583-1.3-1.3v-1.859h-1.859c-0.717,0-1.3-0.582-1.3-1.3s0.583-1.3,1.3-1.3h1.859v-1.859
	c0-0.717,0.582-1.3,1.3-1.3s1.3,0.583,1.3,1.3v1.859h1.859c0.717,0,1.3,0.582,1.3,1.3S42.751,46.675,42.034,46.675z"/>
</svg>
