<?xml version="1.0" encoding="utf-8"?>
<!-- Generator: Adobe Illustrator 16.0.0, SVG Export Plug-In . SVG Version: 6.00 Build 0)  -->
<!DOCTYPE svg PUBLIC "-//W3C//DTD SVG 1.1//EN" "http://www.w3.org/Graphics/SVG/1.1/DTD/svg11.dtd">
<svg version="1.1" id="Layer_1" xmlns="http://www.w3.org/2000/svg" xmlns:xlink="http://www.w3.org/1999/xlink" x="0px" y="0px"
	 width="60px" height="60px" viewBox="0 0 60 60" enable-background="new 0 0 60 60" xml:space="preserve">
<path fill="#AF202D" d="M0,0v60h60V0H0z"/>
<path fill="#FFFFFF" d="M47.57,51.418H11.773c-1.758,0-3.182-1.374-3.182-3.062c0,0,0-1.531,0.736-3.881
	c0.966-3.078,7.302-5.654,11.294-7c-0.366,1.287-0.369,2.686,0.086,4.026c-0.428,0.198-0.781,0.521-1.005,0.947
	c-0.26,0.493-0.32,1.055-0.171,1.59l0.686,4.245c0.006,0.037,0.014,0.074,0.026,0.111c0.172,0.554,0.549,1.008,1.062,1.275
	c0.314,0.165,0.657,0.249,1.002,0.249c0.218,0,0.436-0.034,0.649-0.101c0.428-0.135,0.665-0.59,0.532-1.018
	c-0.135-0.427-0.589-0.669-1.017-0.531c-0.138,0.045-0.284,0.03-0.412-0.037c-0.116-0.061-0.204-0.156-0.252-0.277l-0.682-4.229
	c-0.005-0.039-0.014-0.076-0.026-0.109c-0.042-0.141-0.028-0.287,0.039-0.416c0.067-0.128,0.181-0.223,0.357-0.278l1.183-0.431
	c0.14-0.045,0.286-0.03,0.415,0.038c0.129,0.065,0.223,0.18,0.266,0.319c0.018,0.059,0.043,0.112,0.073,0.164l2.126,3.666
	c0.046,0.266-0.112,0.531-0.377,0.614c-0.427,0.134-0.665,0.589-0.532,1.017c0.135,0.429,0.587,0.668,1.017,0.531
	c1.138-0.357,1.778-1.572,1.425-2.711c-0.018-0.058-0.042-0.113-0.073-0.167l-2.143-3.692c-0.184-0.51-0.546-0.926-1.028-1.179
	c-0.484-0.254-1.036-0.308-1.596-0.159c-0.463-1.406-0.281-2.884,0.392-4.106c0.212-0.062,0.404-0.12,0.568-0.167
	c1.459-0.426,1.85-2.325,1.896-4.002c-0.716-0.481-1.342-1.167-1.96-2.146c-0.803-1.271-1.575-2.249-2.191-3.896
	c-0.424-0.012-0.931-0.343-1.195-0.808c-0.962-1.704-1.463-4.374-1.148-5.227c0.187-0.515,0.755-0.601,1.178-0.589
	c-0.172-4.515,1.34-7.683,3.603-9.582c1.664-1.39,3.19-1.941,5.852-2.168c1.952-0.166,3.286,0.289,4.093,0.632
	c3.611,1.376,6.454,5.02,6.222,11.121c0.402,0.007,0.892,0.118,1.062,0.589c0.314,0.853-0.186,3.53-1.146,5.232
	c-0.25,0.432-0.705,0.757-1.104,0.812c-0.63,1.651-1.422,2.645-2.229,3.915c-0.562,0.889-1.125,1.568-1.761,2.044
	c0.017,1.849,0.362,4.033,1.765,4.58c0.494,0.194,1.047,0.394,1.629,0.601c0.207,0.457,0.371,0.938,0.438,1.449
	c0.181,1.37-0.187,2.729-1.028,3.825c-0.037,0.049-0.054,0.104-0.076,0.158c-1.092-0.263-2.203,0.376-2.51,1.465
	c-0.312,1.112,0.34,2.271,1.451,2.583c1.113,0.312,2.271-0.34,2.582-1.452c0.167-0.594,0.055-1.196-0.251-1.68
	c0.029-0.028,0.063-0.052,0.089-0.087c1.108-1.44,1.59-3.223,1.354-5.023c-0.026-0.189-0.062-0.375-0.104-0.561
	c4.373,1.522,9.58,3.424,10.27,6.021c0.662,2.499,0.771,3.113,0.768,3.888C50.754,50.045,49.329,51.418,47.57,51.418z"/>
</svg>
