<?xml version="1.0" encoding="utf-8"?>
<!-- Generator: Adobe Illustrator 15.0.0, SVG Export Plug-In . SVG Version: 6.00 Build 0)  -->
<!DOCTYPE svg PUBLIC "-//W3C//DTD SVG 1.1//EN" "http://www.w3.org/Graphics/SVG/1.1/DTD/svg11.dtd">
<svg version="1.1" id="Layer_1" xmlns="http://www.w3.org/2000/svg" xmlns:xlink="http://www.w3.org/1999/xlink" x="0px" y="0px"
	 width="92px" height="44px" viewBox="0 0 92 44" enable-background="new 0 0 92 44" xml:space="preserve">
<g>
	<g>
		<path fill="#2A2A2A" d="M25.143,11.803c-0.067,0-0.119-0.057-0.119-0.127s0.052-0.129,0.119-0.129h3.614
			c0-0.212,0.039-0.432,0.143-0.642h-4.782v1.539h4.838c-0.07-0.166-0.147-0.392-0.181-0.642H25.143z"/>
		<path fill="#2A2A2A" d="M28.838,6.894h-3.632c-0.066,0-0.118-0.058-0.118-0.128s0.052-0.128,0.118-0.128h3.613
			c0-0.212,0.04-0.432,0.145-0.642h-4.783v1.539h4.838C28.95,7.368,28.873,7.143,28.838,6.894z"/>
		<path fill="#2A2A2A" d="M26.794,0.428l-7.66,4.422v8.845l7.66,4.423l7.66-4.423V4.85L26.794,0.428z M23.952,5.85
			c0-0.099,0.073-0.18,0.166-0.18h5.081c0.067,0,0.127,0.044,0.154,0.109c0.025,0.068,0.012,0.146-0.037,0.196
			c-0.527,0.569-0.06,1.465,0.013,1.594c0.024,0.03,0.039,0.07,0.039,0.113c0,0.099-0.075,0.18-0.167,0.18c0,0,0,0-0.001,0h-5.081
			c-0.093,0-0.166-0.081-0.166-0.18V5.85z M29.136,12.771c0,0,0,0-0.001,0h-5.08c-0.093,0-0.167-0.079-0.167-0.178v-1.834
			c0-0.099,0.073-0.179,0.167-0.179h5.08c0.067,0,0.128,0.043,0.154,0.109c0.025,0.067,0.012,0.145-0.037,0.195
			c-0.527,0.569-0.06,1.465,0.014,1.594c0.023,0.03,0.038,0.07,0.038,0.114C29.303,12.691,29.228,12.771,29.136,12.771z
			 M29.729,10.283C29.729,10.283,29.729,10.283,29.729,10.283h-5.082c-0.092,0-0.166-0.081-0.166-0.179V8.27
			c0-0.099,0.073-0.179,0.166-0.179h5.081c0.067,0,0.128,0.043,0.154,0.109c0.025,0.068,0.011,0.145-0.037,0.196
			c-0.171,0.185-0.237,0.404-0.245,0.62h-3.735c-0.094,0-0.17,0.076-0.17,0.17c0,0.095,0.076,0.171,0.17,0.171h3.762
			c0.06,0.312,0.195,0.568,0.23,0.633c0.025,0.03,0.039,0.069,0.039,0.114C29.896,10.202,29.821,10.283,29.729,10.283z"/>
	</g>
	<g>
		<polygon fill="#2A2A2A" points="11.373,11.729 11.521,12.014 11.668,11.731 11.515,11.429 		"/>
		<path fill="#2A2A2A" d="M7.661,0.46L0,4.883v8.846l7.661,4.423l7.661-4.423V4.883L7.661,0.46z M7.65,11.631
			c-0.473,0-1.999-0.873-1.999-1.222c0-0.038,0.011-0.074,0.032-0.111l0.101-0.444l1.935,0.615l0.015,0.005l1.95-0.636l0.1,0.409
			c0.007,0.034,0.013,0.059,0.018,0.079c0.008,0.034,0.013,0.057,0.013,0.083C9.814,10.749,8.137,11.631,7.65,11.631z
			 M11.522,12.402l-0.394-0.643l0.307-0.558V8.949l-1.127,0.382l0.002,0.006l-0.468,0.16V9.495l-2.109,0.687l-2.13-0.677l0,0
			L5.249,9.382L5.094,9.331l0-0.001L3.573,8.813l4.131-1.4l3.845,1.304l0.081,0.027l0.205,0.069l-0.205,0.07v2.352l0.263,0.521
			L11.522,12.402z"/>
	</g>
	<g>
		<circle fill="#2A2A2A" cx="47.4" cy="11.697" r="0.172"/>
		
			<rect x="44.897" y="6.97" transform="matrix(0.4961 0.8682 -0.8682 0.4961 29.0758 -35.2727)" fill="#2A2A2A" width="0.063" height="0.89"/>
		
			<rect x="44.102" y="8.147" transform="matrix(-0.5 -0.866 0.866 -0.5 60.9711 54.2415)" fill="#2A2A2A" width="4.083" height="2.745"/>
		<path fill="#2A2A2A" d="M45.976,0.359l-7.661,4.423v8.846l7.661,4.423l7.661-4.423V4.782L45.976,0.359z M48.746,11.477
			l-2.208,1.275c-0.147,0.085-0.333,0.038-0.414-0.103L43.46,8.037c-0.082-0.142-0.029-0.326,0.118-0.41l2.208-1.275
			c0.147-0.085,0.333-0.039,0.415,0.103l2.663,4.612C48.945,11.208,48.893,11.393,48.746,11.477z"/>
	</g>
	<path fill="#2A2A2A" d="M65.291,0.567l-7.662,4.425v8.848l7.662,4.424l7.663-4.424V4.992L65.291,0.567z M64.381,9.454
		c0,0.114-0.021,0.224-0.049,0.328l2.175,1.104c0.235-0.294,0.594-0.486,1.001-0.486c0.708,0,1.281,0.568,1.281,1.271
		s-0.573,1.271-1.281,1.271c-0.707,0-1.28-0.568-1.28-1.271c0-0.125,0.024-0.243,0.059-0.357l-2.165-1.099
		c-0.234,0.309-0.602,0.511-1.021,0.511c-0.708,0-1.28-0.569-1.28-1.271c0-0.702,0.572-1.271,1.28-1.271
		c0.407,0,0.767,0.193,1.002,0.488l2.175-1.104c-0.029-0.106-0.05-0.215-0.05-0.33c0-0.702,0.573-1.271,1.28-1.271
		c0.708,0,1.281,0.568,1.281,1.271s-0.573,1.271-1.281,1.271c-0.418,0-0.786-0.201-1.02-0.509l-2.165,1.099
		C64.357,9.212,64.381,9.329,64.381,9.454z"/>
	<path fill="#2A2A2A" d="M84.339,0.348l-7.662,4.424v8.847l7.662,4.424L92,13.618V4.771L84.339,0.348z M87.634,8.907
		c-0.16,1.247-1.529,2.188-3.184,2.188c-0.148,0-0.301-0.008-0.45-0.023c-0.1-0.01-0.201-0.023-0.305-0.042
		c-0.513,0.841-2.009,1.195-2.074,1.211c-0.011,0.002-0.021,0.003-0.031,0.003c-0.057,0-0.107-0.033-0.129-0.087
		c-0.025-0.063-0.001-0.136,0.058-0.171c0.658-0.39,0.679-1.078,0.571-1.606c-0.783-0.558-1.188-1.359-1.085-2.154
		c0.161-1.248,1.529-2.188,3.184-2.188c0.149,0,0.301,0.007,0.45,0.022c1.049,0.106,1.966,0.566,2.518,1.262
		C87.54,7.805,87.705,8.354,87.634,8.907z"/>
	<g>
		<polygon fill="#2A2A2A" points="8.667,35.81 8.667,36.548 11.766,36.548 11.766,35.817 11.769,35.785 8.667,35.785 		"/>
		<path fill="#2A2A2A" d="M10.207,27.4c-2.108,0-3.818,1.707-3.818,3.812c0,1.279,0.632,2.412,1.602,3.103
			c0.294,0.174,0.459,0.445,0.553,0.709h3.362c0.254-0.66,0.766-0.899,0.766-0.899c0.827-0.7,1.354-1.744,1.354-2.912
			C14.025,29.107,12.316,27.4,10.207,27.4z"/>
		<polygon fill="#2A2A2A" points="10.207,38.096 11.767,37.31 8.667,37.31 		"/>
		<path fill="#2A2A2A" d="M10.207,20.784l-9.902,5.717v11.435l9.902,5.717l9.903-5.717V26.501L10.207,20.784z M13.164,34.706
			l-0.168,0.108c-0.005,0.002-0.465,0.25-0.465,1.003v1.492c0,0.288-0.162,0.551-0.419,0.681l-1.56,0.786
			c-0.108,0.055-0.226,0.082-0.345,0.082c-0.119,0-0.238-0.028-0.347-0.084l-1.541-0.786c-0.256-0.131-0.416-0.392-0.416-0.679
			v-1.502l0.001-0.047c0.006-0.097-0.021-0.624-0.301-0.788l-0.057-0.037c-1.204-0.857-1.921-2.25-1.921-3.724
			c0-2.521,2.055-4.573,4.581-4.573c2.526,0,4.582,2.052,4.582,4.573C14.789,32.562,14.197,33.834,13.164,34.706z"/>
	</g>
	<path fill="#2A2A2A" d="M36.145,40.237l2.873-2.873H27.526v-8.619h11.492l-2.873-2.873h-8.619l-2.873,2.873v8.619l2.873,2.873
		H36.145z"/>
	<path fill="#2A2A2A" d="M44.764,31.618v-2.873h8.619v2.873H44.764z M44.764,40.237v-5.746h8.619v5.746h2.873V28.745l-2.873-2.873
		h-8.619l-2.873,2.873v11.492H44.764z"/>
	<path fill="#2A2A2A" d="M73.493,40.237v-2.873H62.002v-2.873h8.618v-2.873h-8.618v-2.873h11.491v-2.873H59.129v14.365H73.493z"/>
	<path fill="#2A2A2A" d="M79.239,37.364v-8.619h8.619v8.619H79.239z M87.858,40.237l2.873-2.873v-8.619l-2.873-2.873H76.366v14.365
		H87.858z"/>
</g>
</svg>
