<?xml version="1.0" encoding="utf-8"?>
<!-- Generator: Adobe Illustrator 15.0.0, SVG Export Plug-In . SVG Version: 6.00 Build 0)  -->
<!DOCTYPE svg PUBLIC "-//W3C//DTD SVG 1.1//EN" "http://www.w3.org/Graphics/SVG/1.1/DTD/svg11.dtd">
<svg version="1.1" id="Layer_1" xmlns="http://www.w3.org/2000/svg" xmlns:xlink="http://www.w3.org/1999/xlink" x="0px" y="0px"
	 width="92px" height="44px" viewBox="0 0 92 44" enable-background="new 0 0 92 44" xml:space="preserve">
<g>
	<path fill-rule="evenodd" clip-rule="evenodd" fill="#2A2A2A" d="M14.393,29.319c-1.173-2.416-4.711-3.222-7.996-2.742
		C3.74,26.967,1.461,28.338,0,29.502c0.735-3.977,1.443-7.654,2.194-11.649c0.101-0.543,0.131-1.207,0.32-1.645
		c0.165-0.387,1.034-1.005,1.509-1.372c1.571-1.216,3.716-2.562,6.121-2.696c2.631-0.146,5.1,1.628,6.534,3.062
		c0.24,0.238,0.613,0.518,0.639,0.73c0.033,0.264-0.286,1.323-0.364,1.69C16.114,21.519,15.18,25.436,14.393,29.319z"/>
	<path fill-rule="evenodd" clip-rule="evenodd" fill="#2A2A2A" d="M17.591,15.568c4.326,0,8.651,0,12.975,0
		c-0.177,0.719-0.387,1.41-0.548,2.146c2.878,0.107,5.955,0.016,8.91,0.046c-0.2,1.232-0.499,2.364-0.686,3.608
		c-1.111,0-2.223,0-3.335,0c-0.235,0.405-0.246,1.034-0.411,1.509c1.096,0,2.193,0,3.289,0c-0.262,1.123-0.433,2.336-0.686,3.471
		c-1.05,0-2.102,0-3.152,0c-0.471,1.586-0.735,3.376-1.143,5.025c-2.035-0.105-3.807,0.146-5.71,0
		c-1.036-0.077-2.084-0.374-3.106-0.547c-2.838-0.479-5.674-0.994-8.544-1.509c-0.201-0.035-0.566,0.045-0.687-0.227
		c0.038-0.333,0.473-0.183,0.641-0.186c3.892-0.061,8.133,0.048,12.062,0c0.767-3.573,1.408-7.272,2.148-10.873
		c-3.368-0.59-7.083-1.258-10.646-1.918c-0.486-0.091-1.261-0.099-1.417-0.366c-0.005-0.011,0.006-0.034,0-0.046
		C17.542,15.641,17.539,15.575,17.591,15.568z"/>
	<path fill-rule="evenodd" clip-rule="evenodd" fill="#2A2A2A" d="M41.35,17.67c1.903,0,3.808,0,5.71,0
		c0.226,4.221,0.505,8.855,0.732,13.021c0.962-4.231,1.775-8.611,2.694-12.884c3.28,0.139,6.779-0.478,8.773,1.005
		c1.915,1.424,1.978,5.11,0.273,6.855c-1.301,1.333-3.455,1.69-6.305,1.554c-0.314,1.329-0.455,2.832-0.73,4.203
		c-3.214,0-6.428,0-9.642,0c-0.053-0.54-0.078-1.109-0.089-1.691c-0.763,0-1.525,0-2.286,0c-0.329,0.477-0.462,1.151-0.73,1.691
		c-1.646,0-3.291,0-4.935,0c-0.048-0.304,0.209-0.54,0.32-0.777c0.922-1.965,1.855-4.043,2.833-6.031
		C39.112,22.287,40.228,19.909,41.35,17.67z M54.371,21.325c-0.121,0.791-0.243,1.583-0.366,2.375
		C55.737,24.122,56.572,20.958,54.371,21.325z M41.625,26.306c0.501,0,1.005,0,1.507,0c-0.043-1.375,0.015-2.848-0.137-4.113
		C42.57,23.595,42.075,24.928,41.625,26.306z"/>
	<path fill-rule="evenodd" clip-rule="evenodd" fill="#2A2A2A" d="M80.368,18.31c-0.312,1.561-0.673,3.073-1.051,4.569
		c-0.098,0.101-0.237-0.212-0.366-0.366c-0.414-0.494-1.26-1.178-2.102-1.28c-0.62-0.075-1.252,0.088-1.325,0.503
		c-0.104,0.599,0.706,1.058,1.143,1.37c1.208,0.866,2.656,1.531,2.468,3.794c-0.118,1.42-0.972,2.59-1.92,3.379
		c-1.964,1.637-5.283,2.074-8.042,1.007c0.331-1.528,0.576-3.142,0.916-4.66c0.122-0.118,0.197,0.217,0.32,0.364
		c0.359,0.432,1.221,1.052,2.055,1.052c0.593,0,1.315-0.371,1.325-0.914c0.008-0.496-0.635-0.825-1.097-1.189
		c-0.978-0.764-1.983-1.496-2.011-3.196c-0.046-2.833,2.601-4.865,5.255-5.071C77.711,17.531,79.058,17.804,80.368,18.31z"/>
	<path fill-rule="evenodd" clip-rule="evenodd" fill="#2A2A2A" d="M62.001,17.99c3.001,0,6.001,0,9.001,0
		c-0.22,1.243-0.398,2.525-0.593,3.792c-1.28,0-2.561,0-3.839,0c-0.128,0.406-0.147,0.919-0.273,1.323
		c1.005,0.106,2.207,0.017,3.289,0.045c-0.127,1.23-0.363,2.35-0.504,3.564c-1.141,0-2.283,0-3.426,0
		c-0.142,0.422-0.203,0.923-0.275,1.415c1.052,0.109,2.302,0.017,3.428,0.049c-0.167,1.173-0.337,2.343-0.548,3.471
		c-3.038,0.007-6.066,0.007-9.047-0.045C60.171,27.092,60.999,22.455,62.001,17.99z"/>
	<path fill-rule="evenodd" clip-rule="evenodd" fill="#2A2A2A" d="M81.738,18.035c4.186,0.005,8.56-0.517,9.868,2.33
		c0.387,0.839,0.438,1.766,0.366,2.697c-0.262,3.397-3.427,4.724-7.492,4.34c-0.336,1.323-0.475,2.845-0.732,4.248
		c-1.582,0.048-3.204,0.055-4.842,0.045C79.858,27.149,80.745,22.54,81.738,18.035z M85.623,21.507
		c-0.141,0.773-0.271,1.557-0.366,2.375C87.097,24.391,87.604,21.232,85.623,21.507z"/>
</g>
</svg>
