<?xml version="1.0" encoding="utf-8"?>
<!-- Generator: Adobe Illustrator 15.0.0, SVG Export Plug-In . SVG Version: 6.00 Build 0)  -->
<!DOCTYPE svg PUBLIC "-//W3C//DTD SVG 1.1//EN" "http://www.w3.org/Graphics/SVG/1.1/DTD/svg11.dtd">
<svg version="1.1" id="Layer_1" xmlns="http://www.w3.org/2000/svg" xmlns:xlink="http://www.w3.org/1999/xlink" x="0px" y="0px"
	 width="92px" height="44px" viewBox="0 0 92 44" enable-background="new 0 0 92 44" xml:space="preserve">
<g>
	<path fill-rule="evenodd" clip-rule="evenodd" fill="#2A2A2A" d="M13.617,1.104c0.656,0,1.312,0,1.968,0
		c1.837,0.172,4.082,1.201,5.411,2.296c0.32,0.264,1.342,0.979,1.312,1.312c-0.022,0.239-0.943,0.869-1.148,1.066
		c-0.485,0.467-0.715,0.747-1.23,1.065c-2.557-3.338-8.704-3.305-10.823,0.574c-2.957,5.413,2.817,11.412,8.527,8.445
		c0.934-0.485,1.499-1.125,2.377-1.804c0.291,0.445,0.7,0.659,1.148,1.148c0.209,0.228,1.074,1.083,1.066,1.23
		c-0.005,0.101-0.621,0.554-0.738,0.656c-0.891,0.774-1.586,1.307-2.624,1.804C13.533,21.45,7.636,18.68,5.828,14.305
		C3.154,7.837,7.534,1.605,13.617,1.104z"/>
	<path fill-rule="evenodd" clip-rule="evenodd" fill="#2A2A2A" d="M3.286,1.515c0,5.931,0,11.861,0,17.792c-1.093,0-2.187,0-3.279,0
		c0-2.862,0-5.817,0-8.773C0.007,7.536,0,4.161,0,1.515C1.038,1.515,2.248,1.515,3.286,1.515z"/>
	<path fill-rule="evenodd" clip-rule="evenodd" fill="#2A2A2A" d="M29.113,1.515c1.348,4.172,2.789,8.252,4.1,12.462
		c1.56-4.015,2.855-8.295,4.263-12.462c1.093,0,2.187,0,3.28,0c0.912,6.003,1.981,11.848,2.952,17.792c-1.066,0-2.132,0-3.198,0
		c-0.644-3.701-1.298-7.393-1.886-11.151c-1.459,3.542-2.578,7.425-3.854,11.151c-1.011,0-2.022,0-3.034,0
		c-1.165-3.809-2.49-7.458-3.689-11.233c-0.759,3.642-1.373,7.427-1.968,11.233c-1.093,0-2.187,0-3.28,0
		c1.023-5.946,1.976-11.962,3.116-17.792C26.981,1.515,28.047,1.515,29.113,1.515z"/>
	<path fill-rule="evenodd" clip-rule="evenodd" fill="#2A2A2A" d="M54.858,1.104c2.976,0.44,5.148,1.685,6.723,3.526
		c-0.727,0.803-1.507,1.554-2.377,2.213c-0.629-0.719-1.191-1.121-1.968-1.558c-3.232-1.817-6.938-0.676-8.527,1.64
		c-3.279,4.775,1.4,11.312,7.297,9.347c1.275-0.425,2.232-1.271,3.198-1.886c-0.711,1.023-0.896,2.969-0.82,4.509
		c-7.303,2.777-14.021-1.271-14.021-8.445c0-5.475,3.533-8.459,8.527-9.347C53.546,1.104,54.202,1.104,54.858,1.104z"/>
	<g>
		<path fill-rule="evenodd" clip-rule="evenodd" fill="#2A2A2A" d="M63.435,8.805c0-0.003,0-0.005,0-0.007
			c0.015-2.218,0.008-4.502,0.008-6.738c0-0.061-0.025-0.421,0.008-0.446c0.013-0.009,0.168,0,0.243,0
			c2.57,0,5.167-0.006,7.698,0.007c-0.006,0.217,0.011,0.453-0.009,0.658c-1.047,0-2.094,0-3.141,0
			c-0.005,2.102,0.011,4.224-0.008,6.314c-0.265-0.005-0.551,0.01-0.801-0.008c0-2.102,0-4.204,0-6.306c-1.104,0-2.208,0-3.312,0
			c0,1.985,0,3.993,0,5.985c0,0.349-0.009,0.685,0.065,0.943c0.151,0.523,0.562,0.838,1.222,0.892c0.327,0.026,0.712,0,1.093,0
			c1.128,0,2.217,0,3.312,0c0.197,0,0.371,0.006,0.525-0.022c0.749-0.139,1.029-0.746,1.158-1.461
			c0.256,0.005,0.533-0.01,0.776,0.007c0.134,0.735,0.369,1.477,1.279,1.477c1.432,0,2.928,0,4.371,0c0.169,0,0.345,0.019,0.493,0
			c0.225-0.029,0.486-0.227,0.623-0.336c0.257-0.205,0.525-0.477,0.551-0.862c0.02-0.287,0-0.611,0-0.906
			c0-0.144,0.03-0.322,0-0.453c-0.015-0.066-0.161-0.16-0.234-0.227c-1.233-1.113-2.48-2.192-3.691-3.295
			c0.171-0.162,0.328-0.338,0.502-0.497c1.026,0.929,2.042,1.864,3.067,2.806c0.247,0.226,0.511,0.468,0.77,0.702
			c0.076,0.069,0.243,0.196,0.243,0.263c0,0.518,0,1.014,0,1.49c0,0.265-0.003,0.484-0.073,0.68c-0.19,0.535-0.7,0.918-1.238,1.132
			c-0.196,0.078-0.417,0.124-0.688,0.124c-1.38,0-2.735,0-4.145,0c-0.299,0-0.564,0.012-0.809-0.014
			c-0.729-0.079-1.16-0.444-1.441-0.95c-0.365,0.512-0.871,0.964-1.829,0.964c-0.924,0-1.935,0-2.906,0
			c-0.959,0-2.016,0.085-2.646-0.226C63.85,10.186,63.505,9.61,63.435,8.805z"/>
		<path fill-rule="evenodd" clip-rule="evenodd" fill="#2A2A2A" d="M80.021,2.491c0.271-0.374,0.594-0.677,1.116-0.812
			c0.27-0.069,0.585-0.065,0.932-0.065c1.327,0,2.693-0.024,4.022,0c0.927,0.017,1.634,0.396,1.991,0.928
			c0.132,0.196,0.214,0.403,0.259,0.672c0.044,0.255,0.024,0.59,0.024,0.884c0,1.196,0,2.412,0,3.632c-1.341,0-2.682,0-4.022,0
			c-0.02,0.981-0.003,1.995-0.008,2.988c-1.342,0-2.683,0-4.023,0c-0.013-0.164-0.014-0.433,0-0.621c1.082,0,2.164,0,3.246,0
			c0.019-2.073,0.002-4.178,0.008-6.263c0.248,0,0.497,0,0.744,0c0,1.084,0,2.167,0,3.252c1.096,0.017,2.227,0.002,3.336,0.007
			c0-1.087,0-2.198,0-3.223c0-0.788-0.344-1.317-0.996-1.513c-0.229-0.068-0.478-0.08-0.801-0.08c-1.172,0-2.385,0-3.562,0
			c-0.32,0-0.564,0.005-0.801,0.08c-0.637,0.202-1.071,0.66-1.061,1.455c-0.224,0.01-0.482-0.013-0.721,0
			c-0.02,0.001-0.074-0.017-0.072,0.022c-0.009-0.435-0.152-0.752-0.364-1.016c-0.203-0.252-0.506-0.454-0.915-0.519
			c-0.221-0.035-0.469-0.022-0.721-0.022c-1.25,0-2.462,0-3.724,0c-0.267,0-0.496-0.006-0.695,0.044
			c-0.575,0.143-0.811,0.601-0.866,1.235c-0.028,0.319-0.017,0.65-0.017,0.994c0,0.097-0.033,0.273,0,0.344
			c0.03,0.063,0.158,0.15,0.234,0.219c1.181,1.065,2.373,2.185,3.546,3.23c-0.159,0.17-0.339,0.322-0.502,0.489
			c-1.256-1.131-2.54-2.286-3.82-3.442c-0.067-0.061-0.226-0.177-0.243-0.234c-0.023-0.078,0-0.213,0-0.321c0-0.325,0-0.65,0-0.964
			c0-0.465,0.048-0.826,0.17-1.133c0.256-0.641,0.744-1.083,1.627-1.125c0.618-0.03,1.269,0,1.919,0c0.639,0,1.282,0,1.91,0
			c0.662,0,1.278-0.018,1.789,0.11C79.46,1.848,79.83,2.072,80.021,2.491z"/>
	</g>
	<path fill-rule="evenodd" clip-rule="evenodd" fill="#2A2A2A" d="M92,31.441c0,0.629,0,1.258,0,1.886
		c-0.678,4.789-4.488,7.569-10.167,6.56c-2.617,2.738-9.082,4.242-13.282,1.722c-0.76-0.456-1.176-1.114-1.968-1.476
		c-5.174,1.896-9.51-1.329-9.921-5.739c-0.485-5.203,3.033-8.75,5.165-11.479c-1.793-1.766-3.564-4.724-2.378-7.625
		c0.614-1.5,2.178-2.604,4.428-2.542c1.734,0.047,3.257,0.846,4.346,1.64c0.21,0.153,0.936,0.827,1.065,0.82
		c0.057-0.003,1.157-0.975,1.395-1.148c0.5-0.366,1.145-0.822,1.558-0.984c2.781-1.085,5.402,0.531,6.805,1.886
		c1.756-0.973,3.629-2.78,6.231-2.295c2.362,0.439,3.919,2.708,3.607,5.165c-0.232,1.841-1.5,3.037-2.459,4.346
		C88.64,24.908,91.045,27.45,92,31.441z M86.589,21.028c0.718-0.817,1.5-2.14,1.64-3.279c0.322-2.627-1.44-4.621-3.936-4.51
		c-0.026,0.001-0.057-0.004-0.082,0c-3.4,0.539-6.494,3.456-8.773,5.33c-0.298,0.245-0.828,0.567-0.737,0.984
		c0.408,0.302,0.733-0.302,0.983-0.492c2.196-1.667,5.143-4.397,7.953-5.083c3.822-0.933,4.825,3.155,3.361,5.658
		c-0.39,0.666-1.021,1.11-1.229,1.804C86.065,21.695,86.411,21.23,86.589,21.028z M66.829,14.305
		c-2.654-1.429-6.626-1.169-7.052,2.296c-0.409,3.333,1.695,4.975,3.362,6.641c1.314,1.315,2.51,2.621,3.443,3.854
		c0.518-0.389,0.104-0.89-0.164-1.229c-0.962-1.216-2.005-2.183-3.034-3.28c-1.347-1.436-3.164-2.898-3.033-5.411
		c0.177-3.421,4.225-3.701,6.641-2.296c0.531,0.309,0.982,1.08,1.641,0.902C68.404,15.057,67.54,14.688,66.829,14.305z
		 M77.159,14.305c-1.081-0.722-3.053-1.344-4.755-0.656c-1.381,0.558-2.802,2.026-4.018,3.197c-0.61,0.588-1.223,1.223-1.804,1.804
		c-0.592,0.591-1.584,1.136-1.395,1.968c0.452,0.043,0.72-0.53,0.984-0.82c0.973-1.067,1.944-1.925,3.033-2.87
		c1.505-1.303,2.85-2.873,5.084-2.87c1.132,0.002,1.903,0.473,2.542,0.902c0.418,0.282,0.911,0.995,1.476,0.574
		C78.334,15.063,77.662,14.641,77.159,14.305z M77.733,19.798c1.593-1.244,3.891-3.128,5.657-3.771
		c1.111-0.405,2.287-0.006,2.46,0.902c0.289,1.521-1.932,2.751-1.312,3.198c0.613,0.442,1.979-1.836,1.886-3.116
		c-0.092-1.253-0.955-1.989-2.378-1.804c-1.634,0.213-2.909,1.475-4.346,2.542c-1.047,0.777-2.028,1.516-2.952,2.213
		c-0.327,0.247-0.908,0.458-0.737,0.738C76.64,21.15,77.216,20.203,77.733,19.798z M67.156,23.734
		c-0.488-0.562-1.084-1.198-1.558-1.722c-0.881-0.975-2.539-2.49-2.951-3.689c-0.624-1.817,0.729-2.674,2.296-2.214
		c0.801,0.235,2.116,1.497,2.377,0.902c0.132-0.3-0.818-0.841-1.229-1.066c-1.63-0.89-4.306-1.035-4.428,1.312
		c-0.109,2.095,1.803,3.554,3.034,4.837c1.121,1.169,2.199,2.285,3.115,3.444C68.592,24.933,67.526,24.16,67.156,23.734z
		 M72.158,16.027c-1.458,0.959-3.389,3.034-4.674,4.346c-0.496,0.506-1.324,1-1.065,1.64c0.636-0.064,0.962-0.843,1.476-1.394
		c0.467-0.5,1.068-0.964,1.64-1.476c1.319-1.183,2.809-2.935,4.51-3.116c1.41-0.15,1.824,0.878,2.705,0.738
		C76.053,15.358,73.707,15.008,72.158,16.027z M83.883,19.389c0.209-0.025,0.659-0.887,0.737-0.984
		c0.366-0.452,0.712-0.645,0.656-1.148c-0.168-1.529-2.751-0.305-3.361,0.328C82.274,17.787,83.446,19.44,83.883,19.389z
		 M63.221,18.077c0.081,0.245,1.171,1.734,1.395,1.722c0.131-0.007,0.725-0.885,0.901-1.066c0.44-0.449,0.792-0.596,0.984-1.065
		C65.642,16.85,62.46,15.751,63.221,18.077z M72.322,17.667c0.599,0.413,1.054,0.968,1.722,1.312
		c0.614-0.561,1.295-1.055,1.886-1.64C75.072,16.315,72.927,16.656,72.322,17.667z M78.799,24.391
		c-2.083-2.288-4.577-4.406-6.969-6.232c-0.005-0.05-0.012-0.097-0.082-0.082c-0.082,0-0.098,0.066-0.164,0.082
		c-0.018,0.064-0.068,0.095-0.164,0.082c1.974,1.758,3.992,3.664,5.821,5.494c0.62,0.619,1.229,1.372,2.05,1.64
		C79.679,24.91,79.001,24.612,78.799,24.391z M91.344,33.245c0.259-2.774-0.771-4.166-1.804-5.821
		c-2.112-3.383-5.503-7.467-8.363-9.347c-0.082,0-0.098,0.066-0.164,0.082c-0.018,0.064-0.068,0.095-0.164,0.082
		c1.586,1.528,3.41,3.408,5.084,5.412c1.599,1.913,3.397,4.014,4.264,6.231c1.769,4.532-0.885,8.523-5.248,8.855
		c-1.09,0.082-2.359-0.447-2.623,0.573C87.713,40.183,90.979,37.157,91.344,33.245z M88.966,30.294
		c-0.427-1.043-1.264-2.098-1.968-3.116c-1.997-2.89-4.753-6.005-7.297-7.953c-0.018-0.099-0.091-0.05-0.164,0
		c-0.018,0.064-0.068,0.095-0.164,0.082c2.354,2.297,5.277,5.51,7.297,8.527c0.725,1.081,1.633,2.327,1.969,3.361
		c0.854,2.638-1.096,4.723-2.87,5.33c-0.687,0.234-1.731-0.024-2.214,0.737C87.834,38.204,90.572,34.219,88.966,30.294z
		 M77.651,25.948c-2.287-2.271-4.869-4.925-7.379-6.724c-0.056,0.19-0.272,0.22-0.328,0.41c2.289,1.588,4.326,3.67,6.231,5.575
		c0.652,0.652,1.196,1.454,1.968,1.886C78.549,26.547,77.948,26.243,77.651,25.948z M78.799,19.798
		c-0.685,0.491-1.26,1.091-1.967,1.558c0.961,1.116,2.057,2.098,3.115,3.115c0.443-0.786,1.049-1.41,1.476-2.213
		C80.536,21.45,79.724,20.568,78.799,19.798z M69.37,20.044c-0.763,0.876-1.658,1.622-2.295,2.624
		c0.574,0.573,0.989,1.306,1.64,1.804c0.876-0.981,1.819-1.897,2.623-2.952C70.695,21.015,70.15,20.412,69.37,20.044z
		 M71.748,22.012c-2.547,3.458-8.085,7.17-6.969,13.283c0.098,0.534,0.033,1.525,0.819,1.148c-0.155-1.053-0.529-2.319-0.41-3.689
		c0.208-2.377,1.746-4.193,3.116-5.904c1.052-1.312,2.057-2.463,3.115-3.607c0.255-0.275,0.968-0.744,0.574-1.23
		C71.912,22.012,71.83,22.012,71.748,22.012z M76.913,33.573c0.068,0.725,0.413,1.589,0.738,2.214
		c0.221,0.425,0.896,1.803,1.394,1.312c0.266-0.261-0.104-0.62-0.246-0.819c-0.657-0.92-1.298-1.933-1.394-3.198
		c-0.341-4.511,3.35-6.893,4.674-10.085c-0.117-0.02-0.139-0.135-0.246-0.164C80.244,25.591,76.459,28.695,76.913,33.573z
		 M73.142,23.242c-1.184,1.312-2.489,2.702-3.854,4.428c-1.691,2.14-3.648,4.503-2.459,8.117c0.339-0.099,0.56-0.314,0.737-0.574
		c-1.317-2.99,0.836-5.454,2.378-7.379c1.283-1.602,2.75-2.984,3.607-4.346C73.358,23.463,73.399,23.203,73.142,23.242z
		 M62.319,23.324c-2.021,2.782-5.172,5.521-5.083,10.167c0.072,3.846,2.574,6.477,5.984,6.56c4.719,0.114,8.792-3.04,8.363-7.953
		c-0.096-1.097-0.523-2.208-0.901-2.952c-0.096-0.188-0.079-0.625-0.41-0.573c-0.473,0.289,0.003,0.69,0.082,0.901
		c1.971,5.29-1.419,10.166-7.052,9.921c-2.97-0.129-5.055-2.617-5.329-5.165c-0.403-3.748,1.846-6.713,3.361-8.691
		c0.511-0.665,1.251-1.117,1.395-1.886C62.539,23.597,62.51,23.38,62.319,23.324z M74.044,24.062
		c-1.049,1.301-2.284,2.417-3.197,3.854c1.834,2.46,1.776,7.737-0.328,9.839c1.67,1.6,5.878,1.372,7.625,0
		c-2.363-2.094-2.35-7.579-0.492-10.003C76.486,26.485,75.316,25.223,74.044,24.062z M78.718,33.163
		c0.12,1.064,0.658,2.132,1.476,2.542c0.554-0.751-0.117-1.021-0.41-1.64c-1.73-3.656,2.422-7.003,3.689-9.43
		c-0.165-0.162-0.268-0.388-0.492-0.491C81.736,26.521,78.323,29.681,78.718,33.163z M63.631,24.8
		c-1.416,2.104-4.024,4.575-4.345,7.708c-0.329,3.21,1.747,5.459,4.099,5.575c3.972,0.195,7.855-3.271,5.739-8.035
		c-0.821,0.612-0.103,1.175,0,2.05c0.413,3.503-2.478,5.414-5.247,5.329c-2.257-0.069-3.712-1.945-3.854-4.018
		c-0.189-2.772,1.82-5.167,2.952-6.724c0.392-0.539,1.048-1.131,0.901-1.804C63.772,24.878,63.764,24.777,63.631,24.8z
		 M88.064,31.441c-0.25-0.883-1.192-2.161-1.886-3.197c-0.8-1.194-1.745-2.333-2.296-3.034c-0.537,0.639-1.047,1.304-1.476,2.05
		c1.604,1.907,2.673,5.642,1.64,8.938C86.643,36.071,88.842,34.188,88.064,31.441z M64.451,25.702
		c-1.546,2.148-5.789,7.143-2.706,10.085c0.604,0.575,1.349,0.996,2.624,0.902c-0.266-1.163-0.54-2.692-0.41-4.182
		c0.178-2.034,1.402-3.536,2.132-4.838C65.538,27.02,65.225,26.132,64.451,25.702z M81.751,28.162
		c0.851,1.827,1.844,3.467,1.558,6.149c-0.593,5.563-7.824,8.924-13.2,6.559c-0.916-0.402-1.628-1.284-2.542-1.065
		c0.424,0.743,1.292,1.246,2.132,1.64c6.377,2.985,13.688-1.606,14.103-7.379c0.185-2.582-0.64-4.632-1.722-6.067
		c-0.019-0.063-0.069-0.096-0.164-0.082C81.875,28.013,81.827,28.102,81.751,28.162z M80.768,29.966
		c0.271,1.115,0.847,2.306,0.655,4.018c-0.414,3.707-5.072,6.36-9.019,5.411c-1.229-0.296-2.248-1.762-3.116-0.492
		c5.152,3.639,13.398-0.001,12.709-6.477c-0.104-0.972-0.602-2.173-1.148-2.788C80.867,29.793,80.757,29.818,80.768,29.966z
		 M80.685,34.229c0.239-1.127,0.084-2.522-0.409-3.361C79.898,31.944,79.992,33.555,80.685,34.229z M68.059,34.558
		c0.464-0.649,0.604-2.393,0.164-3.198C67.873,32.11,67.554,33.705,68.059,34.558z"/>
	<g>
		<path fill="#2A2A2A" d="M3.794,24.729c0,0.177-0.042,0.353-0.124,0.526c-0.083,0.173-0.199,0.32-0.348,0.44
			c-0.164,0.131-0.354,0.232-0.572,0.307c-0.218,0.073-0.48,0.109-0.787,0.109c-0.329,0-0.625-0.03-0.888-0.092
			c-0.263-0.061-0.53-0.151-0.802-0.272v-0.759h0.043c0.231,0.191,0.498,0.34,0.801,0.444c0.302,0.104,0.586,0.155,0.853,0.155
			c0.376,0,0.669-0.07,0.878-0.211c0.21-0.141,0.314-0.328,0.314-0.563c0-0.202-0.05-0.351-0.149-0.446s-0.25-0.171-0.452-0.224
			c-0.153-0.041-0.319-0.074-0.499-0.102c-0.179-0.026-0.368-0.06-0.569-0.101c-0.405-0.086-0.705-0.232-0.9-0.439
			s-0.293-0.477-0.293-0.81c0-0.382,0.162-0.694,0.484-0.938c0.323-0.244,0.733-0.366,1.23-0.366c0.321,0,0.615,0.031,0.883,0.092
			c0.268,0.062,0.505,0.137,0.711,0.227v0.716H3.567c-0.174-0.147-0.402-0.269-0.686-0.366c-0.283-0.097-0.573-0.146-0.869-0.146
			c-0.325,0-0.586,0.067-0.784,0.202s-0.296,0.308-0.296,0.521c0,0.189,0.049,0.338,0.147,0.447s0.271,0.191,0.519,0.248
			c0.131,0.028,0.317,0.063,0.558,0.104s0.446,0.082,0.613,0.125c0.339,0.09,0.595,0.226,0.767,0.407
			C3.708,24.148,3.794,24.402,3.794,24.729z"/>
		<path fill="#2A2A2A" d="M10.254,26.03H9.607L9.159,24.76H7.184L6.736,26.03H6.12l1.663-4.559h0.81L10.254,26.03z M9.472,19.932
			c-0.022,0.31-0.101,0.544-0.236,0.701c-0.135,0.157-0.316,0.235-0.543,0.235c-0.11,0-0.213-0.02-0.307-0.06
			c-0.094-0.04-0.183-0.097-0.267-0.173c-0.096-0.088-0.177-0.153-0.244-0.197s-0.14-0.066-0.219-0.066
			c-0.106,0-0.186,0.046-0.239,0.138s-0.084,0.215-0.092,0.37H6.923c0.016-0.308,0.097-0.541,0.242-0.698s0.323-0.236,0.534-0.236
			c0.102,0,0.201,0.02,0.296,0.06c0.095,0.04,0.186,0.096,0.271,0.17c0.096,0.083,0.182,0.146,0.256,0.188
			c0.075,0.042,0.146,0.062,0.213,0.062c0.104,0,0.186-0.047,0.244-0.141c0.059-0.094,0.09-0.212,0.097-0.355H9.472z M8.972,24.239
			l-0.801-2.238l-0.803,2.238H8.972z"/>
		<path fill="#2A2A2A" d="M16.235,21.995c0.186,0.204,0.329,0.454,0.428,0.75c0.1,0.296,0.149,0.632,0.149,1.008
			c0,0.375-0.051,0.711-0.152,1.009c-0.101,0.297-0.243,0.544-0.425,0.742c-0.188,0.206-0.41,0.36-0.667,0.465
			c-0.256,0.104-0.549,0.156-0.878,0.156c-0.321,0-0.613-0.053-0.876-0.159c-0.263-0.106-0.486-0.261-0.67-0.462
			c-0.184-0.202-0.326-0.45-0.425-0.744s-0.148-0.63-0.148-1.007c0-0.372,0.049-0.705,0.147-1s0.241-0.547,0.429-0.758
			c0.18-0.2,0.403-0.353,0.67-0.459c0.267-0.106,0.558-0.159,0.873-0.159c0.327,0,0.621,0.054,0.881,0.161
			C15.832,21.645,16.053,21.797,16.235,21.995z M16.18,23.753c0-0.592-0.133-1.049-0.398-1.371
			c-0.266-0.321-0.629-0.482-1.089-0.482c-0.464,0-0.829,0.161-1.093,0.482c-0.265,0.322-0.397,0.779-0.397,1.371
			c0,0.598,0.135,1.056,0.405,1.372c0.27,0.317,0.631,0.477,1.085,0.477s0.815-0.159,1.084-0.477
			C16.046,24.809,16.18,24.351,16.18,23.753z"/>
		<path fill="#2A2A2A" d="M27.278,25.699c-0.112,0.049-0.214,0.095-0.305,0.138c-0.091,0.043-0.21,0.088-0.357,0.135
			c-0.125,0.039-0.26,0.072-0.406,0.1c-0.146,0.027-0.308,0.041-0.483,0.041c-0.331,0-0.632-0.046-0.903-0.139
			c-0.271-0.093-0.506-0.238-0.707-0.437c-0.196-0.194-0.35-0.44-0.46-0.739c-0.111-0.299-0.166-0.646-0.166-1.042
			c0-0.376,0.053-0.711,0.159-1.008c0.106-0.295,0.26-0.545,0.46-0.75c0.194-0.198,0.429-0.349,0.704-0.453
			c0.275-0.104,0.58-0.156,0.916-0.156c0.245,0,0.49,0.03,0.734,0.089c0.244,0.059,0.516,0.163,0.814,0.312v0.72h-0.046
			c-0.251-0.21-0.501-0.363-0.748-0.459c-0.248-0.096-0.512-0.144-0.794-0.144c-0.231,0-0.439,0.037-0.624,0.112
			c-0.185,0.074-0.35,0.19-0.496,0.347c-0.141,0.153-0.251,0.346-0.33,0.58s-0.118,0.503-0.118,0.81c0,0.32,0.043,0.596,0.13,0.826
			s0.199,0.418,0.336,0.563c0.143,0.15,0.31,0.263,0.501,0.335c0.191,0.072,0.393,0.108,0.606,0.108c0.292,0,0.566-0.05,0.822-0.149
			c0.255-0.101,0.495-0.25,0.717-0.45h0.043V25.699z"/>
		<path fill="#2A2A2A" d="M33.622,26.03h-0.647l-0.448-1.271h-1.975l-0.448,1.271h-0.617l1.662-4.559h0.81L33.622,26.03z
			 M32.34,24.239l-0.8-2.238l-0.803,2.238H32.34z"/>
		<path fill="#2A2A2A" d="M39.978,26.03h-0.788l-1.527-1.812h-0.855v1.812h-0.607v-4.559h1.279c0.276,0,0.506,0.018,0.69,0.054
			c0.184,0.036,0.35,0.1,0.497,0.191c0.166,0.104,0.295,0.235,0.388,0.393c0.093,0.158,0.139,0.359,0.139,0.602
			c0,0.329-0.083,0.604-0.248,0.826c-0.166,0.221-0.394,0.388-0.684,0.5L39.978,26.03z M38.558,22.754
			c0-0.13-0.023-0.246-0.069-0.348c-0.046-0.101-0.122-0.186-0.229-0.255c-0.088-0.059-0.192-0.101-0.313-0.124
			s-0.263-0.035-0.426-0.035h-0.714v1.721h0.613c0.192,0,0.36-0.017,0.503-0.051c0.143-0.033,0.265-0.097,0.365-0.188
			c0.092-0.085,0.16-0.184,0.204-0.295S38.558,22.926,38.558,22.754z"/>
		<path fill="#2A2A2A" d="M45.34,26.03h-2.889v-4.559h0.607v4.02h2.282V26.03z"/>
		<path fill="#2A2A2A" d="M51.174,21.995c0.187,0.204,0.329,0.454,0.428,0.75c0.1,0.296,0.149,0.632,0.149,1.008
			c0,0.375-0.051,0.711-0.152,1.009c-0.102,0.297-0.243,0.544-0.425,0.742c-0.188,0.206-0.41,0.36-0.667,0.465
			s-0.549,0.156-0.879,0.156c-0.32,0-0.612-0.053-0.875-0.159s-0.486-0.261-0.67-0.462c-0.185-0.202-0.326-0.45-0.425-0.744
			c-0.1-0.294-0.149-0.63-0.149-1.007c0-0.372,0.05-0.705,0.147-1c0.099-0.295,0.241-0.547,0.43-0.758
			c0.18-0.2,0.403-0.353,0.67-0.459s0.558-0.159,0.872-0.159c0.327,0,0.621,0.054,0.882,0.161
			C50.771,21.645,50.992,21.797,51.174,21.995z M51.119,23.753c0-0.592-0.133-1.049-0.399-1.371
			c-0.266-0.321-0.628-0.482-1.088-0.482c-0.465,0-0.829,0.161-1.094,0.482c-0.265,0.322-0.397,0.779-0.397,1.371
			c0,0.598,0.136,1.056,0.405,1.372c0.27,0.317,0.632,0.477,1.086,0.477c0.453,0,0.814-0.159,1.084-0.477
			C50.984,24.809,51.119,24.351,51.119,23.753z"/>
		<path fill="#2A2A2A" d="M57.916,24.729c0,0.177-0.041,0.353-0.124,0.526c-0.083,0.173-0.199,0.32-0.348,0.44
			c-0.164,0.131-0.354,0.232-0.572,0.307c-0.218,0.073-0.48,0.109-0.787,0.109c-0.329,0-0.625-0.03-0.888-0.092
			c-0.263-0.061-0.53-0.151-0.802-0.272v-0.759h0.043c0.23,0.191,0.498,0.34,0.801,0.444c0.302,0.104,0.586,0.155,0.853,0.155
			c0.376,0,0.669-0.07,0.878-0.211c0.21-0.141,0.314-0.328,0.314-0.563c0-0.202-0.05-0.351-0.148-0.446
			c-0.1-0.096-0.25-0.171-0.452-0.224c-0.153-0.041-0.319-0.074-0.499-0.102c-0.179-0.026-0.368-0.06-0.568-0.101
			c-0.405-0.086-0.705-0.232-0.9-0.439s-0.293-0.477-0.293-0.81c0-0.382,0.162-0.694,0.484-0.938
			c0.323-0.244,0.733-0.366,1.23-0.366c0.32,0,0.615,0.031,0.883,0.092c0.268,0.062,0.505,0.137,0.712,0.227v0.716h-0.043
			c-0.174-0.147-0.402-0.269-0.686-0.366c-0.283-0.097-0.573-0.146-0.869-0.146c-0.325,0-0.587,0.067-0.784,0.202
			s-0.296,0.308-0.296,0.521c0,0.189,0.049,0.338,0.147,0.447c0.098,0.108,0.271,0.191,0.519,0.248
			c0.131,0.028,0.316,0.063,0.558,0.104s0.446,0.082,0.613,0.125c0.34,0.09,0.596,0.226,0.767,0.407
			C57.83,24.148,57.916,24.402,57.916,24.729z"/>
	</g>
</g>
</svg>
