<?xml version="1.0" encoding="utf-8"?>
<!-- Generator: Adobe Illustrator 15.0.0, SVG Export Plug-In . SVG Version: 6.00 Build 0)  -->
<!DOCTYPE svg PUBLIC "-//W3C//DTD SVG 1.1//EN" "http://www.w3.org/Graphics/SVG/1.1/DTD/svg11.dtd">
<svg version="1.1" id="Layer_1" xmlns="http://www.w3.org/2000/svg" xmlns:xlink="http://www.w3.org/1999/xlink" x="0px" y="0px"
	 width="92px" height="44px" viewBox="0 0 92 44" enable-background="new 0 0 92 44" xml:space="preserve">
<path fill="#2A2A2A" d="M86.77,10.883L83.7,32.96h2.099l0.721-5.95h2.568l0.72,5.95H92l-3.037-22.077H86.77z M86.738,25.037
	l1.064-8.893l1.064,8.893H86.738z M77.154,10.883c-2.348,0-3.633,1.285-3.633,3.414v15.406c0,2.13,1.285,3.414,3.633,3.414
	c2.35,0,3.634-1.284,3.634-3.414V14.297C80.788,12.168,79.504,10.883,77.154,10.883z M78.596,29.703
	c0,0.783-0.533,1.348-1.441,1.348s-1.44-0.564-1.44-1.348V14.297c0-0.782,0.532-1.347,1.44-1.347s1.441,0.564,1.441,1.347V29.703z
	 M55.265,10.883c-2.349,0-3.634,1.285-3.634,3.414v3.068c0,5.292,5.074,5.73,5.074,9.613v2.725c0,0.783-0.533,1.348-1.44,1.348
	c-0.909,0-1.44-0.564-1.44-1.348v-4.572h-2.193v4.572c0,2.13,1.285,3.414,3.634,3.414c2.347,0,3.629-1.284,3.629-3.414v-2.725
	c0-5.167-5.069-5.887-5.069-9.613v-3.068c0-0.782,0.531-1.347,1.44-1.347c0.907,0,1.44,0.564,1.44,1.347v4.572h2.188v-4.572
	C58.894,12.168,57.611,10.883,55.265,10.883z M38.695,11.04h-2.192v21.92h6.077v-1.973h-3.884V11.04z M68.166,21.938
	c1.064-0.407,1.598-1.19,1.598-2.286v-5.323c0-2.129-1.19-3.288-3.539-3.288h-3.602v21.92h3.758c2.35,0,3.539-1.189,3.539-3.288
	v-5.417C69.92,23.096,69.324,22.313,68.166,21.938z M64.814,12.981h1.41c0.908,0,1.346,0.563,1.346,1.347v5.323
	c0,0.783-0.438,1.315-1.346,1.315h-1.41V12.981z M67.728,29.672c0,0.783-0.438,1.315-1.347,1.315h-1.566v-8.048h1.566
	c0.908,0,1.347,0.532,1.347,1.315V29.672z M17.508,31.402c0,4.835-2.708,8.755-6.048,8.755s-6.049-3.92-6.049-8.755V3.483H0v25.213
	c0,7.056,5.131,11.82,11.46,11.82s11.459-4.765,11.459-11.82V3.483h-5.411V31.402z M45.679,32.96h2.192V11.04h-2.192V32.96z"/>
</svg>
