<?xml version="1.0" encoding="utf-8"?>
<!-- Generator: Adobe Illustrator 15.0.0, SVG Export Plug-In . SVG Version: 6.00 Build 0)  -->
<!DOCTYPE svg PUBLIC "-//W3C//DTD SVG 1.1//EN" "http://www.w3.org/Graphics/SVG/1.1/DTD/svg11.dtd">
<svg version="1.1" id="Layer_1" xmlns="http://www.w3.org/2000/svg" xmlns:xlink="http://www.w3.org/1999/xlink" x="0px" y="0px"
	 width="184.251px" height="166.572px" viewBox="-5.597 11.714 184.251 166.572"
	 enable-background="new -5.597 11.714 184.251 166.572" xml:space="preserve">
<g>
	<polygon fill="#88DEEB" points="87.097,156.554 84.428,156.482 84.718,141.145 87.097,141.145 	"/>
	<path fill="#88DEEB" d="M86.171,156.515c22.024,0.711,44.447,16.026,44.447,16.026l-0.003-48.974c0,0-22.419,17.083-44.444,17.561
		V156.515z"/>
	<path fill="#41C6DA" d="M160.286,120.096l-41.92,24.094c0,0,2.501-25.42-7.868-43.381C99.252,81.327,72.938,69.444,72.938,69.444
		l43.429-25.165c0,0-4.033,29.052,7.133,48.385C133.963,110.796,160.286,120.096,160.286,120.096z"/>
	<path fill="#2597A7" d="M48.728,92.664c11.164-19.333,7.27-48.218,7.27-48.218l43.285,24.906c0,0-26.31,11.975-37.555,31.456
		c-10.37,17.961-6.866,43.985-6.866,43.985l-42.392-24.5C12.469,120.294,38.259,110.796,48.728,92.664z"/>
	<circle fill="#41C6DA" cx="86.171" cy="42.027" r="30.307"/>
	<circle fill="#88DEEB" cx="148.346" cy="147.957" r="30.309"/>
	<path fill="#88DEEB" d="M86.171,141.128c-0.313,0.006-0.627,0.021-0.943,0.021c-20.937,0.003-42.059-17.223-42.059-17.223v48.095
		c0,0,20.766-15.541,41.505-15.541c0.499,0,0.997,0.019,1.496,0.034V141.128z"/>
	<path fill="#2597A7" d="M17.455,118.544c16.25-4.011,32.676,5.913,36.687,22.164c4.011,16.25-5.911,32.675-22.161,36.689
		c-16.251,4.008-32.676-5.916-36.688-22.166C-8.719,138.981,1.205,122.557,17.455,118.544z"/>
</g>
</svg>
