<?xml version="1.0" encoding="utf-8"?>
<!-- Generator: Adobe Illustrator 15.0.0, SVG Export Plug-In . SVG Version: 6.00 Build 0)  -->
<!DOCTYPE svg PUBLIC "-//W3C//DTD SVG 1.1//EN" "http://www.w3.org/Graphics/SVG/1.1/DTD/svg11.dtd">
<svg version="1.1" id="Layer_1" xmlns="http://www.w3.org/2000/svg" xmlns:xlink="http://www.w3.org/1999/xlink" x="0px" y="0px"
	 width="45px" height="45px" viewBox="0 0 45 45" enable-background="new 0 0 45 45" xml:space="preserve">
<circle fill="#EE4037" cx="22.5" cy="22.5" r="22.5"/>
<path fill="#F5F5F5" d="M20.476,11.97c0,0,0.326,0.07,0.326,0.05v-0.302c0-0.607,0.165-1.107,0.771-1.107h2.646
	c0.606,0,1.339,0.5,1.339,1.107v0.302c0,0.02-0.24-0.05-0.243-0.05H20.476z M30.992,14.241c0-0.604-0.244-0.912-0.855-0.912h-15.27
	c-0.616,0-0.858,0.308-0.858,0.912v1.126h16.984V14.241L30.992,14.241z M31.096,16.726L29.261,32.37
	c-0.142,1.198-1.243,2.02-2.452,2.02h-8.62c-1.207,0-2.309-0.821-2.448-2.02l-1.836-15.645H31.096z M20.632,31.158l-1.05-12.404
	c-0.038-0.41-0.394-0.71-0.803-0.677c-0.408,0.032-0.708,0.394-0.677,0.801l1.051,12.404c0.037,0.41,0.391,0.71,0.803,0.678
	C20.363,31.927,20.664,31.567,20.632,31.158z M26.896,18.878c0.034-0.408-0.268-0.769-0.677-0.801
	c-0.406-0.034-0.766,0.267-0.801,0.677l-1.052,12.404c-0.034,0.409,0.267,0.769,0.677,0.802c0.407,0.032,0.767-0.269,0.802-0.678
	L26.896,18.878z"/>
</svg>
