<?xml version="1.0" encoding="utf-8"?>
<!-- Generator: Adobe Illustrator 15.0.0, SVG Export Plug-In . SVG Version: 6.00 Build 0)  -->
<!DOCTYPE svg PUBLIC "-//W3C//DTD SVG 1.1//EN" "http://www.w3.org/Graphics/SVG/1.1/DTD/svg11.dtd">
<svg version="1.1" id="Layer_1" xmlns="http://www.w3.org/2000/svg" xmlns:xlink="http://www.w3.org/1999/xlink" x="0px" y="0px"
	 width="50px" height="50px" viewBox="5 5 50 50" enable-background="new 5 5 50 50" xml:space="preserve">
<path fill="#6bd011" d="M30,5C16.194,5,5,16.194,5,30c0,4.977,1.472,9.596,3.977,13.498L5.94,53.68l10.065-2.959
	C20.001,53.416,24.812,55,30,55c13.805,0,25-11.195,25-25C55,16.194,43.805,5,30,5z M32.173,44.103
	c-0.505,0.514-1.123,0.766-1.854,0.766c-0.726,0-1.346-0.252-1.856-0.766c-0.508-0.504-0.766-1.128-0.766-1.854
	c0-0.726,0.257-1.342,0.766-1.855c0.51-0.505,1.129-0.762,1.856-0.762c0.731,0,1.349,0.257,1.854,0.762
	c0.513,0.512,0.767,1.128,0.767,1.855C32.939,42.975,32.686,43.599,32.173,44.103z M36.372,30.531l-2.95,2.732
	c-0.094,0.095-0.191,0.191-0.283,0.28c-0.826,0.823-0.917,0.904-0.917,2.134c0,0.516-0.194,0.971-0.557,1.337
	c-0.371,0.376-0.823,0.561-1.346,0.561s-0.973-0.185-1.343-0.561c-0.37-0.366-0.557-0.821-0.557-1.337
	c0-2.555,0.601-3.388,2.331-5.115l2.939-2.729c1.022-1.02,1.517-2.228,1.517-3.686c0-1.46-0.494-2.665-1.519-3.689
	c-1.026-1.025-2.232-1.525-3.69-1.525c-1.455,0-2.665,0.5-3.69,1.525c-1.024,1.024-1.52,2.229-1.52,3.689
	c0,0.518-0.19,0.973-0.561,1.344c-0.367,0.37-0.821,0.557-1.343,0.557c-0.519,0-0.972-0.187-1.343-0.558
	c-0.367-0.37-0.558-0.825-0.558-1.343c0-2.482,0.89-4.627,2.64-6.375c1.751-1.75,3.899-2.64,6.375-2.64
	c2.48,0,4.624,0.89,6.374,2.64c1.758,1.75,2.638,3.895,2.638,6.375C39.012,26.625,38.128,28.773,36.372,30.531z"/>
</svg>
