<?xml version="1.0" encoding="utf-8"?>
<!-- Generator: Adobe Illustrator 15.0.0, SVG Export Plug-In . SVG Version: 6.00 Build 0)  -->
<!DOCTYPE svg PUBLIC "-//W3C//DTD SVG 1.1//EN" "http://www.w3.org/Graphics/SVG/1.1/DTD/svg11.dtd">
<svg version="1.1" id="Layer_1" xmlns="http://www.w3.org/2000/svg" xmlns:xlink="http://www.w3.org/1999/xlink" x="0px" y="0px"
	 width="45px" height="45px" viewBox="0 0 45 45" enable-background="new 0 0 45 45" xml:space="preserve">
<circle fill="#41C6DA" cx="22.5" cy="22.5" r="22.5"/>
<g>
	<path fill="#F5F5F5" d="M34.832,12.734c0,1.218-0.989,2.206-2.207,2.206h-20.25c-1.219,0-2.207-0.988-2.207-2.206l0,0
		c0-1.22,0.988-2.207,2.207-2.207h20.25C33.843,10.527,34.832,11.517,34.832,12.734L34.832,12.734z"/>
	<path fill="#F5F5F5" d="M34.832,22.5c0,1.219-0.989,2.205-2.207,2.205h-20.25c-1.219,0-2.207-0.986-2.207-2.205l0,0
		c0-1.219,0.988-2.207,2.207-2.207h20.25C33.843,20.293,34.832,21.281,34.832,22.5L34.832,22.5z"/>
	<path fill="#F5F5F5" d="M34.832,32.268c0,1.217-0.989,2.205-2.207,2.205h-20.25c-1.219,0-2.207-0.988-2.207-2.205l0,0
		c0-1.219,0.988-2.207,2.207-2.207h20.25C33.843,30.061,34.832,31.048,34.832,32.268L34.832,32.268z"/>
</g>
</svg>
