<?xml version="1.0" encoding="utf-8"?>
<!-- Generator: Adobe Illustrator 15.0.0, SVG Export Plug-In . SVG Version: 6.00 Build 0)  -->
<!DOCTYPE svg PUBLIC "-//W3C//DTD SVG 1.1//EN" "http://www.w3.org/Graphics/SVG/1.1/DTD/svg11.dtd">
<svg version="1.1" id="Layer_1" xmlns="http://www.w3.org/2000/svg" xmlns:xlink="http://www.w3.org/1999/xlink" x="0px" y="0px"
	 width="45px" height="90px" viewBox="0 -22.5 45 90" enable-background="new 0 -22.5 45 90" xml:space="preserve">
<path fill="#41C6DA" d="M22.5-22.5C10.074-22.5,0-12.426,0,0c0,12.427,10.074,22.5,22.5,22.5C34.927,22.5,45,12.427,45,0
	C45-12.426,34.927-22.5,22.5-22.5z M17.033-8.056c0-3.003,2.428-5.438,5.425-5.438h0.016c2.995,0,5.424,2.435,5.424,5.438v8.688
	c0,3.002-2.431,5.437-5.424,5.437h-0.016c-2.997,0-5.425-2.435-5.425-5.437V-8.056z M31.496,0.923c0,2.388-0.878,4.642-2.473,6.353
	c-1.483,1.592-3.438,2.535-5.557,2.692v1.444h4.707c0.574,0,1.036,0.467,1.036,1.041s-0.463,1.041-1.036,1.041h-11.35
	c-0.573,0-1.038-0.467-1.038-1.041s0.465-1.041,1.038-1.041h4.706V9.926c-4.448-0.54-8.027-4.443-8.027-9.003v-4.877
	c0-0.573,0.464-1.041,1.039-1.041c0.572,0,1.036,0.466,1.036,1.041v4.877c0,3.722,3.273,7.021,7.006,7.021h0.246
	c3.633,0,6.588-3.168,6.588-7.021v-4.877c0-0.573,0.465-1.041,1.039-1.041c0.572,0,1.038,0.466,1.038,1.041L31.496,0.923
	L31.496,0.923z"/>
<path fill="#EE4037" d="M22.5,22.5C10.074,22.5,0,32.574,0,45c0,12.427,10.074,22.5,22.5,22.5C34.927,67.5,45,57.427,45,45
	C45,32.574,34.927,22.5,22.5,22.5z M17.033,36.943c0-3.002,2.428-5.438,5.425-5.438h0.016c2.995,0,5.424,2.436,5.424,5.438v8.688
	c0,3.002-2.431,5.437-5.424,5.437h-0.016c-2.997,0-5.425-2.435-5.425-5.437V36.943z M31.496,45.923c0,2.388-0.878,4.642-2.473,6.353
	c-1.483,1.592-3.438,2.535-5.557,2.692v1.444h4.707c0.574,0,1.036,0.467,1.036,1.041s-0.463,1.041-1.036,1.041h-11.35
	c-0.573,0-1.038-0.467-1.038-1.041s0.465-1.041,1.038-1.041h4.706v-1.486c-4.448-0.54-8.027-4.443-8.027-9.003v-4.877
	c0-0.573,0.464-1.041,1.039-1.041c0.572,0,1.036,0.466,1.036,1.041v4.877c0,3.722,3.273,7.021,7.006,7.021h0.246
	c3.633,0,6.588-3.168,6.588-7.021v-4.877c0-0.573,0.465-1.041,1.039-1.041c0.572,0,1.038,0.466,1.038,1.041L31.496,45.923
	L31.496,45.923z"/>
</svg>
