<?xml version="1.0" encoding="utf-8"?>
<!-- Generator: Adobe Illustrator 15.0.0, SVG Export Plug-In . SVG Version: 6.00 Build 0)  -->
<!DOCTYPE svg PUBLIC "-//W3C//DTD SVG 1.1//EN" "http://www.w3.org/Graphics/SVG/1.1/DTD/svg11.dtd">
<svg version="1.1" id="Layer_1" xmlns="http://www.w3.org/2000/svg" xmlns:xlink="http://www.w3.org/1999/xlink" x="0px" y="0px"
	 width="50px" height="50px" viewBox="0 0 50 50" enable-background="new 0 0 50 50" xml:space="preserve">
<path fill="#0db3a5" d="M25,0C11.193,0,0,11.193,0,25c0,13.809,11.193,25,25,25c13.809,0,25-11.191,25-25C50,11.193,38.809,0,25,0z
	 M37.723,30.124c0,1.755-1.425,3.18-3.181,3.18h-6.361l-9.542,6.362v-6.362h-3.182c-1.755,0-3.181-1.424-3.181-3.18V17.401
	c0-1.755,1.425-3.181,3.181-3.181h19.084c1.754,0,3.181,1.425,3.181,3.181V30.124z"/>
</svg>
