<?xml version="1.0" encoding="utf-8"?>
<!-- Generator: Adobe Illustrator 15.0.0, SVG Export Plug-In . SVG Version: 6.00 Build 0)  -->
<!DOCTYPE svg PUBLIC "-//W3C//DTD SVG 1.1//EN" "http://www.w3.org/Graphics/SVG/1.1/DTD/svg11.dtd">
<svg version="1.1" id="Layer_1" xmlns="http://www.w3.org/2000/svg" xmlns:xlink="http://www.w3.org/1999/xlink" x="0px" y="0px"
	 width="50px" height="50px" viewBox="0 0 50 50" enable-background="new 0 0 50 50" xml:space="preserve">
<g>
	<g>
		<path fill="#1C1C1C" d="M31.926,0h-0.027c-4.719,0-8.541,3.834-8.541,8.562v13.683c0,0.993,0.178,1.942,0.486,2.829h4.949v5.141
			c0.964,0.378,2.008,0.592,3.105,0.592h0.027c4.715,0,8.54-3.834,8.54-8.562V8.562C40.467,3.834,36.641,0,31.926,0z"/>
		<g>
			<path fill="#1C1C1C" d="M21.354,25.074c-0.184-0.771-0.285-1.565-0.285-2.372v-7.681c0-0.904-0.73-1.64-1.633-1.64
				c-0.904,0-1.636,0.735-1.636,1.64v7.681c0,0.806,0.073,1.598,0.21,2.372H21.354L21.354,25.074z"/>
			<path fill="#1C1C1C" d="M42.24,32.702c2.509-2.692,3.892-6.241,3.892-10v-7.681c0-0.904-0.731-1.64-1.635-1.64
				s-1.636,0.735-1.636,1.64v7.681c0,6.065-4.653,11.055-10.373,11.055h-0.391c-1.139,0-2.252-0.196-3.305-0.555v3.371
				c0.539,0.133,1.087,0.237,1.646,0.306v2.342h-1.646v3.278h12.109c0.902,0,1.631-0.735,1.631-1.644
				c0-0.902-0.729-1.638-1.631-1.638h-7.411v-2.274C36.826,36.695,39.902,35.211,42.24,32.702z"/>
		</g>
	</g>
	<g>
		<g>
			<path fill="#1C1C1C" d="M9.979,35.998h0.326c0.129-0.857,0.445-1.52,0.943-1.98c0.354-0.332,0.923-0.5,1.707-0.5h0.841v8.976
				c0,0.582-0.032,0.942-0.094,1.079c-0.087,0.195-0.204,0.332-0.353,0.41c-0.207,0.123-0.478,0.182-0.815,0.182h-0.388v0.318h6.092
				v-0.318h-0.387c-0.332,0-0.594-0.055-0.785-0.166c-0.19-0.112-0.319-0.242-0.387-0.391c-0.063-0.149-0.099-0.521-0.099-1.114
				v-8.976h0.867c0.543,0,0.924,0.053,1.141,0.155c0.39,0.188,0.695,0.442,0.918,0.761c0.224,0.317,0.427,0.84,0.61,1.565h0.308
				v-3.146H9.979V35.998z"/>
			<polygon fill="#1C1C1C" points="23.959,47.421 22.004,47.421 22.004,50 26.538,50 26.538,45.466 23.959,45.466 			"/>
			<rect x="12.938" y="47.421" fill="#1C1C1C" width="4.535" height="2.579"/>
			<rect x="3.868" y="36.398" fill="#1C1C1C" width="2.579" height="4.533"/>
			<polygon fill="#1C1C1C" points="22.004,27.329 22.004,29.909 23.959,29.909 23.959,31.863 26.538,31.863 26.538,27.329 			"/>
			<rect x="12.938" y="27.329" fill="#1C1C1C" width="4.535" height="2.58"/>
			<rect x="23.959" y="36.398" fill="#1C1C1C" width="2.579" height="4.533"/>
			<polygon fill="#1C1C1C" points="6.447,45.466 3.868,45.466 3.868,50 8.402,50 8.402,47.421 6.447,47.421 			"/>
			<polygon fill="#1C1C1C" points="3.868,31.863 6.447,31.863 6.447,29.909 8.402,29.909 8.402,27.329 3.868,27.329 			"/>
		</g>
	</g>
</g>
</svg>
