<?xml version="1.0" encoding="utf-8"?>
<!-- Generator: Adobe Illustrator 15.0.0, SVG Export Plug-In . SVG Version: 6.00 Build 0)  -->
<!DOCTYPE svg PUBLIC "-//W3C//DTD SVG 1.1//EN" "http://www.w3.org/Graphics/SVG/1.1/DTD/svg11.dtd">
<svg version="1.1" id="Layer_1" xmlns="http://www.w3.org/2000/svg" xmlns:xlink="http://www.w3.org/1999/xlink" x="0px" y="0px"
	 width="118.992px" height="41.609px" viewBox="0 0 118.992 41.609" enable-background="new 0 0 118.992 41.609"
	 xml:space="preserve">
<g>
	<path fill="#41C6DA" d="M118.992,38.647c0,1.637-1.326,2.963-2.963,2.963H2.963C1.326,41.61,0,40.283,0,38.647V2.964
		C0,1.326,1.326,0,2.963,0h113.068c1.635,0,2.961,1.326,2.961,2.964V38.647z"/>
	<g>
		<g>
			<path fill="#F5F5F5" d="M23.072,4.316c-8.683,0-15.722,7.037-15.722,15.721c0,8.682,7.039,15.717,15.722,15.717
				c8.682,0,15.719-7.037,15.719-15.717C38.792,11.353,31.754,4.316,23.072,4.316z M20.917,27.365l-7.78-7.672l3.556-3.604
				l4.402,4.342l9.012-8.019l3.364,3.782L20.917,27.365z"/>
		</g>
	</g>
</g>
</svg>
