<?xml version="1.0" encoding="utf-8"?>
<!-- Generator: Adobe Illustrator 15.0.0, SVG Export Plug-In . SVG Version: 6.00 Build 0)  -->
<!DOCTYPE svg PUBLIC "-//W3C//DTD SVG 1.1//EN" "http://www.w3.org/Graphics/SVG/1.1/DTD/svg11.dtd">
<svg version="1.1" id="Isolation_Mode" xmlns="http://www.w3.org/2000/svg" xmlns:xlink="http://www.w3.org/1999/xlink" x="0px"
	 y="0px" width="440px" height="440px" viewBox="0 0 440 440" enable-background="new 0 0 440 440" xml:space="preserve">
<g>
	<g id="Layer_1">
		<g>
			<g>
				<path fill="#1C1C1C" d="M32.594,274.963h-11c-2.209,0-4,1.79-4,4v11c0,2.209,1.791,4,4,4h11c2.209,0,4-1.791,4-4v-11
					C36.594,276.754,34.803,274.963,32.594,274.963z"/>
				<path fill="#1C1C1C" d="M67.594,274.963h-11c-2.209,0-4,1.79-4,4v11c0,2.209,1.791,4,4,4h11c2.209,0,4-1.791,4-4v-11
					C71.594,276.754,69.803,274.963,67.594,274.963z"/>
				<path fill="#1C1C1C" d="M103.594,274.963h-11c-2.209,0-4,1.79-4,4v11c0,2.209,1.791,4,4,4h11c2.209,0,4-1.791,4-4v-11
					C107.594,276.754,105.803,274.963,103.594,274.963z"/>
				<path fill="#1C1C1C" d="M32.594,302.963h-11c-2.209,0-4,1.79-4,4v11c0,2.209,1.791,4,4,4h11c2.209,0,4-1.791,4-4v-11
					C36.594,304.754,34.803,302.963,32.594,302.963z"/>
				<path fill="#1C1C1C" d="M67.594,302.963h-11c-2.209,0-4,1.79-4,4v11c0,2.209,1.791,4,4,4h11c2.209,0,4-1.791,4-4v-11
					C71.594,304.754,69.803,302.963,67.594,302.963z"/>
				<path fill="#1C1C1C" d="M32.594,330.963h-11c-2.209,0-4,1.79-4,4v11c0,2.209,1.791,4,4,4h11c2.209,0,4-1.791,4-4v-11
					C36.594,332.754,34.803,330.963,32.594,330.963z"/>
				<path fill="#1C1C1C" d="M67.594,330.963h-11c-2.209,0-4,1.79-4,4v11c0,2.209,1.791,4,4,4h11c2.209,0,4-1.791,4-4v-11
					C71.594,332.754,69.803,330.963,67.594,330.963z"/>
				<path fill="#1C1C1C" d="M97.481,388.963H85.594v-25c0-3.312-2.687-6-6-6h-34c-3.313,0-6,2.688-6,6v25h-27.5
					c-4.136,0-7.5-3.365-7.5-7.5v-127c0-4.138,3.364-7.5,7.5-7.5h28.5v12c0,3.312,2.687,6,6,6h32c3.313,0,6-2.688,6-6v-12h28.5
					c4.136,0,7.5,3.362,7.5,7.5v40.811c1.729-0.592,3.407-1.1,5-1.521v-39.289c0-6.894-5.607-12.5-12.5-12.5h-28.5v-15
					c0-3.312-2.687-6-6-6h-32c-3.313,0-6,2.688-6,6v15h-28.5c-6.893,0-12.5,5.606-12.5,12.5v127c0,6.894,5.607,12.5,12.5,12.5h89.18
					C99.791,392.454,98.512,390.771,97.481,388.963z M51.344,239.963h7.25v-7.852c0-1.739,1.76-3.148,3.5-3.148s3.5,1.409,3.5,3.148
					v7.852h7.449c1.74,0,3.15,1.26,3.15,3c0,1.739-1.41,3-3.15,3h-7.449v7.85c0,1.74-1.76,3.15-3.5,3.15s-3.5-1.41-3.5-3.15v-7.85
					h-7.25c-1.74,0-3.15-1.261-3.15-3C48.194,241.223,49.604,239.963,51.344,239.963z"/>
				<path fill="#1C1C1C" d="M89.866,320.874c0.849-3.547,2.845-7.055,5.856-10.479c2.412-2.746,5.412-5.196,8.689-7.348
					c-0.264-0.056-0.537-0.084-0.817-0.084h-11c-2.209,0-4,1.79-4,4v11C88.594,319.113,89.088,320.145,89.866,320.874z"/>
				<path fill="#1C1C1C" d="M89.813,348.829c1.392-1.866,3.085-3.423,4.781-4.569v-3.646c-1.399-2.57-2.949-5.587-4.011-9.09
					c-1.185,0.695-1.989,1.967-1.989,3.439v11C88.594,347.09,89.063,348.104,89.813,348.829z"/>
			</g>
			<g>
				<path fill="#1C1C1C" d="M150.594,347.387v-10.299c2.699-3.414,4.12-7.308,4.12-11.312c0-4.592-4.388-7.477-8.63-10.264
					c-6.934-4.557-9.63-7.088-6.35-12.201c1.19-1.854,0.732-3.299,0.353-3.99c-1.168-2.137-4.01-2.137-4.944-2.137
					c-7.262,0-26.798,6.43-35.652,16.509c-3.53,4.021-5.043,8.19-4.495,12.405c0.687,5.279,2.521,9.445,5.599,12.689v8.598
					c-4.636,1.313-8.001,5.578-8.001,10.578s3.365,9.264,8,10.573v9.927c0,6.327,3.389,11.866,8.436,14.938
					c0.125,0.409,0.251,0.812,0.378,1.184c0.113,0.326-0.44,0.656-0.312,0.992c2.248,5.853,5.411,12.836,15.311,14.646l0.031,0.004
					c-0.197,6.938-1.995,9.319-3.734,11.631c-1.574,2.086-3.193,4.231-3.583,8.807c-2.104,0.59-3.629,2.367-3.629,4.473
					c0,2.582,2.303,4.675,5.147,4.675c2.839,0,5.141-2.138,5.141-4.72c0-1.754-1.061-3.129-2.63-4.129h-0.003
					c0.282-4,1.46-5.164,2.897-7.073c1.987-2.636,4.227-5.585,4.444-13.679c9.952-1.791,13.124-8.779,15.376-14.646
					c0.13-0.332-0.424-0.652-0.313-0.98c0.271-0.797,0.542-1.7,0.793-2.62h-0.125c3.892-3.214,6.376-8.07,6.376-13.5v-9.925
					c4.635-1.312,8-5.575,8-10.575S155.229,348.698,150.594,347.387z M99.953,325.454c-0.354-2.726,0.754-5.569,3.293-8.461
					c7.45-8.479,24.373-14.496,31.369-14.797c-4.457,8.838,3.415,14.008,8.722,17.495c3.135,2.06,6.376,4.188,6.376,6.084
					c0,2.854-1.056,5.668-3.039,8.188h-9.827c-0.748-5.557-5.495-9.843-11.254-9.843c-5.76,0-10.506,4.286-11.254,9.843h-11.271
					C101.416,331.71,100.408,328.949,99.953,325.454z M132.37,335.488c0,3.742-3.033,6.775-6.776,6.775s-6.777-3.033-6.777-6.775
					s3.034-6.775,6.777-6.775S132.37,331.745,132.37,335.488z M140.002,394.73c-0.418,1.262-0.88,2.52-1.202,3.152
					c-4.388,8.674-12.321,8.868-12.321,8.868s-7.932-0.194-12.322-8.868c-0.278-0.55-0.663-1.566-1.034-2.648
					c1.578,0.469,3.244,0.729,4.971,0.729h15c2.643,0,5.141-0.604,7.39-1.66C140.268,394.445,140.051,394.588,140.002,394.73z
					 M147.948,363.941l-2.354,0.136v14.386c0,6.893-5.607,12.5-12.5,12.5h-15c-6.893,0-12.5-5.607-12.5-12.5v-14.386l-2.354-0.14
					c-3.166-0.182-5.646-2.809-5.646-5.977s2.48-5.795,5.646-5.979l2.354-0.139V337.96h8.91c1.13,5.089,5.662,8.896,11.09,8.896
					s9.96-3.807,11.09-8.896h8.91v13.884l2.354,0.139c3.166,0.184,5.646,2.811,5.646,5.979S151.114,363.758,147.948,363.941z"/>
				<circle fill="#1C1C1C" cx="125.594" cy="335.488" r="3.47"/>
				<path fill="#1C1C1C" d="M124.71,357.866c0-4.049-3.295-7.344-7.343-7.344c-4.049,0-7.343,3.295-7.343,7.344
					c0,4.051,3.293,7.344,7.343,7.344C121.415,365.21,124.71,361.917,124.71,357.866z M115.085,357.868
					c0-1.26,1.023-2.283,2.282-2.283c1.259,0,2.283,1.023,2.283,2.283s-1.024,2.285-2.283,2.285
					C116.109,360.154,115.085,359.129,115.085,357.868z"/>
				<path fill="#1C1C1C" d="M133.821,350.524c-4.047,0-7.342,3.294-7.342,7.345c0.001,4.049,3.295,7.344,7.342,7.344
					s7.343-3.295,7.343-7.344C141.164,353.818,137.868,350.524,133.821,350.524z M133.821,360.154c-1.259,0-2.282-1.025-2.282-2.285
					s1.025-2.283,2.282-2.283c1.259,0,2.281,1.023,2.281,2.283S135.079,360.154,133.821,360.154z"/>
				<path fill="#1C1C1C" d="M135.335,368.818c-1.399,0-2.531,1.133-2.531,2.529c0,3.91-3.185,7.096-7.096,7.096
					c-3.912,0-7.094-3.184-7.094-7.096c0-1.396-1.132-2.529-2.531-2.529c-1.399,0-2.53,1.133-2.53,2.529
					c0,6.703,5.452,12.156,12.155,12.156c6.704,0,12.157-5.453,12.157-12.156C137.866,369.95,136.732,368.818,135.335,368.818z"/>
			</g>
		</g>
		<g>
			<g>
				<g>
					<path fill="#1C1C1C" d="M290.236,123.674c0.461-2.093,0.722-4.259,0.722-6.487c0-9.927-4.714-18.739-12.654-24.274
						c-2.713-2.459-6.303-3.95-10.243-3.95h-14.558c-3.942,0-7.534,1.492-10.247,3.95c-7.936,5.534-12.65,14.357-12.65,24.281
						c0,2.234,0.262,4.398,0.723,6.495c-2.361,1.918-3.879,4.712-3.879,8.062c0,5.718,4.652,10.209,10.367,10.209h0.646v9.005
						c0,8.438,6.604,14.995,15.042,14.995h14.556c8.043,0,14.639-6.236,15.245-14.127l0.058-9.872h0.386
						c5.718,0,10.368-4.495,10.368-10.37C294.115,128.33,292.599,125.575,290.236,123.674z M283.462,106.29
						c1,3.302,2.485,6.99,2.485,10.895c0,1.488-0.209,2.729-0.463,4.146c-0.572-0.099-1.144-0.368-1.738-0.368h-0.284V106.29z
						 M238.462,106.287v14.675h-0.65c-0.597,0-1.114,0.271-1.688,0.366c-0.248-1.416-0.329-2.76-0.329-4.248
						C235.796,113.178,236.462,109.591,238.462,106.287z M283.746,136.962h-2.916c-1.396,0-2.368,1.382-2.368,2.777v11.228
						c0,5.649-4.757,9.995-10.402,9.995h-14.558c-5.646,0-10.04-4.348-10.04-9.995v-11.228c0-1.396-1.335-2.777-2.733-2.777h-2.914
						c-2.927,0-5.308-2.495-5.308-5.58c0-2.927,2.379-5.42,5.308-5.42h2.914c1.398,0,2.733-0.657,2.733-2.055v-19.682
						c0-5.647,4.394-10.263,10.04-10.263h14.558c5.649,0,10.402,4.615,10.402,10.263v19.683c0,1.396,0.976,2.056,2.368,2.056h2.916
						c2.928,0,5.308,2.494,5.308,5.579C289.054,134.469,286.674,136.962,283.746,136.962z"/>
					<path fill="#1C1C1C" d="M270.404,140.719c-1.396,0-2.531,1.134-2.531,2.53c0,3.91-3.184,7.095-7.094,7.095
						s-7.095-3.185-7.095-7.095c0-1.396-1.136-2.53-2.53-2.53c-1.396,0-2.531,1.134-2.531,2.53c0,6.703,5.453,12.155,12.156,12.155
						s12.155-5.452,12.155-12.155C272.935,141.853,271.8,140.719,270.404,140.719z"/>
					<path fill="#1C1C1C" d="M274.134,123.076h-9.56c-1.396,0-2.527,1.135-2.527,2.53v9.777c0,1.396,1.132,2.529,2.527,2.529h9.56
						c1.396,0,2.528-1.134,2.528-2.529v-9.777C276.662,124.211,275.529,123.076,274.134,123.076z M271.603,132.854h-4.495v-4.717
						h4.495V132.854z"/>
					<path fill="#1C1C1C" d="M259.517,135.385v-9.777c0-1.396-1.136-2.53-2.53-2.53h-9.56c-1.397,0-2.531,1.135-2.531,2.53v9.777
						c0,1.396,1.134,2.529,2.531,2.529h9.56C258.381,137.914,259.517,136.781,259.517,135.385z M254.453,132.854h-4.498v-4.717
						h4.498V132.854z"/>
					<rect x="256.462" y="128.962" fill="#1C1C1C" width="8" height="3"/>
				</g>
				<g>
					<path fill="#1C1C1C" d="M173.882,138.019c4.048,0,7.343-3.294,7.343-7.344c0-4.049-3.295-7.344-7.343-7.344
						c-4.049,0-7.343,3.294-7.343,7.344C166.539,134.725,169.832,138.019,173.882,138.019z M173.882,128.394
						c1.259,0,2.283,1.022,2.283,2.282c0,1.261-1.024,2.285-2.283,2.285c-1.258,0-2.282-1.024-2.282-2.285
						C171.6,129.416,172.624,128.394,173.882,128.394z"/>
					<path fill="#1C1C1C" d="M190.335,138.019c4.048,0,7.344-3.294,7.344-7.344c0-4.049-3.296-7.344-7.344-7.344
						c-4.047,0-7.342,3.294-7.342,7.344C182.994,134.725,186.288,138.019,190.335,138.019z M190.335,128.394
						c1.26,0,2.281,1.022,2.281,2.282c0,1.261-1.021,2.285-2.281,2.285c-1.258,0-2.281-1.024-2.281-2.285
						C188.054,129.416,189.079,128.394,190.335,128.394z"/>
					<path fill="#1C1C1C" d="M175.016,143.249c0-1.396-1.132-2.53-2.531-2.53s-2.53,1.134-2.53,2.53
						c0,6.703,5.452,12.155,12.155,12.155c6.704,0,12.158-5.452,12.158-12.155c0-1.396-1.135-2.53-2.531-2.53
						c-1.399,0-2.53,1.134-2.53,2.53c0,3.91-3.185,7.095-7.096,7.095C178.198,150.344,175.016,147.161,175.016,143.249z"/>
					<path fill="#1C1C1C" d="M159.587,152.146c0.605,7.891,7.204,14.126,15.243,14.126h14.556c8.439,0,15.303-6.862,15.303-15.305
						v-8.696h0.387c5.716,0,10.365-4.648,10.365-10.524c0-1.244-0.229-2.433-0.633-3.538c2.236-4.167,3.521-8.811,3.521-13.729
						c0-13.076-8.841-24.335-21.474-29.363c0.056-0.459,0.117-0.917,0.117-1.389c0-7.387-6.67-13.396-14.865-13.396
						c-8.197,0-14.865,6.009-14.865,13.396c0,0.473,0.062,0.93,0.117,1.389c-12.636,5.03-21.474,16.288-21.474,29.363
						c0,4.931,1.292,9.582,3.54,13.757c-0.414,1.142-0.652,2.37-0.652,3.667c0,5.72,4.651,10.368,10.368,10.368h0.385
						L159.587,152.146z M182.109,75.393c5.326,0,9.664,3.632,9.792,8.134c-3.121-0.778-6.396-1.229-9.792-1.229
						s-6.672,0.448-9.791,1.229C172.445,79.024,176.784,75.393,182.109,75.393z M150.948,114.482
						c0-14.955,13.978-27.121,31.161-27.121c17.181,0,31.162,12.166,31.162,27.121c0,3.192-0.662,6.245-1.84,9.09
						c-1.759-1.369-3.96-2.191-6.355-2.191h-0.385v-5.673c0-4.384-3.563-7.949-7.947-7.949h-29.267
						c-4.383,0-7.949,3.564-7.949,7.949v5.672h-0.385c-2.393,0-4.593,0.822-6.351,2.2
						C151.611,120.733,150.948,117.677,150.948,114.482z M159.142,137.212c-2.927,0-5.306-2.381-5.306-5.467
						c0-2.928,2.382-5.307,5.306-5.307h2.916c1.398,0,2.53-1.135,2.53-2.531v-8.201c0-1.593,1.295-2.889,2.888-2.889h29.265
						c1.593,0,2.889,1.295,2.889,2.889v8.202c0,1.396,1.132,2.531,2.527,2.531h2.918c2.927,0,5.308,2.379,5.308,5.465
						c0,2.928-2.385,5.309-5.308,5.309h-2.918c-1.396,0-2.527,1.133-2.527,2.527v11.228c0,5.647-4.598,10.243-10.243,10.243h-14.556
						c-5.647,0-10.243-4.598-10.243-10.243V139.74c0-1.396-1.132-2.527-2.53-2.527L159.142,137.212L159.142,137.212z"/>
					<rect x="177.462" y="129.962" fill="#1C1C1C" width="8" height="3"/>
				</g>
			</g>
			<path fill="#1C1C1C" d="M323.5,132.962c0-57.07-46.432-103.5-103.5-103.5c-57.07,0-103.5,46.43-103.5,103.5
				c0,40.09,22.918,74.918,56.334,92.1c0.912,25.234,21.713,45.486,47.166,45.486s46.253-20.252,47.164-45.485
				C300.582,207.88,323.5,173.052,323.5,132.962z M220,265.549c-23.274,0-42.209-18.937-42.209-42.209
				c0-23.274,18.935-42.21,42.209-42.21c23.273,0,42.209,18.936,42.209,42.21C262.209,246.613,243.275,265.549,220,265.549z
				 M267.037,219.476c-1.975-24.229-22.309-43.347-47.037-43.347c-24.729,0-45.064,19.116-47.038,43.346
				c-30.63-16.721-51.462-49.226-51.462-86.513c0-54.312,44.187-98.5,98.5-98.5c54.312,0,98.5,44.188,98.5,98.5
				C318.5,170.25,297.668,202.755,267.037,219.476z"/>
		</g>
		<g>
			<g>
				<g>
					<path fill="#1C1C1C" d="M357.384,388.234c-4.412-3.408-8.097-7.859-10.376-12.533c-0.694-1.424-1.079-3.834-1.42-5.959
						c-0.164-1.027-0.324-2.025-0.521-2.955c1.575-1.879,2.524-4.246,2.524-6.824c0-3.902-2.166-7.33-5.414-9.281
						c0.042-0.93,0.092-1.901,0.144-2.903c0.217-4.129,0.458-8.81,0.163-12.183c-0.051-0.588-0.097-1.18-0.144-1.771
						c-0.256-3.285-0.521-6.685-1.675-9.754c-4.648-12.356-15.944-12.87-20.59-12.517c-0.28,0.021-5.303,0.432-8.136,2.287
						c-4.208-1.901-9.718-3.297-14.938-2.725c-5.171,0.562-11.974,3.293-15.022,13.09c-1.082,3.475-1.416,7.316-1.74,11.031
						l-0.029,0.355c-0.297,3.373-0.053,8.053,0.162,12.182c0.07,1.379,0.141,2.708,0.188,3.93c-2.426,2.02-3.968,4.969-3.968,8.258
						c0,1.896,0.51,3.682,1.407,5.24c-0.404,1.199-0.791,2.646-1.193,4.164c-0.631,2.373-1.346,5.062-2.127,6.666
						c-2.688,5.51-5.574,9.271-9.363,12.201l-7.035,5.434l8.836-0.971c7.223-0.793,10.634,0.18,13.644,1.041
						c1.093,0.311,2.124,0.605,3.271,0.811c1.062,0.189,2.373,0.326,3.955,0.326c2.994,0,6.955-0.496,11.979-2.043
						c1.911,0.719,3.972,1.131,6.131,1.131h12c2.627,0,5.111-0.6,7.349-1.641c4.484,1.477,7.61,2.027,10.361,2.027
						c1.52,0,2.926-0.164,4.396-0.429c1.065-0.188,1.971-0.43,2.845-0.663c2.648-0.705,5.152-1.373,12.538-0.562l8.835,0.969
						L357.384,388.234z M326.498,317.032c4.545,1.179,7.735,4.14,9.488,8.798c0.904,2.406,1.133,5.309,1.37,8.383
						c0.047,0.607,0.097,1.215,0.147,1.817c0.264,3.024,0.03,7.521-0.176,11.485c-0.009,0.134-0.016,0.266-0.021,0.396
						c-2.489-2.965-6.213-4.847-9.604-6.561c-1.592-0.803-3.093-1.562-4.41-2.387c-2.272-1.423-2.359-4.109-2.313-8.38
						c0.032-3.045,0.066-6.521-1.289-9.646c-0.204-0.735-0.502-1.479-0.928-2.223c-0.293-0.512-0.826-1.084-1.518-1.674
						C319.546,316.475,322.975,316.118,326.498,317.032z M285.193,336.03l0.031-0.356c0.301-3.449,0.611-7.02,1.533-9.979
						c1.732-5.569,4.996-8.674,9.973-9.493c0.903-0.147,1.818-0.216,2.733-0.216c4.315,0,8.616,1.488,11.512,2.934
						c0.202,0.188,0.429,0.358,0.688,0.5c1.569,0.84,2.579,1.85,3.223,3.064c0.926,5.048-8.092,11.328-13.663,15.205
						c-0.696,0.482-1.351,0.938-1.944,1.361c-1.461,1.041-3.223,1.94-5.086,2.896c-3.093,1.58-6.479,3.312-8.802,6.016
						c-0.008-0.146-0.015-0.296-0.022-0.443C285.162,343.551,284.93,339.057,285.193,336.03z M284.908,389.626
						c-0.896-0.159-1.769-0.409-2.775-0.696c-2.219-0.633-4.803-1.371-8.777-1.504c2.148-2.543,4.034-5.539,5.819-9.201
						c0.995-2.041,1.742-4.854,2.465-7.572c0.127-0.48,0.252-0.949,0.375-1.402c1.8,1.078,3.923,1.713,6.206,1.713h0.373v5.5
						c0,5.012,2.13,9.527,5.518,12.721C289.533,390.116,286.515,389.913,284.908,389.626z M306.094,388.963
						c-2.092,0-4.061-0.523-5.795-1.437l-0.02-0.056c-0.021,0.006-0.037,0.013-0.058,0.021c-3.938-2.104-6.63-6.258-6.63-11.028
						v-10.5h-5.373c-3.652,0-6.627-2.691-6.627-6c0-3.31,2.975-6,6.627-6h2.375v-4.093c1.611-1.293,3.708-2.364,5.874-3.474
						c1.944-0.994,3.954-2.021,5.714-3.274c0.579-0.414,1.219-0.856,1.896-1.332c3.651-2.541,8.506-5.92,11.895-9.786
						c0.004,4.146,0.412,8.536,4.67,11.2c1.516,0.947,3.188,1.793,4.811,2.611c2.709,1.368,5.313,2.688,7.143,4.385v3.763h3.373
						c3.654,0,6.627,2.69,6.627,6c0,3.309-2.973,6-6.627,6h-5.375v10.5c0,6.893-5.607,12.5-12.5,12.5H306.094z M341.759,388.428
						c-0.812,0.217-1.575,0.42-2.438,0.573c-2.32,0.414-4.564,0.638-8.68-0.368c3.061-3.152,4.952-7.441,4.952-12.17v-5.5h0.373
						c1.637,0,3.193-0.326,4.608-0.906c0.023,0.158,0.051,0.317,0.074,0.477c0.414,2.59,0.845,5.268,1.862,7.359
						c1.624,3.33,3.862,6.555,6.527,9.447C345.599,387.406,343.599,387.938,341.759,388.428z"/>
				</g>
				<path fill="#1C1C1C" d="M311.21,358.868c0-4.049-3.295-7.345-7.345-7.345c-4.049,0-7.342,3.294-7.342,7.345
					c0,4.049,3.293,7.345,7.342,7.345C307.915,366.213,311.21,362.917,311.21,358.868z M301.584,358.868
					c0-1.26,1.023-2.28,2.281-2.28c1.26,0,2.282,1.021,2.282,2.28c0,1.263-1.022,2.285-2.282,2.285
					C302.607,361.154,301.584,360.131,301.584,358.868z"/>
				<path fill="#1C1C1C" d="M320.319,351.524c-4.047,0-7.342,3.294-7.342,7.345c0.001,4.049,3.295,7.344,7.342,7.344
					c4.05,0,7.346-3.295,7.346-7.344S324.367,351.524,320.319,351.524z M320.319,361.154c-1.258,0-2.279-1.023-2.279-2.285
					c0-1.26,1.023-2.281,2.279-2.281c1.262,0,2.281,1.021,2.281,2.281C322.601,360.131,321.579,361.154,320.319,361.154z"/>
				<path fill="#1C1C1C" d="M321.721,368.911c-1.398,0-2.53,1.136-2.53,2.531c0,3.907-3.186,7.094-7.096,7.094
					c-3.912,0-7.094-3.185-7.094-7.094c0-1.396-1.134-2.531-2.531-2.531s-2.53,1.136-2.53,2.531c0,6.7,5.452,12.153,12.155,12.153
					s12.156-5.453,12.156-12.153C324.251,370.047,323.117,368.911,321.721,368.911z"/>
			</g>
			<path fill="#1C1C1C" d="M438.209,330.088l-53.74-53.738c-3.305-3.308-7.7-5.127-12.375-5.127s-9.07,1.819-12.375,5.125
				l-13.125,13.125v-7.51c0-3.313-2.688-6-6-6h-10c-3.312,0-6,2.687-6,6v24.646c7.134,0.617,13.049,3.757,17.075,9.001
				l28.657-28.656c0.638-0.639,1.381-0.731,1.768-0.731s1.13,0.095,1.768,0.731l36.732,36.733v56.775c0,4.135-3.364,7.5-7.5,7.5
				h-3.5v-23c0-3.312-2.688-6-6-6h-14c-3.312,0-6,2.688-6,6v23h-8.382l2.263,1.747l4.209,3.253h31.41c6.893,0,12.5-5.607,12.5-12.5
				v-51.775l12.008,12.008c1.465,1.464,3.385,2.195,5.305,2.195c1.919,0,3.84-0.73,5.305-2.195
				C441.138,337.766,441.138,333.018,438.209,330.088z"/>
		</g>
		<g>
			<path fill="#88DEEB" d="M219.878,240.393c7.464,0.242,15.062,5.432,15.062,5.432v-16.598c0,0-7.598,5.789-15.062,5.951V240.393
				L219.878,240.393z"/>
			<path fill="#41C6DA" d="M244.994,228.051l-14.205,8.166c0,0,0.848-8.615-2.666-14.703c-3.812-6.603-12.729-10.629-12.729-10.629
				l14.718-8.527c0,0-1.365,9.846,2.418,16.397C236.072,224.898,244.994,228.051,244.994,228.051z"/>
			<path fill="#2597A7" d="M207.189,218.753c3.783-6.552,2.464-16.341,2.464-16.341l14.667,8.441c0,0-8.915,4.058-12.727,10.659
				c-3.515,6.088-2.327,14.907-2.327,14.907l-14.367-8.303C194.9,228.116,203.641,224.898,207.189,218.753z"/>
			<circle fill="#41C6DA" cx="219.878" cy="201.593" r="10.271"/>
			<circle fill="#88DEEB" cx="240.947" cy="237.492" r="10.271"/>
			<path fill="#88DEEB" d="M219.878,235.178c-0.106,0.002-0.213,0.008-0.32,0.008c-7.097,0-14.253-5.838-14.253-5.838v16.301
				c0,0,7.037-5.268,14.066-5.268c0.169,0,0.336,0.006,0.507,0.012V235.178L219.878,235.178z"/>
			<circle fill="#2597A7" cx="199.052" cy="237.496" r="10.271"/>
		</g>
		<g>
			<g>
				<path fill="none" stroke="#EA005F" stroke-width="5" stroke-miterlimit="10" d="M220.5,295.071v23.647c0,11.047-8.955,20-20,20
					h-21.98"/>
				<g>
					<polygon fill="#EA005F" points="210.584,297.989 220.555,280.719 230.527,297.989 					"/>
				</g>
				<g>
					<polygon fill="#EA005F" points="181.437,328.803 164.167,338.774 181.437,348.746 					"/>
				</g>
			</g>
		</g>
		<path fill="none" stroke="#EA005F" stroke-miterlimit="10" d="M178.5,285.053"/>
		<g>
			<g>
				<path fill="none" stroke="#EA005F" stroke-width="5" stroke-miterlimit="10" d="M220.504,318.719c0,11.047,8.955,20,20.001,20
					h21.979"/>
				<g>
					<polygon fill="#EA005F" points="259.568,348.635 276.838,338.664 259.568,328.692 					"/>
				</g>
			</g>
		</g>
	</g>
	<g enable-background="new    ">
		<path fill="#1C1C1C" d="M182,13.876v6.844h-2.309V3.657h6.527c1.82,0,3.236,0.469,4.248,1.406s1.518,2.172,1.518,3.703
			c0,1.547-0.506,2.785-1.518,3.715s-2.428,1.395-4.248,1.395H182z M182,12.071h4.219c1.156,0,2.02-0.311,2.59-0.932
			s0.855-1.404,0.855-2.35s-0.287-1.734-0.861-2.367s-1.436-0.949-2.584-0.949H182V12.071z"/>
		<path fill="#1C1C1C" d="M201.313,20.72c-0.078-0.383-0.139-0.721-0.182-1.014s-0.068-0.588-0.076-0.885
			c-0.43,0.609-0.99,1.119-1.682,1.529s-1.436,0.615-2.232,0.615c-1.32,0-2.326-0.338-3.018-1.014s-1.037-1.607-1.037-2.795
			c0-1.211,0.49-2.158,1.471-2.842s2.311-1.025,3.99-1.025h2.508v-1.254c0-0.742-0.227-1.33-0.68-1.764s-1.094-0.65-1.922-0.65
			c-0.75,0-1.355,0.188-1.816,0.562s-0.691,0.824-0.691,1.348l-2.191,0.023l-0.023-0.07c-0.055-0.922,0.377-1.766,1.295-2.531
			s2.104-1.148,3.557-1.148c1.438,0,2.594,0.365,3.469,1.096s1.312,1.783,1.312,3.158v6.105c0,0.453,0.023,0.891,0.07,1.312
			s0.133,0.836,0.258,1.242H201.313z M197.481,19.032c0.836,0,1.59-0.215,2.262-0.645s1.109-0.922,1.312-1.477v-2.062h-2.59
			c-0.93,0-1.674,0.234-2.232,0.703s-0.838,1.02-0.838,1.652c0,0.562,0.176,1.008,0.527,1.336S196.794,19.032,197.481,19.032z"/>
		<path fill="#1C1C1C" d="M210.771,19.161c0.711,0,1.332-0.236,1.863-0.709s0.797-1.053,0.797-1.74h2.086l0.035,0.07
			c0.031,1.094-0.438,2.064-1.406,2.912s-2.094,1.271-3.375,1.271c-1.781,0-3.156-0.605-4.125-1.816s-1.453-2.719-1.453-4.523
			v-0.492c0-1.789,0.486-3.291,1.459-4.506s2.346-1.822,4.119-1.822c1.414,0,2.572,0.438,3.475,1.312s1.338,1.949,1.307,3.223
			l-0.023,0.07h-2.098c0-0.773-0.252-1.432-0.756-1.975s-1.139-0.814-1.904-0.814c-1.133,0-1.959,0.439-2.479,1.318
			s-0.779,1.943-0.779,3.193v0.492c0,1.273,0.256,2.348,0.768,3.223S209.623,19.161,210.771,19.161z"/>
		<path fill="#1C1C1C" d="M219.806,4.794h-2.309V2.438h2.309V4.794z M219.806,20.72h-2.309V8.04h2.309V20.72z"/>
		<path fill="#1C1C1C" d="M227.623,20.966c-1.82,0-3.24-0.582-4.26-1.746s-1.529-2.695-1.529-4.594V14.11
			c0-1.82,0.525-3.326,1.576-4.518s2.334-1.787,3.85-1.787c1.695,0,2.967,0.527,3.814,1.582s1.271,2.457,1.271,4.207v1.219h-8.109
			l-0.035,0.059c0,1.273,0.281,2.307,0.844,3.1s1.422,1.189,2.578,1.189c0.781,0,1.467-0.111,2.057-0.334s1.096-0.529,1.518-0.92
			l0.902,1.5c-0.453,0.438-1.051,0.807-1.793,1.107S228.67,20.966,227.623,20.966z M227.26,9.622c-0.805,0-1.471,0.311-1.998,0.932
			s-0.85,1.416-0.967,2.385l0.023,0.059h5.719V12.81c0-0.922-0.227-1.684-0.68-2.285S228.205,9.622,227.26,9.622z"/>
		<path fill="#1C1C1C" d="M236.014,8.04l0.164,1.887c0.422-0.672,0.951-1.193,1.588-1.564s1.361-0.557,2.174-0.557
			c1.367,0,2.426,0.4,3.176,1.201s1.125,2.037,1.125,3.709v8.004h-2.309v-7.957c0-1.117-0.221-1.91-0.662-2.379
			s-1.115-0.703-2.021-0.703c-0.711,0-1.314,0.143-1.811,0.428s-0.889,0.686-1.178,1.201v9.41h-2.309V8.04H236.014z"/>
		<path fill="#1C1C1C" d="M249.819,4.981V8.04h2.402v1.711h-2.402v7.699c0,0.594,0.123,1.012,0.369,1.254s0.572,0.363,0.979,0.363
			c0.133,0,0.281-0.018,0.445-0.053s0.301-0.072,0.41-0.111l0.316,1.582c-0.172,0.141-0.426,0.256-0.762,0.346
			s-0.668,0.135-0.996,0.135c-0.938,0-1.684-0.283-2.238-0.85s-0.832-1.455-0.832-2.666V9.751h-2.016V8.04h2.016V4.981H249.819z"/>
		<path fill="#1C1C1C" d="M258.96,20.966c-1.82,0-3.24-0.582-4.26-1.746s-1.529-2.695-1.529-4.594V14.11
			c0-1.82,0.525-3.326,1.576-4.518s2.334-1.787,3.85-1.787c1.695,0,2.967,0.527,3.814,1.582s1.271,2.457,1.271,4.207v1.219h-8.109
			l-0.035,0.059c0,1.273,0.281,2.307,0.844,3.1s1.422,1.189,2.578,1.189c0.781,0,1.467-0.111,2.057-0.334s1.096-0.529,1.518-0.92
			l0.902,1.5c-0.453,0.438-1.051,0.807-1.793,1.107S260.007,20.966,258.96,20.966z M258.597,9.622c-0.805,0-1.471,0.311-1.998,0.932
			s-0.85,1.416-0.967,2.385l0.023,0.059h5.719V12.81c0-0.922-0.227-1.684-0.68-2.285S259.542,9.622,258.597,9.622z"/>
	</g>
	<g enable-background="new    ">
		<path fill="#1C1C1C" d="M36.259,422.854h0.07l5.449-13.863h2.871v17.062h-2.309v-12.785l-0.07-0.012l-5.168,12.797h-1.605
			l-5.32-13.219l-0.07,0.012v13.207h-2.309V408.99h3.035L36.259,422.854z"/>
		<path fill="#1C1C1C" d="M52.595,426.299c-1.82,0-3.24-0.582-4.26-1.746s-1.529-2.695-1.529-4.594v-0.516
			c0-1.82,0.525-3.326,1.576-4.518s2.334-1.787,3.85-1.787c1.695,0,2.967,0.527,3.814,1.582s1.271,2.457,1.271,4.207v1.219h-8.109
			l-0.035,0.059c0,1.273,0.281,2.307,0.844,3.1s1.422,1.189,2.578,1.189c0.781,0,1.467-0.111,2.057-0.334s1.096-0.529,1.518-0.92
			l0.902,1.5c-0.453,0.438-1.051,0.807-1.793,1.107S53.642,426.299,52.595,426.299z M52.232,414.955
			c-0.805,0-1.471,0.311-1.998,0.932s-0.85,1.416-0.967,2.385l0.023,0.059h5.719v-0.188c0-0.922-0.227-1.684-0.68-2.285
			S53.177,414.955,52.232,414.955z M53.099,407.982h2.695l0.023,0.07l-3.152,3.047h-1.734L53.099,407.982z"/>
		<path fill="#1C1C1C" d="M58.396,419.947c0-2.039,0.436-3.684,1.307-4.934s2.092-1.875,3.662-1.875c0.742,0,1.4,0.137,1.975,0.41
			s1.064,0.672,1.471,1.195v-6.973h2.309v18.281h-1.77l-0.352-1.605c-0.414,0.609-0.926,1.07-1.535,1.383s-1.316,0.469-2.121,0.469
			c-1.547,0-2.758-0.561-3.633-1.682s-1.312-2.596-1.312-4.424V419.947z M60.705,420.193c0,1.281,0.262,2.307,0.785,3.076
			s1.336,1.154,2.438,1.154c0.688,0,1.266-0.156,1.734-0.469s0.852-0.75,1.148-1.312v-5.918c-0.297-0.523-0.682-0.939-1.154-1.248
			s-1.041-0.463-1.705-0.463c-1.109,0-1.928,0.457-2.455,1.371s-0.791,2.102-0.791,3.562V420.193z"/>
		<path fill="#1C1C1C" d="M74.076,410.127h-2.309v-2.355h2.309V410.127z M74.076,426.053h-2.309v-12.68h2.309V426.053z"/>
		<path fill="#1C1C1C" d="M81.682,424.494c0.711,0,1.332-0.236,1.863-0.709s0.797-1.053,0.797-1.74h2.086l0.035,0.07
			c0.031,1.094-0.438,2.064-1.406,2.912s-2.094,1.271-3.375,1.271c-1.781,0-3.156-0.605-4.125-1.816s-1.453-2.719-1.453-4.523
			v-0.492c0-1.789,0.486-3.291,1.459-4.506s2.346-1.822,4.119-1.822c1.414,0,2.572,0.438,3.475,1.312s1.338,1.949,1.307,3.223
			l-0.023,0.07h-2.098c0-0.773-0.252-1.432-0.756-1.975s-1.139-0.814-1.904-0.814c-1.133,0-1.959,0.439-2.479,1.318
			s-0.779,1.943-0.779,3.193v0.492c0,1.273,0.256,2.348,0.768,3.223S80.534,424.494,81.682,424.494z"/>
		<path fill="#1C1C1C" d="M87.683,419.596c0-1.875,0.508-3.42,1.523-4.635s2.395-1.822,4.137-1.822c1.758,0,3.146,0.605,4.166,1.816
			s1.529,2.758,1.529,4.641v0.258c0,1.891-0.508,3.438-1.523,4.641s-2.398,1.805-4.148,1.805s-3.135-0.604-4.154-1.811
			s-1.529-2.752-1.529-4.635V419.596z M89.991,419.854c0,1.344,0.283,2.453,0.85,3.328s1.408,1.312,2.525,1.312
			c1.102,0,1.938-0.438,2.508-1.312s0.855-1.984,0.855-3.328v-0.258c0-1.328-0.287-2.434-0.861-3.316s-1.416-1.324-2.525-1.324
			c-1.102,0-1.936,0.441-2.502,1.324s-0.85,1.988-0.85,3.316V419.854z"/>
	</g>
	<g enable-background="new    ">
		<path fill="#1C1C1C" d="M325.788,419.592l0.023,0.07c0.031,1.602-0.531,2.941-1.688,4.02s-2.684,1.617-4.582,1.617
			c-1.93,0-3.502-0.684-4.717-2.051s-1.822-3.102-1.822-5.203v-3.035c0-2.102,0.607-3.838,1.822-5.209s2.787-2.057,4.717-2.057
			s3.465,0.514,4.605,1.541s1.695,2.389,1.664,4.084l-0.023,0.07h-2.215c0-1.195-0.352-2.141-1.055-2.836s-1.695-1.043-2.977-1.043
			c-1.289,0-2.316,0.52-3.082,1.559s-1.148,2.328-1.148,3.867v3.059c0,1.555,0.383,2.852,1.148,3.891s1.793,1.559,3.082,1.559
			c1.281,0,2.273-0.346,2.977-1.037s1.055-1.646,1.055-2.865H325.788z"/>
		<path fill="#1C1C1C" d="M335.562,423.178c-0.398,0.68-0.91,1.203-1.535,1.57s-1.348,0.551-2.168,0.551
			c-1.383,0-2.461-0.441-3.234-1.324s-1.16-2.258-1.16-4.125v-7.477h2.309v7.5c0,1.352,0.199,2.281,0.598,2.789
			s1.02,0.762,1.863,0.762c0.82,0,1.498-0.166,2.033-0.498s0.939-0.803,1.213-1.412v-9.141h2.309v12.68h-2.074L335.562,423.178z"/>
		<path fill="#1C1C1C" d="M342.664,409.127h-2.309v-2.355h2.309V409.127z M342.664,425.053h-2.309v-12.68h2.309V425.053z"/>
		<path fill="#1C1C1C" d="M344.703,418.947c0-2.039,0.436-3.684,1.307-4.934s2.092-1.875,3.662-1.875c0.742,0,1.4,0.137,1.975,0.41
			s1.064,0.672,1.471,1.195v-6.973h2.309v18.281h-1.77l-0.352-1.605c-0.414,0.609-0.926,1.07-1.535,1.383s-1.316,0.469-2.121,0.469
			c-1.547,0-2.758-0.561-3.633-1.682s-1.312-2.596-1.312-4.424V418.947z M347.012,419.193c0,1.281,0.262,2.307,0.785,3.076
			s1.336,1.154,2.438,1.154c0.688,0,1.266-0.156,1.734-0.469s0.852-0.75,1.148-1.312v-5.918c-0.297-0.523-0.682-0.939-1.154-1.248
			s-1.041-0.463-1.705-0.463c-1.109,0-1.928,0.457-2.455,1.371s-0.791,2.102-0.791,3.562V419.193z"/>
		<path fill="#1C1C1C" d="M365.68,425.053c-0.078-0.383-0.139-0.721-0.182-1.014s-0.068-0.588-0.076-0.885
			c-0.43,0.609-0.99,1.119-1.682,1.529s-1.436,0.615-2.232,0.615c-1.32,0-2.326-0.338-3.018-1.014s-1.037-1.607-1.037-2.795
			c0-1.211,0.49-2.158,1.471-2.842s2.311-1.025,3.99-1.025h2.508v-1.254c0-0.742-0.227-1.33-0.68-1.764s-1.094-0.65-1.922-0.65
			c-0.75,0-1.355,0.188-1.816,0.562s-0.691,0.824-0.691,1.348l-2.191,0.023l-0.023-0.07c-0.055-0.922,0.377-1.766,1.295-2.531
			s2.104-1.148,3.557-1.148c1.438,0,2.594,0.365,3.469,1.096s1.312,1.783,1.312,3.158v6.105c0,0.453,0.023,0.891,0.07,1.312
			s0.133,0.836,0.258,1.242H365.68z M361.848,423.365c0.836,0,1.59-0.215,2.262-0.645s1.109-0.922,1.312-1.477v-2.062h-2.59
			c-0.93,0-1.674,0.234-2.232,0.703s-0.838,1.02-0.838,1.652c0,0.562,0.176,1.008,0.527,1.336S361.16,423.365,361.848,423.365z"/>
		<path fill="#1C1C1C" d="M369.571,418.947c0-2.039,0.436-3.684,1.307-4.934s2.092-1.875,3.662-1.875c0.742,0,1.4,0.137,1.975,0.41
			s1.064,0.672,1.471,1.195v-6.973h2.309v18.281h-1.77l-0.352-1.605c-0.414,0.609-0.926,1.07-1.535,1.383s-1.316,0.469-2.121,0.469
			c-1.547,0-2.758-0.561-3.633-1.682s-1.312-2.596-1.312-4.424V418.947z M371.88,419.193c0,1.281,0.262,2.307,0.785,3.076
			s1.336,1.154,2.438,1.154c0.688,0,1.266-0.156,1.734-0.469s0.852-0.75,1.148-1.312v-5.918c-0.297-0.523-0.682-0.939-1.154-1.248
			s-1.041-0.463-1.705-0.463c-1.109,0-1.928,0.457-2.455,1.371s-0.791,2.102-0.791,3.562V419.193z"/>
		<path fill="#1C1C1C" d="M382.217,418.596c0-1.875,0.508-3.42,1.523-4.635s2.395-1.822,4.137-1.822
			c1.758,0,3.146,0.605,4.166,1.816s1.529,2.758,1.529,4.641v0.258c0,1.891-0.508,3.438-1.523,4.641s-2.398,1.805-4.148,1.805
			s-3.135-0.604-4.154-1.811s-1.529-2.752-1.529-4.635V418.596z M384.525,418.854c0,1.344,0.283,2.453,0.85,3.328
			s1.408,1.312,2.525,1.312c1.102,0,1.938-0.438,2.508-1.312s0.855-1.984,0.855-3.328v-0.258c0-1.328-0.287-2.434-0.861-3.316
			s-1.416-1.324-2.525-1.324c-1.102,0-1.936,0.441-2.502,1.324s-0.85,1.988-0.85,3.316V418.854z"/>
		<path fill="#1C1C1C" d="M401.412,414.412l-1.184-0.07c-0.609,0-1.123,0.145-1.541,0.434s-0.74,0.695-0.967,1.219v9.059h-2.309
			v-12.68h2.062l0.223,1.852c0.359-0.656,0.803-1.168,1.33-1.535s1.135-0.551,1.822-0.551c0.172,0,0.336,0.014,0.492,0.041
			s0.285,0.057,0.387,0.088L401.412,414.412z"/>
	</g>
</g>
</svg>
