<?xml version="1.0" encoding="utf-8"?>
<!-- Generator: Adobe Illustrator 15.0.0, SVG Export Plug-In . SVG Version: 6.00 Build 0)  -->
<!DOCTYPE svg PUBLIC "-//W3C//DTD SVG 1.1//EN" "http://www.w3.org/Graphics/SVG/1.1/DTD/svg11.dtd">
<svg version="1.1" id="Layer_1" xmlns="http://www.w3.org/2000/svg" xmlns:xlink="http://www.w3.org/1999/xlink" x="0px" y="0px"
	 width="35px" height="35px" viewBox="0 0 35 35" enable-background="new 0 0 35 35" xml:space="preserve">
<path d="M33.539,14.582l-3.477-0.869c-0.246-0.819-0.57-1.606-0.967-2.35l2.235-3.576c0.485-0.733,0.856-1.374,0.086-2.147
	l-2.063-2.062c-0.771-0.774-1.41-0.401-2.146,0.085l-3.576,2.236c-0.742-0.396-1.527-0.719-2.348-0.966l-0.869-3.476
	c-0.172-0.799-0.363-1.458-1.457-1.458H16.04c-1.094,0-1.283,0.66-1.458,1.458l-0.868,3.476c-0.819,0.247-1.604,0.571-2.349,0.966
	L7.79,3.663C7.055,3.175,6.415,2.805,5.641,3.577L3.579,5.64C2.806,6.413,3.178,7.054,3.664,7.789l2.235,3.577
	c-0.395,0.742-0.718,1.527-0.965,2.348l-3.476,0.869C0.659,14.756,0,14.947,0,16.041v2.917c0,1.094,0.66,1.283,1.458,1.458
	l3.476,0.868c0.247,0.819,0.571,1.604,0.965,2.35L3.664,27.21c-0.488,0.733-0.858,1.374-0.086,2.147l2.063,2.062
	c0.772,0.771,1.412,0.4,2.148-0.085l3.576-2.233c0.742,0.394,1.527,0.717,2.349,0.965l0.869,3.477
	c0.174,0.798,0.365,1.459,1.458,1.459h2.917c1.094,0,1.283-0.661,1.457-1.459l0.869-3.477c0.819-0.248,1.604-0.571,2.353-0.965
	l3.573,2.233c0.733,0.485,1.375,0.856,2.147,0.085l2.062-2.062c0.773-0.771,0.4-1.41-0.086-2.146l-2.238-3.576
	c0.396-0.742,0.721-1.527,0.967-2.35l3.478-0.868c0.8-0.174,1.46-0.362,1.46-1.458v-2.917
	C34.998,14.946,34.338,14.757,33.539,14.582z M17.499,23.516c-3.322,0-6.016-2.695-6.016-6.017c0-3.322,2.693-6.016,6.016-6.016
	c3.321,0,6.015,2.693,6.015,6.016C23.514,20.816,20.82,23.516,17.499,23.516z"/>
</svg>
