<?xml version="1.0" encoding="utf-8"?>
<!-- Generator: Adobe Illustrator 15.0.0, SVG Export Plug-In . SVG Version: 6.00 Build 0)  -->
<!DOCTYPE svg PUBLIC "-//W3C//DTD SVG 1.1//EN" "http://www.w3.org/Graphics/SVG/1.1/DTD/svg11.dtd">
<svg version="1.1" id="Layer_1" xmlns="http://www.w3.org/2000/svg" xmlns:xlink="http://www.w3.org/1999/xlink" x="0px" y="0px"
	 width="50px" height="50px" viewBox="-17 -17 50 50" enable-background="new -17 -17 50 50" xml:space="preserve">
<g>
	<path fill="#ff7f2a" d="M30.77,6.944c0.396-0.715,0.186-2.359,0.146-2.725c-1.02-10.04-8.704-18.004-18.527-19.778
		c-3.732-0.671-3.732,0.05-3.732,1.663c0,4.477,0,19.156,0,19.156S8.578,6.321,9.139,6.98c0.601,0.604,1.477,0.5,1.477,0.5h18.631
		C29.246,7.481,30.418,7.562,30.77,6.944z"/>
	<path fill="#ff7f2a" d="M32.805,10.896c-0.403-0.531-0.897-0.485-0.897-0.485H14.021c0,0-1.273-0.07-1.611,0.787
		c-0.244,0.744,0.638,1.492,0.638,1.492l12.121,12.125c0,0,0.599,0.671,1.123,0.485c0.641-0.229,1.435-1.279,1.715-1.621
		c2.588-3.125,4.343-6.967,4.914-11.182C32.945,12.364,33.144,11.345,32.805,10.896z"/>
	<path fill="#ff7f2a" d="M5.375,10.411V-11.29c0,0,0.084-0.992-0.748-1.31c-0.99-0.381-2.794-0.07-3.475,0.063
		C-9.188-10.565-17-1.479-17,9.435C-17,21.794-6.981,31.81,5.375,31.81c4.853,0,9.345-1.547,13.01-4.175
		c0.388-0.274,1.792-1.08,1.694-2.035c-0.073-0.602-0.708-1.199-0.708-1.199L5.375,10.411z"/>
</g>
</svg>
