<?xml version="1.0" encoding="utf-8"?>
<!-- Generator: Adobe Illustrator 16.0.0, SVG Export Plug-In . SVG Version: 6.00 Build 0)  -->
<!DOCTYPE svg PUBLIC "-//W3C//DTD SVG 1.1//EN" "http://www.w3.org/Graphics/SVG/1.1/DTD/svg11.dtd">
<svg version="1.1" id="Layer_1" xmlns="http://www.w3.org/2000/svg" xmlns:xlink="http://www.w3.org/1999/xlink" x="0px" y="0px"
	 width="176px" height="176px" viewBox="0 0 176 176" enable-background="new 0 0 176 176" xml:space="preserve">
<g>
	<path fill="#1C1C1C" d="M121.07,107.951c0,4.366,3.537,7.899,7.9,7.899c4.361,0,7.896-3.533,7.896-7.899
		c0-5.854-6.205-9.052-7.896-18.201C127.344,98.692,121.07,102.097,121.07,107.951z"/>
	<path fill="#1C1C1C" d="M135.768,67.147c-22.777-0.11-45.276-0.703-48.685-0.841c-1.006-2.213-2.35-6.066-4.675-7.782
		c-5.318-3.921-9.487-2.215-12.742-0.271c-7.355,4.389-30.503,17.032-35.949,20.289v32.946c1.162,0.354,12.372,2.741,12.996,3
		c14.859,6.156,30.557,5.458,35.586,5.185c3.395-0.188,6.261-0.521,8.536-2.417c3.34-2.799,4.38-7.094,4.686-8.928
		c2.927-1.165,4.853-2.946,5.735-5.299c0.345-0.92,0.52-1.924,0.52-2.976c0-1.769-0.484-3.359-0.918-4.428
		c2.566-1.414,4.156-3.3,4.736-5.612c0.16-0.635,0.242-1.306,0.242-1.994c0-2.201-0.83-4.216-1.574-5.585
		c2.37-0.355,21.535-1.598,32.041-2.333c3.365-0.234,5.98-3.033,5.98-6.407V73.69C142.283,70.086,139.371,67.162,135.768,67.147z"/>
</g>
</svg>
