<?xml version="1.0" encoding="utf-8"?>
<!-- Generator: Adobe Illustrator 15.0.0, SVG Export Plug-In . SVG Version: 6.00 Build 0)  -->
<!DOCTYPE svg PUBLIC "-//W3C//DTD SVG 1.1//EN" "http://www.w3.org/Graphics/SVG/1.1/DTD/svg11.dtd">
<svg version="1.1" id="Layer_1" xmlns="http://www.w3.org/2000/svg" xmlns:xlink="http://www.w3.org/1999/xlink" x="0px" y="0px"
	 width="176px" height="176px" viewBox="0 0 176 176" enable-background="new 0 0 176 176" xml:space="preserve">
<path fill="#1C1C1C" d="M123.38,70.426c1.14,11.811-4.505,17.023-4.505,17.023s-0.05-11.729-11.031-22.34
	c-3.82-0.844-7.869-1.452-12.084-1.789c8.305,16.26,1.614,25.124,1.614,25.124s-2.248-12.195-15.915-20.739
	c-2.149-1.343-4.72-2.563-7.477-3.665c-4.291,0.642-8.358,1.565-12.126,2.738c0.964,0.729,1.887,1.485,2.741,2.281
	c13.691,13.055,10.029,23.88,10.029,23.88S68.64,82.08,52.974,78.293c-3.016-0.729-6.575-1.084-10.263-1.205
	c-4.4,4.106-6.929,8.864-6.929,13.939c0,15.478,23.378,21.652,52.218,21.652c28.841,0,52.218-6.177,52.218-21.652
	C140.218,82.879,133.73,75.545,123.38,70.426z"/>
</svg>
