<?xml version="1.0" encoding="utf-8"?>
<!-- Generator: Adobe Illustrator 16.0.0, SVG Export Plug-In . SVG Version: 6.00 Build 0)  -->
<!DOCTYPE svg PUBLIC "-//W3C//DTD SVG 1.1//EN" "http://www.w3.org/Graphics/SVG/1.1/DTD/svg11.dtd">
<svg version="1.1" id="Layer_1" xmlns="http://www.w3.org/2000/svg" xmlns:xlink="http://www.w3.org/1999/xlink" x="0px" y="0px"
	 width="176px" height="176px" viewBox="0 0 176 176" enable-background="new 0 0 176 176" xml:space="preserve">
<g>
	<path fill="#1C1C1C" d="M89.833,76.845c-9.773-8.499-25.072-5.737-25.072-5.737l3.399,53.544h39.945l2.283-42.722
		C110.389,81.93,100.244,85.769,89.833,76.845z"/>
	<path fill="#1C1C1C" d="M118.385,41.998h-60.77c-0.47,0-0.85,0.381-0.85,0.85l5.1,84.992c0,1.644,1.331,2.975,2.975,2.975h2.868
		v2.338c0,0.47,0.38,0.85,0.85,0.85h38.884c0.47,0,0.851-0.38,0.851-0.85v-2.338h2.868c1.644,0,2.975-1.331,2.975-2.975l5.1-84.992
		C119.234,42.379,118.854,41.998,118.385,41.998z M110.579,124.753c0,1.419-1.151,2.569-2.569,2.569H67.991
		c-1.42,0-2.57-1.15-2.57-2.569L60.59,44.949c0-0.405,0.329-0.734,0.734-0.734h53.352c0.405,0,0.733,0.329,0.733,0.734
		L110.579,124.753z"/>
</g>
</svg>
