<?xml version="1.0" encoding="utf-8"?>
<!-- Generator: Adobe Illustrator 15.0.0, SVG Export Plug-In . SVG Version: 6.00 Build 0)  -->
<!DOCTYPE svg PUBLIC "-//W3C//DTD SVG 1.1//EN" "http://www.w3.org/Graphics/SVG/1.1/DTD/svg11.dtd">
<svg version="1.1" id="Layer_1" xmlns="http://www.w3.org/2000/svg" xmlns:xlink="http://www.w3.org/1999/xlink" x="0px" y="0px"
	 width="176px" height="176px" viewBox="0 0 176 176" enable-background="new 0 0 176 176" xml:space="preserve">
<g>
	<path fill="#1C1C1C" d="M97.209,126.381c0,2.279-0.799,4.219-2.395,5.814c-1.6,1.595-3.535,2.392-5.814,2.392
		c-2.278,0-4.217-0.797-5.812-2.392c-1.596-1.596-2.394-3.535-2.394-5.814c0-2.277,0.798-4.217,2.394-5.814
		c1.595-1.594,3.533-2.393,5.812-2.393s4.219,0.799,5.814,2.393C96.41,122.164,97.209,124.102,97.209,126.381z"/>
	<path fill="#1C1C1C" d="M107.979,49.682C102.49,44.195,95.77,41.413,88,41.413s-14.491,2.782-19.978,8.269
		c-5.487,5.485-8.269,12.207-8.269,19.978c0,1.633,0.589,3.049,1.748,4.208c1.159,1.162,2.576,1.75,4.21,1.75
		c1.633,0,3.049-0.589,4.208-1.749c1.161-1.16,1.75-2.576,1.75-4.209c0-4.568,1.56-8.35,4.77-11.561
		c3.21-3.21,6.992-4.771,11.56-4.771c4.566,0,8.349,1.561,11.562,4.771c3.209,3.211,4.771,6.992,4.771,11.561
		c0,4.569-1.568,8.359-4.756,11.548l-9.236,8.565c-5.404,5.402-7.295,8.011-7.295,16.006c0,1.633,0.589,3.049,1.749,4.207
		c1.159,1.16,2.575,1.75,4.208,1.75c1.633,0,3.049-0.59,4.209-1.75c1.16-1.159,1.748-2.574,1.748-4.207
		c0-3.844,0.271-4.11,2.869-6.665c0.285-0.282,0.596-0.587,0.889-0.884l9.236-8.564c5.504-5.506,8.295-12.237,8.295-20.006
		S113.465,55.169,107.979,49.682z"/>
</g>
</svg>
