<?xml version="1.0" encoding="utf-8"?>
<!-- Generator: Adobe Illustrator 15.0.0, SVG Export Plug-In . SVG Version: 6.00 Build 0)  -->
<!DOCTYPE svg PUBLIC "-//W3C//DTD SVG 1.1//EN" "http://www.w3.org/Graphics/SVG/1.1/DTD/svg11.dtd">
<svg version="1.1" id="Layer_1" xmlns="http://www.w3.org/2000/svg" xmlns:xlink="http://www.w3.org/1999/xlink" x="0px" y="0px"
	 width="176px" height="176px" viewBox="0 0 176 176" enable-background="new 0 0 176 176" xml:space="preserve">
<rect fill="#EE4037" width="176" height="176"/>
<path fill="#F5F5F5" d="M80.083,46.815c0,0,1.275,0.276,1.275,0.197v-1.183c0-2.376,0.644-4.329,3.015-4.329h10.347
	c2.373,0,5.238,1.953,5.238,4.329v1.183c0,0.077-0.939-0.197-0.951-0.197H80.083z M121.215,55.697c0-2.364-0.955-3.568-3.346-3.568
	H58.144c-2.408,0-3.356,1.204-3.356,3.568v4.404h66.427V55.697L121.215,55.697z M121.619,65.415l-7.178,61.189
	c-0.555,4.687-4.861,7.896-9.59,7.896H71.139c-4.721,0-9.029-3.21-9.576-7.896L54.38,65.415H121.619z M80.693,121.862l-4.105-48.513
	c-0.149-1.605-1.542-2.779-3.141-2.648c-1.594,0.127-2.771,1.54-2.646,3.132l4.111,48.514c0.146,1.605,1.529,2.777,3.14,2.652
	C79.64,124.869,80.82,123.462,80.693,121.862z M105.193,73.833c0.135-1.595-1.043-3.005-2.646-3.132
	c-1.586-0.131-2.994,1.043-3.129,2.648l-4.115,48.513c-0.135,1.6,1.043,3.007,2.646,3.137c1.594,0.125,3-1.049,3.135-2.652
	L105.193,73.833z"/>
</svg>
