<?xml version="1.0" encoding="utf-8"?>
<!-- Generator: Adobe Illustrator 15.0.0, SVG Export Plug-In . SVG Version: 6.00 Build 0)  -->
<!DOCTYPE svg PUBLIC "-//W3C//DTD SVG 1.1//EN" "http://www.w3.org/Graphics/SVG/1.1/DTD/svg11.dtd">
<svg version="1.1" id="Layer_1" xmlns="http://www.w3.org/2000/svg" xmlns:xlink="http://www.w3.org/1999/xlink" x="0px" y="0px"
	 width="176px" height="176px" viewBox="0 0 176 176" enable-background="new 0 0 176 176" xml:space="preserve">
<g>
	<path fill="#1C1C1C" d="M95.514,74.217c-0.578,1.382-2.423,2.213-2.812,3.779c4.683-2.902,10.131-5.392,8.84-10.834
		c-0.902-3.794-7.221-7.456-8.037-12.597c-0.83-5.25,2.293-7.896,4.42-11.083c-5.137,3.417-10.479,6.926-10.043,12.596
		C88.355,62.347,98.497,67.085,95.514,74.217z"/>
	<path fill="#1C1C1C" d="M81.474,84.676c3.979-2.159,7.506-5.142,5.628-9.07c-0.807-1.683-3.867-3.347-5.628-5.291
		c-3.7-4.083-3.757-9.323-1.205-12.596c-3.918,3.237-6.665,6.225-5.625,10.329C75.947,73.202,89.182,78.24,81.474,84.676z"/>
	<path fill="#1C1C1C" d="M112.451,125.625c1.4-0.346,2.459-1.273,2.668-2.418c3.927-2.262,11.634-7.312,15.785-14.196
		c6.388-10.579,6.267-24.146,6.261-24.721l-0.029-2.015H88.957h-0.001H40.781l-0.028,2.015c-0.007,0.575-0.127,14.142,6.26,24.721
		c4.152,6.882,11.857,11.935,15.785,14.196c0.205,1.129,1.236,2.05,2.609,2.406c-15.748,0.02-26.573,0.24-26.573,1.522
		c0,1.212,0.035,2.271,14.336,2.834c0.056,1.419,0.917,2.548,1.979,2.548h67.609c1.1,0,1.99-1.205,1.99-2.689
		c0-0.021-0.007-0.037-0.007-0.059c11.784-0.597,9.839-1.554,9.839-2.631C134.581,125.979,125.753,125.688,112.451,125.625z"/>
</g>
</svg>
