<?xml version="1.0" encoding="utf-8"?>
<!-- Generator: Adobe Illustrator 15.0.0, SVG Export Plug-In . SVG Version: 6.00 Build 0)  -->
<!DOCTYPE svg PUBLIC "-//W3C//DTD SVG 1.1//EN" "http://www.w3.org/Graphics/SVG/1.1/DTD/svg11.dtd">
<svg version="1.1" id="Layer_1" xmlns="http://www.w3.org/2000/svg" xmlns:xlink="http://www.w3.org/1999/xlink" x="0px" y="0px"
	 width="176px" height="176px" viewBox="0 0 176 176" enable-background="new 0 0 176 176" xml:space="preserve">
<g>
	<path fill="#1C1C1C" d="M90.75,46.494c-22.838,0-41.352,18.514-41.352,41.352c0,22.839,18.513,41.354,41.352,41.354
		s41.352-18.515,41.352-41.354C132.102,65.008,113.588,46.494,90.75,46.494z M90.75,122.229c-18.958,0-34.381-15.427-34.381-34.384
		c0-18.957,15.423-34.382,34.381-34.382s34.381,15.424,34.381,34.381C125.13,106.802,109.706,122.229,90.75,122.229z"/>
	<path fill="#1C1C1C" d="M90.75,57.253c-16.868,0-30.593,13.722-30.593,30.592c0,16.869,13.725,30.595,30.593,30.595
		c16.869,0,30.596-13.725,30.596-30.595C121.346,70.975,107.619,57.253,90.75,57.253z"/>
	<path fill="#1C1C1C" d="M42.797,46.494c-1.621,0-2.934,1.312-2.934,2.933v9.483v5.265c0,1.022-0.831,1.852-1.854,1.852
		c-1.023,0-1.853-0.831-1.853-1.852v-5.791v-8.958c0.001-1.621-1.314-2.933-2.934-2.933c-1.619,0-2.934,1.312-2.934,2.933v8.958
		v5.791c0,1.022-0.83,1.852-1.854,1.852c-1.023,0-1.853-0.831-1.853-1.852V58.91v-9.483c0-1.621-1.313-2.933-2.934-2.933
		c-1.62,0-2.933,1.312-2.933,2.933v17.712v3.801v0.725c0,0.343,0.061,0.671,0.169,0.975c0.781,3.889,4.182,6.855,8.325,7.045v45.808
		c0,2.219,1.797,4.014,4.014,4.014c2.217,0,4.015-1.796,4.015-4.014V79.685c4.142-0.189,7.543-3.156,8.324-7.045
		c0.107-0.304,0.168-0.632,0.168-0.975v-0.724V67.14V49.427C45.731,47.806,44.417,46.494,42.797,46.494z"/>
	<path fill="#1C1C1C" d="M149.299,46.532v-0.039h-4.015c-2.218,0-4.017,1.796-4.017,4.015v74.985c0,2.217,1.799,4.013,4.017,4.013
		c2.217,0,4.015-1.797,4.015-4.013v-32.2c3.363-0.354,5.987-3.193,5.987-6.653V53.185C155.286,49.729,152.662,46.884,149.299,46.532
		z"/>
</g>
</svg>
