<?xml version="1.0" encoding="utf-8"?>
<!-- Generator: Adobe Illustrator 15.0.0, SVG Export Plug-In . SVG Version: 6.00 Build 0)  -->
<!DOCTYPE svg PUBLIC "-//W3C//DTD SVG 1.1//EN" "http://www.w3.org/Graphics/SVG/1.1/DTD/svg11.dtd">
<svg version="1.1" id="Layer_1" xmlns="http://www.w3.org/2000/svg" xmlns:xlink="http://www.w3.org/1999/xlink" x="0px" y="0px"
	 width="176px" height="176px" viewBox="0 0 176 176" enable-background="new 0 0 176 176" xml:space="preserve">
<g>
	<path fill="#1C1C1C" d="M129.385,106.841l-5.583-3.989l-4.216,3.765c-0.608,0.541-1.395,0.842-2.211,0.842h-7.85l-6.185,13.138
		c-0.551,1.172-1.726,1.907-3.001,1.907c-0.113,0-0.226-0.006-0.338-0.017c-1.401-0.146-2.561-1.156-2.89-2.525l-8.185-34.018
		l-6.617,25.445c-0.323,1.245-1.335,2.188-2.598,2.427c-1.264,0.238-2.548-0.271-3.302-1.314l-3.652-5.043H60.513
		c-0.656,0-1.296-0.194-1.841-0.558l-4.06-2.706l-3.665,2.639c-0.565,0.408-1.243,0.625-1.939,0.625h-1.276
		c14.746,17.972,40.089,32.735,40.089,32.735s26.476-13.919,41.71-33.269C129.482,106.893,129.433,106.872,129.385,106.841z"/>
	<path fill="#1C1C1C" d="M114.08,35.148c-10.777,0-20.329,5.239-26.26,13.305c-5.93-8.066-15.481-13.305-26.261-13.305
		c-17.992,0-32.577,14.586-32.577,32.577c0,1.351,0.092,2.681,0.252,3.99c0,0,2.024,8.21,3.049,10.307
		c2.058,4.949,5.356,11.424,10.488,18.798h5.165l4.662-3.354c1.123-0.812,2.631-0.836,3.781-0.07l5.138,3.425h12.934
		c1.065,0,2.064,0.511,2.688,1.372l0.518,0.715l8.184-31.467c0.38-1.463,1.702-2.483,3.212-2.483c0.01,0,0.021,0,0.029,0
		c1.523,0.014,2.84,1.062,3.197,2.542l9.076,37.727l3.06-6.5c0.547-1.162,1.717-1.906,3.003-1.906h8.689l5.252-4.688
		c1.157-1.037,2.879-1.126,4.14-0.226l7.743,5.533c0.067,0.047,0.121,0.108,0.184,0.161c11.195-16.453,12.979-29.886,12.979-29.886
		c0.159-1.309,0.251-2.639,0.251-3.99C146.657,49.734,132.072,35.148,114.08,35.148z"/>
</g>
</svg>
