<?xml version="1.0" encoding="utf-8"?>
<!-- Generator: Adobe Illustrator 15.0.0, SVG Export Plug-In . SVG Version: 6.00 Build 0)  -->
<!DOCTYPE svg PUBLIC "-//W3C//DTD SVG 1.1//EN" "http://www.w3.org/Graphics/SVG/1.1/DTD/svg11.dtd">
<svg version="1.1" id="Layer_1" xmlns="http://www.w3.org/2000/svg" xmlns:xlink="http://www.w3.org/1999/xlink" x="0px" y="0px"
	 width="176px" height="176px" viewBox="0 0 176 176" enable-background="new 0 0 176 176" xml:space="preserve">
<g>
	<circle fill="#1C1C1C" cx="56.746" cy="85.66" r="6.031"/>
	<path fill="#1C1C1C" d="M58.148,71.24c-0.752-1.085-2.245-1.356-3.329-0.604l-10.595,7.348c-1.086,0.752-1.358,2.244-0.602,3.329
		c0.464,0.672,1.211,1.03,1.968,1.03c0.469,0,0.945-0.139,1.358-0.427l10.597-7.348C58.632,73.816,58.9,72.326,58.148,71.24z"/>
	<path fill="#1C1C1C" d="M108.377,47.245c-7.428,0-14.385,1.997-20.381,5.468c-5.995-3.471-12.949-5.468-20.375-5.468
		c-22.509,0-40.755,18.246-40.755,40.756c0,22.509,18.245,40.755,40.755,40.755c7.426,0,14.38-1.996,20.375-5.469
		c5.997,3.473,12.954,5.469,20.381,5.469c22.512,0,40.757-18.25,40.757-40.757C149.134,65.492,130.889,47.245,108.377,47.245z
		 M67.62,122.225c-18.901,0-34.226-15.316-34.226-34.224c0-18.9,15.323-34.226,34.226-34.226c5.139,0,10.011,1.135,14.385,3.165
		C73.209,64.416,67.621,75.551,67.621,88c0,3.787,0.527,7.445,1.493,10.923c-0.491-0.062-0.989-0.105-1.496-0.105
		c-5.322,0-9.932,3.605-11.213,8.766c-0.311,1.248,0.451,2.51,1.7,2.82c1.246,0.311,2.512-0.449,2.821-1.699
		c0.763-3.078,3.513-5.227,6.692-5.227c1.251,0,2.43,0.346,3.454,0.938c2.503,5.682,6.263,10.68,10.932,14.646
		C77.63,121.09,72.758,122.225,67.62,122.225z M108.377,122.461c-19.031,0-34.459-15.432-34.459-34.46
		c-0.001-19.03,15.428-34.459,34.459-34.459c19.033,0,34.461,15.429,34.461,34.458C142.838,107.029,127.41,122.461,108.377,122.461z
		"/>
	<path fill="#1C1C1C" d="M100.463,89.215c0.493,0.494,1.141,0.74,1.785,0.74s1.292-0.246,1.784-0.74
		c0.985-0.983,0.985-2.583,0-3.567l-4.909-4.907c-0.943-0.946-2.622-0.946-3.568,0l-4.906,4.907
		c-0.983,0.986-0.983,2.584,0.002,3.569c0.981,0.984,2.582,0.984,3.566-0.002l3.122-3.122L100.463,89.215z"/>
	<path fill="#1C1C1C" d="M120.998,80.741c-0.946-0.946-2.624-0.946-3.568,0l-4.908,4.907c-0.982,0.986-0.982,2.584,0.002,3.569
		c0.982,0.984,2.584,0.984,3.566-0.002l3.124-3.122l3.123,3.122c0.493,0.494,1.14,0.74,1.785,0.74s1.292-0.246,1.784-0.74
		c0.984-0.983,0.984-2.583,0-3.567L120.998,80.741z"/>
	<path fill="#1C1C1C" d="M117.893,98.883H98.863c-1.283,0.07-2.012,1.576-1.7,2.824c1.28,5.156,5.894,8.762,11.214,8.762
		c5.322,0,9.934-3.604,11.213-8.764C119.898,100.457,119.176,98.949,117.893,98.883z"/>
</g>
</svg>
