<?xml version="1.0" encoding="utf-8"?>
<!-- Generator: Adobe Illustrator 15.0.0, SVG Export Plug-In . SVG Version: 6.00 Build 0)  -->
<!DOCTYPE svg PUBLIC "-//W3C//DTD SVG 1.1//EN" "http://www.w3.org/Graphics/SVG/1.1/DTD/svg11.dtd">
<svg version="1.1" id="Layer_1" xmlns="http://www.w3.org/2000/svg" xmlns:xlink="http://www.w3.org/1999/xlink" x="0px" y="0px"
	 width="176px" height="176px" viewBox="0 0 176 176" enable-background="new 0 0 176 176" xml:space="preserve">
<g>
	<path fill="#1C1C1C" d="M134.203,107.317l-31.536-54.621c-3.451-5.983-8.796-9.418-14.667-9.418
		c-5.869,0-11.216,3.435-14.667,9.418l-31.536,54.619c-3.454,5.979-3.754,12.326-0.822,17.41c2.934,5.084,8.581,7.996,15.49,7.996
		h63.07c6.91,0,12.557-2.912,15.488-7.996C137.958,119.644,137.657,113.299,134.203,107.317z M131.439,122.658
		c-2.176,3.766-6.516,5.926-11.904,5.926h-63.07c-5.392,0-9.731-2.162-11.905-5.927c-2.172-3.771-1.875-8.605,0.82-13.272
		l31.539-54.616c2.693-4.669,6.731-7.347,11.082-7.347c4.351,0,8.39,2.678,11.081,7.348l31.54,54.62
		C133.314,114.054,133.613,118.89,131.439,122.658z"/>
	<path fill="#1C1C1C" d="M126.436,111.804l-8.867-15.363c-3.795-6.568-10.004-17.328-13.801-23.899l-8.869-15.358
		c-3.793-6.574-10-6.574-13.797,0l-8.87,15.357c-3.795,6.573-10.004,17.331-13.799,23.902l-8.867,15.36
		c-3.796,6.57-0.69,11.95,6.898,11.95H74.2c7.589,0,20.008,0,27.599,0h17.738C127.127,123.754,130.23,118.378,126.436,111.804z
		 M92.663,66.328l2.549,0.385l-1.694,5.916l-1.223-0.216L92.663,66.328z M92.58,73.277c0.518,0,0.938,0.419,0.938,0.938
		c0,0.518-0.42,0.937-0.938,0.937s-0.938-0.419-0.938-0.937C91.643,73.696,92.062,73.277,92.58,73.277z M85.562,73.718
		c1.994,0,3.611,1.62,3.611,3.614c0,1.993-1.615,3.611-3.611,3.611c-1.997,0-3.614-1.62-3.614-3.611
		C81.947,75.338,83.564,73.718,85.562,73.718z M103.335,122.062h-1.376v-3.672h-4.973v-4.25h-4.969v-4.25h-4.974v-4.248h-4.969
		v-4.248h-4.97v-4.248h-4.969v-4.252h-5.089v-5.051h1.379v3.674h5.087v4.25h4.971v4.25h4.969v4.244h4.971v4.251h4.973v4.249h4.969
		v4.25h4.97V122.062z M108.312,97.462c-0.396,0.352-0.892,0.525-1.379,0.525c-0.565,0-1.135-0.231-1.541-0.689
		c-0.021-0.02-2.429-2.641-5.703-3.338c-2.801-0.596-5.938,1.316-5.969,1.335c-0.098,0.06-0.193,0.103-0.295,0.144
		c1.674,0.992,3.666,2.256,5.357,3.564c3.502,2.718,6.203,5.155,6.314,5.258c0.85,0.768,0.916,2.072,0.148,2.92
		c-0.408,0.454-0.971,0.682-1.534,0.682c-0.493,0-0.989-0.176-1.385-0.529c-0.028-0.023-2.709-2.441-6.082-5.062
		c-3.327-2.576-8.205-5.097-8.252-5.119c-0.426-0.223-0.74-0.463-1.083-0.896c-0.708-0.778-1.707-2.288-2.642-4.159
		c-1.324-2.646-2.177-6.212-2.286-6.684c-0.004,0.002-0.014,0.002-0.015,0.002c-0.075,0.012-0.149,0.02-0.228,0.02
		c-0.073,0-0.151-0.007-0.228-0.02c-0.171-0.028-4.226-0.748-5.086-4.075c-0.946-3.672,0.464-7.884,0.525-8.063
		c0.245-0.718,1.028-1.105,1.748-0.857c0.72,0.245,1.107,1.027,0.86,1.75c-0.013,0.034-1.203,3.618-0.465,6.48
		c0.339,1.309,2.097,1.854,2.687,2.008c0.776-0.121,3.077-0.469,5.163-0.59c1.747-0.098,3.278-0.003,3.942,0.053
		c0.49-0.211,1.686-0.798,2.812-1.941c1.396-1.412,2.188-2.936,2.195-2.953c0.348-0.675,1.178-0.946,1.854-0.6
		c0.677,0.348,0.945,1.175,0.604,1.852c-0.039,0.078-0.98,1.911-2.689,3.639c-1.955,1.979-4.061,2.688-4.146,2.716
		c-0.188,0.062-0.385,0.083-0.58,0.062c-0.01-0.001-0.512-0.055-1.281-0.087c0.089,0.489,0.437,2.247,1.123,3.692
		c0.722,1.509,1.914,2.604,1.914,2.604l0.021-0.011c1.601-0.776,4.627-1.85,7.838-1.17c4.624,0.984,7.79,4.479,7.925,4.626
		C109.234,95.392,109.162,96.698,108.312,97.462z"/>
</g>
</svg>
