<?xml version="1.0" encoding="utf-8"?>
<!-- Generator: Adobe Illustrator 16.0.0, SVG Export Plug-In . SVG Version: 6.00 Build 0)  -->
<!DOCTYPE svg PUBLIC "-//W3C//DTD SVG 1.1//EN" "http://www.w3.org/Graphics/SVG/1.1/DTD/svg11.dtd">
<svg version="1.1" id="Layer_1" xmlns="http://www.w3.org/2000/svg" xmlns:xlink="http://www.w3.org/1999/xlink" x="0px" y="0px"
	 width="176px" height="176px" viewBox="0 0 176 176" enable-background="new 0 0 176 176" xml:space="preserve">
<g>
	<g id="_x33_4_34_">
		<path fill="#1C1C1C" d="M133.506,95.87c-7.224-13.115-22.154-28.36-30.577-28.36c-0.528,0-1.035,0.06-1.502,0.179
			c-2.951,0.75-4.754,2.735-5.803,5.004c0,0-2.454-1.277-2.454-2.832c0-1.556,0-31.247,0-31.247c0-0.538-0.436-0.972-0.973-0.972
			h-0.011h-8.374h-0.011c-0.537,0-0.972,0.435-0.972,0.972c0,0,0,29.604,0,31.247c0,1.641-2.455,2.832-2.455,2.832
			c-1.05-2.27-2.852-4.254-5.802-5.004c-0.467-0.119-0.974-0.179-1.503-0.179c-8.422,0-23.353,15.245-30.577,28.36
			c-6.311,11.456-8.884,22.813-7.649,33.755c0.544,4.814,6.177,8.732,12.559,8.732c3.302,0,9.567-1.076,14.869-8.18
			c1.219,0.124,2.393,0.186,3.5,0.186c0,0,0,0,0.001,0c5.269,0,9.308-1.403,12.002-4.173c4.092-4.202,3.858-11.033,3.858-12.911
			c0-1.88,0.013-26.025,0.013-27.683c0-1.658,4.941-7.003,6.354-7.003c1.414,0,6.359,5.061,6.353,7.003
			c-0.005,1.942,0.013,25.7,0.013,27.683c0,1.98-0.233,8.709,3.858,12.911c2.696,2.77,6.733,4.173,12.002,4.173
			c0.002,0,0.002,0,0.003,0c1.105,0,2.28-0.062,3.499-0.186c5.303,7.104,11.565,8.18,14.87,8.18c6.38,0,12.013-3.918,12.558-8.732
			C142.391,118.684,139.816,107.326,133.506,95.87z"/>
	</g>
</g>
</svg>
