<?xml version="1.0" encoding="utf-8"?>
<!-- Generator: Adobe Illustrator 15.0.0, SVG Export Plug-In . SVG Version: 6.00 Build 0)  -->
<!DOCTYPE svg PUBLIC "-//W3C//DTD SVG 1.1//EN" "http://www.w3.org/Graphics/SVG/1.1/DTD/svg11.dtd">
<svg version="1.1" id="Layer_1" xmlns="http://www.w3.org/2000/svg" xmlns:xlink="http://www.w3.org/1999/xlink" x="0px" y="0px"
	 width="176px" height="176px" viewBox="0 0 176 176" enable-background="new 0 0 176 176" xml:space="preserve">
<path fill="#1C1C1C" d="M122.281,48.608c-8.947-7.781-22.521-6.844-30.307,2.106L67.973,78.275L51.607,97.076
	c-7.454,8.569-6.905,21.375,1.011,29.286c0.03,0.023,0.056,0.061,0.078,0.087c0.328,0.321,0.661,0.639,1.015,0.944
	c0.349,0.301,0.708,0.597,1.079,0.873c0.026,0.019,0.061,0.031,0.091,0.065c8.926,6.75,21.678,5.522,29.14-3.044l16.372-18.807
	l23.996-27.562C132.178,69.976,131.236,56.407,122.281,48.608z M81.355,119.274c-6.455,7.426-15.528,10.098-23.284,3.545
	c-0.013,0.007-0.437-0.308-0.428-0.375c-7.557-6.774-6.163-16.133,0.294-23.547l20.464-23.506l23.427,20.375L81.355,119.274z"/>
</svg>
