<?xml version="1.0" encoding="utf-8"?>
<!-- Generator: Adobe Illustrator 15.0.0, SVG Export Plug-In . SVG Version: 6.00 Build 0)  -->
<!DOCTYPE svg PUBLIC "-//W3C//DTD SVG 1.1//EN" "http://www.w3.org/Graphics/SVG/1.1/DTD/svg11.dtd">
<svg version="1.1" id="Layer_1" xmlns="http://www.w3.org/2000/svg" xmlns:xlink="http://www.w3.org/1999/xlink" x="0px" y="0px"
	 width="176px" height="176px" viewBox="0 0 176 176" enable-background="new 0 0 176 176" xml:space="preserve">
<g>
	<g>
		<path fill="#1C1C1C" d="M44.175,86.396h8.377H79.76c3.651,0,6.611-2.959,6.611-6.611l0.073-35.658
			C63.458,44.929,44.979,63.41,44.175,86.396z"/>
		<g>
			<path fill="#1C1C1C" d="M106.354,74.086c-1.19,1.37-1.449,3.098-0.055,4.349c-0.002,0.013,0.076,0.07,0.08,0.07
				c1.434,1.209,3.107,0.716,4.301-0.655l3.781-4.342l-4.328-3.764L106.354,74.086z"/>
			<path fill="#1C1C1C" d="M89.557,44.12l0.07,35.654c0,3.652,2.959,6.607,6.611,6.607h27.207h8.379
				C131.021,63.512,112.541,44.922,89.557,44.12z M94.223,65.204c0-2.909,2.357-5.268,5.269-5.268c1.229,0,2.36,0.426,3.258,1.134
				l-7.517,7.227C94.6,67.426,94.223,66.361,94.223,65.204z M99.49,70.471c-1.348,0-2.572-0.511-3.504-1.343l7.562-7.279
				c0.759,0.91,1.207,2.08,1.207,3.354C104.758,68.112,102.398,70.471,99.49,70.471z M118.627,70.397l-4.432,5.091l-3.023,3.474
				c-1.379,1.583-3.732,1.809-5.383,0.562c-0.004-0.006-0.012-0.009-0.016-0.013c-0.068-0.051-0.135-0.104-0.199-0.161
				c-0.066-0.057-0.127-0.115-0.189-0.174c-0.004-0.005-0.008-0.011-0.014-0.016c-1.463-1.461-1.562-3.826-0.188-5.409l3.021-3.473
				l4.437-5.09c1.438-1.653,3.94-1.826,5.598-0.389C119.895,66.238,120.066,68.745,118.627,70.397z"/>
		</g>
		<path fill="#1C1C1C" d="M123.445,89.646H96.238c-3.652,0-6.611,2.889-6.611,6.541l-0.072,35.691
			c22.986-0.803,41.467-19.363,42.271-42.232H123.445z M114.262,98.416c1.229,0,2.359,0.428,3.256,1.135l-7.514,7.227
			c-0.631-0.865-1.01-1.934-1.01-3.092C108.992,100.775,111.354,98.416,114.262,98.416z M93.057,104.463
			c0-2.91,2.357-5.268,5.271-5.268c1.229,0,2.356,0.426,3.254,1.133l-7.513,7.229C93.434,106.686,93.057,105.621,93.057,104.463z
			 M94.82,108.387l7.562-7.279c0.757,0.912,1.207,2.08,1.207,3.355c0,2.91-2.356,5.268-5.269,5.268
			C96.977,109.73,95.75,109.219,94.82,108.387z M100.055,118.066c0-2.91,2.357-5.27,5.269-5.27c1.229,0,2.358,0.428,3.256,1.133
			l-7.515,7.229C100.432,120.289,100.055,119.225,100.055,118.066z M105.32,123.334c-1.348,0-2.572-0.512-3.504-1.342l7.562-7.279
			c0.759,0.91,1.207,2.08,1.207,3.354C110.588,120.977,108.23,123.334,105.32,123.334z M114.262,108.953
			c-1.35,0-2.572-0.512-3.506-1.346l7.566-7.277c0.754,0.91,1.205,2.08,1.205,3.354C119.527,106.594,117.17,108.953,114.262,108.953
			z"/>
		<g>
			<path fill="#1C1C1C" d="M72.06,111.803c-0.019,1.816,0.907,3.299,2.781,3.346c0.006,0.014,0.102,0.004,0.104,0.002
				c1.874-0.01,2.829-1.473,2.848-3.289l0.06-5.756l-5.734-0.061L72.06,111.803z"/>
			<path fill="#1C1C1C" d="M63.457,98.189c-0.007-0.014-0.103-0.004-0.104-0.004c-1.875,0.012-2.832,1.475-2.849,3.289l-0.06,5.758
				l5.734,0.061l0.059-5.76C66.255,99.719,65.331,98.236,63.457,98.189z"/>
			<path fill="#1C1C1C" d="M86.374,96.188c0-3.651-2.96-6.541-6.611-6.541H52.554h-8.377c0.802,22.869,19.282,41.435,42.269,42.233
				L86.374,96.188z M67.295,105.637l-0.069,6.75c-0.024,2.191-1.817,3.951-4.009,3.926c-2.191-0.021-3.95-1.814-3.927-4.008
				l0.069-6.75l0.001,0.002l0.047-4.605c0.021-2.098,1.668-3.796,3.732-3.919c0.008,0.003,0.015-0.001,0.021-0.001
				c0.085-0.006,0.17-0.008,0.254-0.008c0.087,0,0.172,0.004,0.256,0.016c0.007,0,0.014,0.002,0.021,0.002
				c2.061,0.162,3.672,1.896,3.651,3.994L67.295,105.637z M78.937,107.781L78.937,107.781l-0.048,4.604
				c-0.023,2.098-1.667,3.799-3.732,3.922c-0.007-0.006-0.014,0-0.021,0c-0.084,0.004-0.168,0.008-0.255,0.008
				c-0.087-0.004-0.17-0.006-0.255-0.016c-0.008,0-0.015-0.002-0.022-0.002c-2.061-0.162-3.671-1.896-3.65-3.996L71,107.697
				l0.069-6.748c0.022-2.191,1.817-3.951,4.009-3.93c2.192,0.023,3.95,1.82,3.927,4.012L78.937,107.781z"/>
		</g>
	</g>
</g>
</svg>
