<?xml version="1.0" encoding="utf-8"?>
<!-- Generator: Adobe Illustrator 16.0.0, SVG Export Plug-In . SVG Version: 6.00 Build 0)  -->
<!DOCTYPE svg PUBLIC "-//W3C//DTD SVG 1.1//EN" "http://www.w3.org/Graphics/SVG/1.1/DTD/svg11.dtd">
<svg version="1.1" id="Layer_1" xmlns="http://www.w3.org/2000/svg" xmlns:xlink="http://www.w3.org/1999/xlink" x="0px" y="0px"
	 width="176px" height="176px" viewBox="0 0 176 176" enable-background="new 0 0 176 176" xml:space="preserve">
<path fill="#1C1C1C" d="M131.4,63.485c-6.933-27.083-44.416-32.499-66.949-19.933c-22.533,12.566-13.506,34.522-12.782,38.35
	c0.721,3.828-5.562,12.782-7.439,15.961c-1.877,3.178-1.011,4.333,2.021,5.597c3.033,1.265,1.733,1.409,1.842,3.322
	c0.108,1.914,2.997,2.022,2.997,2.022s-1.768,0.397-1.732,2.167c0.036,1.769,2.71,3.156,2.71,3.156
	c1.753,1.729-0.882,4.011,1.719,8.073c2.6,4.063,3.636,0.867,14.469,0.435c10.832-0.435,10.304,14.948,10.304,14.948l-0.026,1.301
	h38.566c-9.751-11.699-0.651-28.816-0.651-28.816S138.334,90.569,131.4,63.485z M105.026,101.348
	c-5.747-0.277-11.122-2.719-13.517-8.016c1.155,0.339,2.824,0.737,4.678,0.889c3.324,0.27,7.239-0.264,9.812-3.385
	c0.029-0.037,0.057-0.076,0.082-0.117c1.415-2.312,1.819-4.354,1.201-6.069c-0.769-2.131-2.835-2.86-2.923-2.89
	c-0.534-0.184-1.118,0.103-1.302,0.639c-0.184,0.537,0.102,1.12,0.639,1.303c0.013,0.004,1.225,0.449,1.655,1.645
	c0.387,1.07,0.047,2.535-0.983,4.238c-4.141,4.922-13.305,1.457-13.693,1.307c-0.027-0.111-0.056-0.221-0.082-0.336
	c0,0-13.678,0.912-14.848-9.299c0.255-0.204,0.41-0.528,0.383-0.88c-0.021-0.292-0.449-7.167,7.376-8.581
	c0.437-0.079,0.773-0.43,0.833-0.87c0.005-0.042,0.605-4.147,3.982-4.823c3.549-0.71,5.965,1.36,6.063,1.445
	c0.362,0.325,0.905,0.348,1.296,0.057c0.278-0.205,6.855-4.955,12.619,2.086c0.358,0.438,1.005,0.503,1.443,0.144
	s0.503-1.004,0.144-1.443c-2.708-3.31-5.61-4.438-8.159-4.569c0.091-1.524,0.724-6.188,5.079-7.312
	c3.307-0.854,7.169,0.142,9.392,2.422c1.826,1.874,2.352,4.402,1.52,7.314c-0.119,0.417,0.037,0.863,0.388,1.116
	c0.027,0.019,2.71,2.001,2.108,6.334c-0.219,1.559-1.028,2.706-2.346,3.315c-1.886,0.873-4.51,0.545-6.686-0.835
	c-4.721-2.994-11.676-3.052-15.187-0.125c-1.699,1.417-4.152,3.259-5.847,2.886c-0.756-0.166-1.383-0.788-1.913-1.902
	c-0.243-0.511-0.855-0.729-1.367-0.485c-0.511,0.242-0.73,0.855-0.486,1.366c0.809,1.701,1.928,2.719,3.327,3.026
	c0.184,0.04,0.37,0.067,0.555,0.083c2.368,0.19,4.876-1.589,7.046-3.398c2.788-2.325,8.875-2.19,12.771,0.282
	c2.751,1.745,6.144,2.123,8.647,0.963c1.953-0.904,3.201-2.644,3.516-4.896c0.593-4.27-1.382-6.81-2.392-7.803
	c0.777-3.359,0.011-6.42-2.188-8.676c-2.69-2.76-7.316-3.986-11.284-2.998c-0.111-1.467-0.714-3.047-1.693-4.387
	c-1.057-1.443-3.053-3.284-6.558-3.855c-4.207-0.687-7.154,1.567-8.604,3.451c-1.212-0.806-3.56-1.693-7.501-0.761
	c-4.123,0.977-5.816,3.907-6.318,6.045c-2.92-1.039-6.14-0.661-8.493,1.156c-2.559,1.975-3.335,5.094-2.074,8.356
	c0.705,1.75,1.829,2.957,3.344,3.586c2.731,1.136,5.701-0.092,5.826-0.145c0.521-0.219,0.765-0.819,0.547-1.34
	c-0.219-0.522-0.82-0.769-1.343-0.551c-0.022,0.009-2.324,0.945-4.251,0.137c-0.998-0.418-1.723-1.221-2.215-2.44
	c-0.923-2.39-0.405-4.569,1.42-5.979c1.925-1.486,5.433-2.053,8.582,0.218c5.258,3.793,4.749,11.691,4.718,12.097
	c-4.147,1.158-6.068,3.77-6.952,6.093c-2.729,0.362-9.083,0.275-13.395-7.144c-5.623-9.673,0.644-18.719,8.331-19.533
	c0,0,3.832-10.539,17.279-6.129c0,0,9.693-7.08,19.16,2.109c0,0,7.308-1.126,13.054,5.171c3.698,4.35,4.257,8.426,4.257,8.426
	s4.791,3.214,5.057,11.661c0.266,8.447-4.706,12.676-8.475,13.237c0,0,1.945,9.085-7.086,12.643
	C112.998,96.624,111.7,101.672,105.026,101.348z M78.25,56.331c-0.203-0.147-0.411-0.285-0.622-0.416
	c0.167-1.086,0.976-4.047,4.869-4.968c4.768-1.129,6.357,0.833,6.411,0.9c0.207,0.289,0.549,0.449,0.903,0.426
	c0.354-0.023,0.673-0.23,0.839-0.543c0.094-0.173,2.324-4.235,7.148-3.446c5.246,0.856,6.688,5.173,6.538,7.013
	c-3.558,1.965-4.618,6.125-4.677,8.623c-2.039,0.296-3.683,1.109-4.546,1.616c-1.148-0.773-3.763-2.134-7.196-1.446
	c-2.028,0.406-3.338,1.6-4.179,2.861C83.413,63.816,82.224,59.197,78.25,56.331z"/>
</svg>
