<?xml version="1.0" encoding="utf-8"?>
<!-- Generator: Adobe Illustrator 15.0.0, SVG Export Plug-In . SVG Version: 6.00 Build 0)  -->
<!DOCTYPE svg PUBLIC "-//W3C//DTD SVG 1.1//EN" "http://www.w3.org/Graphics/SVG/1.1/DTD/svg11.dtd">
<svg version="1.1" id="Layer_1" xmlns="http://www.w3.org/2000/svg" xmlns:xlink="http://www.w3.org/1999/xlink" x="0px" y="0px"
	 width="176px" height="176px" viewBox="0 0 176 176" enable-background="new 0 0 176 176" xml:space="preserve">
<path fill="#1C1C1C" d="M120.667,75.158h-19.825V55.333c0-2.761-2.238-5-5-5H80.158c-2.761,0-5,2.239-5,5v19.825H55.333
	c-2.762,0-5,2.239-5,5v15.684c0,2.762,2.238,5,5,5h19.825v19.825c0,2.763,2.239,5,5,5h15.684c2.762,0,5-2.237,5-5v-19.825h19.825
	c2.761,0,5-2.238,5-5V80.158C125.667,77.397,123.428,75.158,120.667,75.158z"/>
</svg>
