<?xml version="1.0" encoding="utf-8"?>
<!-- Generator: Adobe Illustrator 16.0.0, SVG Export Plug-In . SVG Version: 6.00 Build 0)  -->
<!DOCTYPE svg PUBLIC "-//W3C//DTD SVG 1.1//EN" "http://www.w3.org/Graphics/SVG/1.1/DTD/svg11.dtd">
<svg version="1.1" id="Layer_1" xmlns="http://www.w3.org/2000/svg" xmlns:xlink="http://www.w3.org/1999/xlink" x="0px" y="0px"
	 width="176px" height="176px" viewBox="0 0 176 176" enable-background="new 0 0 176 176" xml:space="preserve">
<g>
	<path fill="#1C1C1C" d="M118.414,128.381l-0.051-0.128l9.456-11.081c2.233-2.852,3.895-5.223,4.986-7.112
		c1.091-1.889,1.637-3.82,1.637-5.797c0-2.938-0.962-5.334-2.886-7.189c-1.923-1.854-4.561-2.782-7.908-2.782
		c-3.66,0-6.556,1.06-8.685,3.182c-2.13,2.123-3.154,4.713-3.066,7.771l0.051,0.154h4.896c0-2.027,0.58-3.72,1.74-5.077
		s2.848-2.036,5.064-2.036c1.784,0,3.184,0.556,4.198,1.662s1.52,2.529,1.52,4.264c0,1.528-0.373,3.046-1.12,4.548
		c-0.747,1.503-2.168,3.527-4.264,6.07l-11.776,14.043v3.479H135.5v-3.969L118.414,128.381L118.414,128.381z"/>
	<path fill="#1C1C1C" d="M76.51,43.651c-19.887,0-36.008,16.121-36.008,36.008c0,19.886,16.121,36.009,36.008,36.009
		s36.007-16.123,36.007-36.009C112.518,59.772,96.396,43.651,76.51,43.651z M76.51,107.009c-15.104,0-27.35-12.246-27.35-27.35
		c0-15.104,12.245-27.35,27.35-27.35c15.105,0,27.349,12.245,27.349,27.35C103.859,94.763,91.615,107.009,76.51,107.009z"/>
</g>
</svg>
