<?xml version="1.0" encoding="utf-8"?>
<!-- Generator: Adobe Illustrator 16.0.0, SVG Export Plug-In . SVG Version: 6.00 Build 0)  -->
<!DOCTYPE svg PUBLIC "-//W3C//DTD SVG 1.1//EN" "http://www.w3.org/Graphics/SVG/1.1/DTD/svg11.dtd">
<svg version="1.1" id="Layer_1" xmlns="http://www.w3.org/2000/svg" xmlns:xlink="http://www.w3.org/1999/xlink" x="0px" y="0px"
	 width="176px" height="176px" viewBox="0 0 176 176" enable-background="new 0 0 176 176" xml:space="preserve">
<g>
	<path fill="#1C1C1C" d="M96.914,56.359c-0.845-0.345-1.807,0.059-2.152,0.899l-6.697,16.309c-0.023-0.001-0.043-0.007-0.066-0.007
		c-2.384,0-4.324,1.94-4.324,4.325c0,1.224,0.517,2.326,1.339,3.113l-1.982,4.827c-2.083,0.155-3.735,1.88-3.735,4.002
		c0,2.224,1.81,4.033,4.033,4.033s4.031-1.81,4.031-4.033c0-1.13-0.47-2.15-1.221-2.883l1.947-4.743
		c2.343-0.048,4.236-1.962,4.236-4.315c0-1.168-0.472-2.229-1.229-3.009l6.718-16.363C98.159,57.669,97.757,56.706,96.914,56.359z
		 M83.331,91.11c-0.708,0-1.283-0.576-1.283-1.285c0-0.706,0.575-1.282,1.283-1.282c0.707,0,1.282,0.576,1.282,1.282
		C84.613,90.534,84.037,91.11,83.331,91.11z"/>
	<path fill="#1C1C1C" d="M88,51.84c0.911,0,1.649-0.738,1.649-1.649v-4.045c0-0.912-0.738-1.649-1.649-1.649
		c-0.911,0-1.649,0.738-1.649,1.649v4.045C86.351,51.102,87.089,51.84,88,51.84z"/>
	<path fill="#1C1C1C" d="M119.738,76.235h-4.044c-0.911,0-1.649,0.739-1.649,1.649c0,0.911,0.738,1.649,1.649,1.649h4.044
		c0.911,0,1.65-0.739,1.65-1.649C121.389,76.975,120.649,76.235,119.738,76.235z"/>
	<path fill="#1C1C1C" d="M61.956,77.885c0-0.91-0.738-1.649-1.649-1.649h-4.045c-0.911,0-1.649,0.739-1.649,1.649
		c0,0.911,0.739,1.649,1.649,1.649h4.045C61.218,79.534,61.956,78.795,61.956,77.885z"/>
	<path fill="#1C1C1C" d="M107.582,59.951c0.423,0,0.845-0.161,1.167-0.481l2.862-2.86c0.645-0.645,0.645-1.689,0-2.334
		c-0.646-0.644-1.688-0.643-2.333,0l-2.861,2.86c-0.645,0.645-0.645,1.688,0,2.333C106.738,59.791,107.16,59.951,107.582,59.951z"/>
	<path fill="#1C1C1C" d="M67.252,96.301l-2.861,2.861c-0.645,0.645-0.645,1.688,0,2.333c0.322,0.322,0.744,0.482,1.166,0.482
		c0.423,0,0.845-0.16,1.167-0.482l2.861-2.862c0.645-0.645,0.645-1.688,0-2.332C68.941,95.656,67.896,95.656,67.252,96.301z"/>
	<path fill="#1C1C1C" d="M108.748,96.301c-0.645-0.645-1.688-0.645-2.332,0c-0.645,0.644-0.645,1.688,0,2.332l2.86,2.862
		c0.322,0.322,0.745,0.482,1.168,0.482c0.422,0,0.844-0.16,1.167-0.482c0.645-0.645,0.645-1.688,0-2.333L108.748,96.301z"/>
	<path fill="#1C1C1C" d="M66.723,54.275c-0.645-0.644-1.689-0.644-2.333,0c-0.645,0.645-0.645,1.689,0,2.333l2.861,2.862
		c0.322,0.322,0.745,0.482,1.167,0.482c0.423,0,0.846-0.16,1.167-0.482c0.645-0.645,0.645-1.689,0-2.333L66.723,54.275z"/>
	<path fill="#1C1C1C" d="M112.138,68.104c0.26,0.641,0.877,1.031,1.53,1.031c0.207,0,0.416-0.039,0.617-0.121l3.75-1.52
		c0.845-0.342,1.252-1.305,0.909-2.148c-0.342-0.844-1.303-1.253-2.148-0.909l-3.75,1.52
		C112.203,66.298,111.796,67.26,112.138,68.104z"/>
	<path fill="#1C1C1C" d="M63.864,87.665c-0.343-0.845-1.302-1.254-2.148-0.908l-3.75,1.521c-0.844,0.341-1.25,1.304-0.908,2.148
		c0.261,0.642,0.878,1.031,1.53,1.031c0.207,0,0.417-0.039,0.619-0.121l3.75-1.522C63.799,89.472,64.205,88.509,63.864,87.665z"/>
	<path fill="#1C1C1C" d="M77.61,47.849c-0.343-0.845-1.307-1.251-2.148-0.909c-0.845,0.342-1.251,1.305-0.909,2.148l1.519,3.749
		c0.26,0.641,0.878,1.032,1.53,1.032c0.207,0,0.417-0.04,0.619-0.121c0.845-0.343,1.252-1.304,0.909-2.149L77.61,47.849z"/>
	<path fill="#1C1C1C" d="M117.872,88.737l-3.727-1.578c-0.843-0.356-1.808,0.037-2.16,0.876c-0.356,0.838,0.035,1.807,0.874,2.162
		l3.727,1.579c0.21,0.088,0.429,0.13,0.642,0.13c0.644,0,1.254-0.377,1.52-1.007C119.103,90.061,118.711,89.092,117.872,88.737z"/>
	<path fill="#1C1C1C" d="M58.129,67.033l3.727,1.576c0.21,0.089,0.429,0.13,0.642,0.13c0.644,0,1.255-0.378,1.52-1.007
		c0.355-0.839-0.037-1.808-0.876-2.162l-3.727-1.576c-0.84-0.356-1.808,0.037-2.162,0.876C56.898,65.709,57.29,66.678,58.129,67.033
		z"/>
	<path fill="#1C1C1C" d="M101.015,47.137c-0.843-0.353-1.808,0.039-2.161,0.877l-1.579,3.724c-0.354,0.839,0.036,1.808,0.876,2.164
		c0.209,0.088,0.429,0.13,0.643,0.13c0.643,0,1.253-0.378,1.519-1.007l1.579-3.724C102.246,48.461,101.854,47.493,101.015,47.137z"
		/>
	<path fill="#1C1C1C" d="M129.351,77.884c0-22.838-18.513-41.352-41.351-41.352c-22.837,0-41.351,18.513-41.351,41.352
		c0,17.829,11.282,33.023,27.098,38.831c-2.729,0.322-4.854,2.618-4.854,5.433v11.822c0,3.038,2.462,5.498,5.499,5.498h27.217
		c3.037,0,5.499-2.46,5.499-5.498v-11.822c0-2.815-2.124-5.11-4.854-5.433C118.067,110.907,129.351,95.713,129.351,77.884z
		 M88,112.158c-18.898,0-34.272-15.378-34.272-34.275c0-18.897,15.374-34.273,34.272-34.273s34.272,15.375,34.272,34.272
		C122.271,96.778,106.896,112.158,88,112.158z"/>
</g>
</svg>
