<?xml version="1.0" encoding="utf-8"?>
<!-- Generator: Adobe Illustrator 15.0.0, SVG Export Plug-In . SVG Version: 6.00 Build 0)  -->
<!DOCTYPE svg PUBLIC "-//W3C//DTD SVG 1.1//EN" "http://www.w3.org/Graphics/SVG/1.1/DTD/svg11.dtd">
<svg version="1.1" id="Layer_1" xmlns="http://www.w3.org/2000/svg" xmlns:xlink="http://www.w3.org/1999/xlink" x="0px" y="0px"
	 width="176px" height="176px" viewBox="0 0 176 176" enable-background="new 0 0 176 176" xml:space="preserve">
<path fill="#1C1C1C" d="M106.919,65.854V51.164l23.047,22.421h-15.138C110.469,73.584,106.919,70.116,106.919,65.854z
	 M114.828,78.186c-6.889,0-12.512-5.53-12.512-12.331v-15.6H77.735c-3.509,0-6.361,2.842-6.361,6.36V73.8l0.099,0.11l-0.007,0.004
	l1.146,1.374l21.98,26.17l2.285,2.715l4.186,19.291c0.262,0.877,0.287,1.642,0.203,2.281h22.945c3.51,0,6.374-2.854,6.374-6.356
	V78.186H114.828z M66.479,73.47l0.067,0.083c-0.007-0.005-0.011-0.013-0.015-0.013l-5.248-6.268
	c-1.301-1.545-3.643-1.75-5.204-0.445l-9.356,7.846c-1.543,1.309-1.751,3.642-0.465,5.206l5.215,6.189L66.479,73.47z
	 M91.882,103.723L69.904,77.567L54.916,90.15l21.953,26.18L91.882,103.723z M94.3,108.184l-13.569,11.373l15.453,6.031
	c1.109,0.486,1.728-0.217,1.448-1.229L94.3,108.184z"/>
</svg>
