<?xml version="1.0" encoding="utf-8"?>
<!-- Generator: Adobe Illustrator 15.0.0, SVG Export Plug-In . SVG Version: 6.00 Build 0)  -->
<!DOCTYPE svg PUBLIC "-//W3C//DTD SVG 1.1//EN" "http://www.w3.org/Graphics/SVG/1.1/DTD/svg11.dtd">
<svg version="1.1" id="Layer_1" xmlns="http://www.w3.org/2000/svg" xmlns:xlink="http://www.w3.org/1999/xlink" x="0px" y="0px"
	 width="176px" height="176px" viewBox="0 0 176 176" enable-background="new 0 0 176 176" xml:space="preserve">
<g>
	<path fill="#1C1C1C" d="M133.374,77.5H67.5V46.96c0-8.253-7.268-14.46-15.522-14.46h-0.533c-8.254,0-14.945,6.207-14.945,14.46
		V88.5h12.009h18.414h66.451c3.094,0,5.604-2.404,5.604-5.5S136.468,77.5,133.374,77.5z"/>
	<path fill="#1C1C1C" d="M88.5,135.494c0,0,0.02-7.471,9.361-13.876c7.471-5.072,18.157-4.886,26.696-12.892
		c7.205-5.873,9.617-14.227,9.617-14.227H36.5c0,0,1.529,5.221,5.732,9.424s10.268,5.95,10.268,5.95V143.5h36V135.494z"/>
</g>
</svg>
