<?xml version="1.0" encoding="utf-8"?>
<!-- Generator: Adobe Illustrator 15.0.0, SVG Export Plug-In . SVG Version: 6.00 Build 0)  -->
<!DOCTYPE svg PUBLIC "-//W3C//DTD SVG 1.1//EN" "http://www.w3.org/Graphics/SVG/1.1/DTD/svg11.dtd">
<svg version="1.1" id="Layer_1" xmlns="http://www.w3.org/2000/svg" xmlns:xlink="http://www.w3.org/1999/xlink" x="0px" y="0px"
	 width="176px" height="176px" viewBox="0 0 176 176" enable-background="new 0 0 176 176" xml:space="preserve">
<g>
	<circle fill="#1C1C1C" cx="62.815" cy="86.686" r="3.676"/>
	<circle fill="#1C1C1C" cx="73.771" cy="86.685" r="3.675"/>
	<circle fill="#1C1C1C" cx="84.124" cy="86.684" r="3.675"/>
	<path fill="#1C1C1C" d="M97.863,83.723c1.637,1.202,1.988,3.502,0.789,5.137c-1.203,1.637-3.504,1.99-5.139,0.787
		c-1.638-1.201-1.988-3.501-0.787-5.138C93.928,82.874,96.229,82.521,97.863,83.723z"/>
	<circle fill="#1C1C1C" cx="106.646" cy="86.685" r="3.675"/>
	<circle fill="#1C1C1C" cx="54.915" cy="101.427" r="3.675"/>
	<circle fill="#1C1C1C" cx="69.831" cy="101.428" r="3.676"/>
	<path fill="#1C1C1C" d="M85.641,98.469c1.635,1.197,1.987,3.5,0.789,5.133c-1.204,1.641-3.504,1.988-5.138,0.787
		c-1.636-1.199-1.991-3.498-0.788-5.137C81.704,97.617,84.003,97.266,85.641,98.469z"/>
	<circle fill="#1C1C1C" cx="99.666" cy="101.427" r="3.675"/>
	<circle fill="#1C1C1C" cx="114.582" cy="101.428" r="3.676"/>
	<circle fill="#1C1C1C" cx="47.016" cy="116.17" r="3.676"/>
	<circle fill="#1C1C1C" cx="65.891" cy="116.171" r="3.675"/>
	<circle fill="#1C1C1C" cx="82.807" cy="116.17" r="3.676"/>
	<circle fill="#1C1C1C" cx="103.641" cy="116.17" r="3.676"/>
	<circle fill="#1C1C1C" cx="122.518" cy="116.17" r="3.676"/>
	<circle fill="#1C1C1C" cx="39.114" cy="130.911" r="3.675"/>
	<circle fill="#1C1C1C" cx="61.948" cy="130.912" r="3.674"/>
	<circle fill="#1C1C1C" cx="84.783" cy="130.911" r="3.675"/>
	<circle fill="#1C1C1C" cx="107.617" cy="130.913" r="3.675"/>
	<circle fill="#1C1C1C" cx="130.451" cy="130.911" r="3.675"/>
	<rect x="55.604" y="73.581" fill="#1C1C1C" width="60.104" height="6.263"/>
	<path fill="#1C1C1C" d="M110.852,72.123l-4.83-7.103c-2.186-3.285-6.223-4.579-8.928-4.577l-24.646,0.042
		c-2.705,0-6.396,2.264-8.323,5.071l-4.147,6.565h50.874V72.123L110.852,72.123z"/>
	<path fill="#1C1C1C" d="M89.303,64.027l-9.041-0.741c0.487-5.949,5.398-17.911,20.475-20.801c2.957-0.815,7.557-1.045,8.082-1.069
		l0.207-0.004h31.535v9.071h-31.427c-1.651,0.082-4.672,0.356-6.065,0.77l-0.465,0.112C90.295,53.638,89.312,63.924,89.303,64.027z"
		/>
</g>
</svg>
