<?xml version="1.0" encoding="utf-8"?>
<!-- Generator: Adobe Illustrator 16.0.0, SVG Export Plug-In . SVG Version: 6.00 Build 0)  -->
<!DOCTYPE svg PUBLIC "-//W3C//DTD SVG 1.1//EN" "http://www.w3.org/Graphics/SVG/1.1/DTD/svg11.dtd">
<svg version="1.1" id="Layer_1" xmlns="http://www.w3.org/2000/svg" xmlns:xlink="http://www.w3.org/1999/xlink" x="0px" y="0px"
	 width="176px" height="176px" viewBox="0 0 176 176" enable-background="new 0 0 176 176" xml:space="preserve">
<g>
	<path fill="#1C1C1C" d="M100.79,56.035c0-9.115-7.421-16.53-16.54-16.53c-9.112,0-16.537,7.417-16.537,16.528v41.484
		c-4.04,4.141-6.479,9.778-6.479,15.977c0,12.688,10.318,23.002,23.004,23.002c12.682,0,23.016-10.314,23.016-23.002
		c0-6.198-2.426-11.836-6.464-15.977V56.035z M100.823,113.497c0,9.17-7.423,16.631-16.589,16.631
		c-9.169,0-16.621-7.461-16.621-16.631c0-5.368,2.493-10.151,6.537-13.192V73.996h7.163c1.173,0,2.126-0.998,2.126-2.17
		c0-1.174-0.953-2.169-2.126-2.169h-7.163v-5.238h7.163c1.173,0,2.126-0.922,2.126-2.094c0-1.173-0.953-2.095-2.126-2.095h-7.163
		v-4.196c0-5.601,4.5-10.155,10.097-10.155c5.602,0,10.104,4.554,10.104,10.157v44.335
		C98.396,103.416,100.823,108.171,100.823,113.497z"/>
	<path fill="#1C1C1C" d="M89.564,104.217V79.084H78.938v25.133c-3.291,1.859-5.39,5.314-5.39,9.28
		c0,5.926,4.781,10.722,10.701,10.722c5.924,0,10.695-4.796,10.695-10.722C94.945,109.535,92.857,106.076,89.564,104.217z"/>
	<path fill="#1C1C1C" d="M116.92,49.653c0-3.492-2.841-6.333-6.333-6.333s-6.333,2.841-6.333,6.333s2.841,6.333,6.333,6.333
		S116.92,53.146,116.92,49.653z M110.587,51.987c-1.286,0-2.333-1.047-2.333-2.333s1.047-2.333,2.333-2.333s2.333,1.046,2.333,2.333
		S111.873,51.987,110.587,51.987z"/>
	<path fill="#1C1C1C" d="M119.796,59.687c0.829-1.19,1.982-1.785,3.46-1.785c1.59,0,2.766,0.386,3.527,1.159
		c0.761,0.773,1.142,1.949,1.142,3.527h4.805l0.034-0.102c0.045-2.662-0.778-4.726-2.47-6.192c-1.692-1.466-4.038-2.199-7.038-2.199
		c-2.876,0-5.2,0.956-6.971,2.868c-1.771,1.912-2.656,4.368-2.656,7.368v4.89c0,3.011,0.908,5.467,2.724,7.368
		c1.816,1.901,4.202,2.851,7.157,2.851c2.898,0,5.171-0.745,6.817-2.233c1.647-1.489,2.447-3.547,2.402-6.175l-0.033-0.102h-4.788
		c0,1.602-0.364,2.789-1.091,3.562c-0.728,0.772-1.83,1.159-3.308,1.159c-1.557,0-2.772-0.598-3.646-1.793
		c-0.874-1.195-1.311-2.741-1.311-4.635v-4.923C118.553,62.414,118.967,60.877,119.796,59.687z"/>
</g>
</svg>
