<?xml version="1.0" encoding="utf-8"?>
<!-- Generator: Adobe Illustrator 15.0.0, SVG Export Plug-In . SVG Version: 6.00 Build 0)  -->
<!DOCTYPE svg PUBLIC "-//W3C//DTD SVG 1.1//EN" "http://www.w3.org/Graphics/SVG/1.1/DTD/svg11.dtd">
<svg version="1.1" id="Layer_1" xmlns="http://www.w3.org/2000/svg" xmlns:xlink="http://www.w3.org/1999/xlink" x="0px" y="0px"
	 width="176px" height="176px" viewBox="0 0 176 176" enable-background="new 0 0 176 176" xml:space="preserve">
<g>
	<g>
		<path fill="#1C1C1C" d="M50.589,116.029c3.845,0,9.429-15.166,9.429-38.933s-5.584-38.933-9.429-38.933
			c-3.845,0-9.429,15.167-9.429,38.933C41.16,100.863,46.744,116.029,50.589,116.029z M50.589,62.497
			c2.227,0,4.031,6.537,4.031,14.6s-1.805,14.601-4.031,14.601s-4.031-6.538-4.031-14.601S48.363,62.497,50.589,62.497z"/>
		<path fill="#1C1C1C" d="M127.848,38.164H56.234c4.705,6.724,7.229,21.782,7.421,37.042l0.013,0.065v60.72l3.539-3.543l5.347,5.362
			l5.324-5.367l5.378,5.394l5.542-5.367l5.327,5.345l5.32-5.367l5.354,5.367l5.325-5.367l5.354,5.367l5.323-5.367l5.354,5.367
			l5.322-5.367l3.361,3.373V77.098C134.84,51.41,129.938,38.164,127.848,38.164z M70.636,64.322h-3.777v-3.65h3.777V64.322z
			 M78.19,64.322h-3.777v-3.65h3.777V64.322z M85.744,64.322h-3.777v-3.65h3.777V64.322z M93.298,64.322h-3.776v-3.65h3.776V64.322z
			 M100.852,64.322h-3.774v-3.65h3.774V64.322z M108.402,64.322h-3.774v-3.65h3.774V64.322z M115.958,64.322h-3.776v-3.65h3.776
			V64.322z M123.512,64.322h-3.775v-3.65h3.775V64.322z M131.064,64.322h-3.776v-3.65h3.776V64.322z"/>
		<path fill="#1C1C1C" d="M60.018,101.576c-1.774,6.129-3.934,11.24-5.858,14.453h5.858V101.576z"/>
	</g>
</g>
</svg>
