<?xml version="1.0" encoding="utf-8"?>
<!-- Generator: Adobe Illustrator 16.0.0, SVG Export Plug-In . SVG Version: 6.00 Build 0)  -->
<!DOCTYPE svg PUBLIC "-//W3C//DTD SVG 1.1//EN" "http://www.w3.org/Graphics/SVG/1.1/DTD/svg11.dtd">
<svg version="1.1" id="Layer_1" xmlns="http://www.w3.org/2000/svg" xmlns:xlink="http://www.w3.org/1999/xlink" x="0px" y="0px"
	 width="176px" height="176px" viewBox="0 0 176 176" enable-background="new 0 0 176 176" xml:space="preserve">
<g>
	<g>
		<path fill="#1C1C1C" d="M105.675,115.29c5.975-2.679,11.223-6.317,15.639-10.629c2.463-2.406,4.666-5.027,6.596-7.801
			c1.691-2.447,3.166-5.016,4.424-7.691c6.25-13.317,6.906-29.043,0.486-43.36l-97.082,43.53
			C47.556,115.695,78.875,127.307,105.675,115.29L105.675,115.29z M114.511,66.938l4.662,1.066c2.611,0.589,4.24,3.199,3.65,5.812
			c-0.414,1.856-1.857,3.22-3.6,3.633c-0.713,0.172-1.461,0.179-2.211,0.02c-1.531-0.341-2.723-1.404-3.334-2.727l-4.053-8.918
			L114.511,66.938z M89.524,83.939l0.383-9.787l7.562,6.225c2.064,1.698,2.355,4.761,0.656,6.826
			c-1.697,2.063-4.761,2.354-6.825,0.656C90.091,86.878,89.479,85.392,89.524,83.939L89.524,83.939z M65.849,91.913l4.725-8.579
			l3.961,8.959c1.081,2.451-0.021,5.312-2.466,6.409c-2.452,1.08-5.313-0.021-6.409-2.466
			C65.031,94.794,65.159,93.194,65.849,91.913L65.849,91.913z M65.849,91.913"/>
		<path fill="#1C1C1C" d="M111.538,128.368c7.09-3.18,13.348-7.435,18.672-12.501c3.49-3.308,6.566-6.963,9.213-10.885
			c0.145-0.211,0.287-0.422,0.424-0.649c11.336-17.12,14.535-39.125,7.113-59.524c-0.906-2.512-3.779-3.719-6.223-2.624
			l-2.568,1.151c7.602,17.604,5.959,36.946-2.826,52.504c-1.395,2.459-2.955,4.828-4.699,7.078
			c-2.029,2.635-4.301,5.102-6.787,7.373c-4.553,4.171-9.834,7.695-15.777,10.359c-29.52,13.236-64.13,0.258-77.73-28.969
			l-2.582,1.157c-2.445,1.097-3.445,4.022-2.181,6.393C42.019,129.701,79.453,142.755,111.538,128.368L111.538,128.368z
			 M111.538,128.368"/>
	</g>
</g>
</svg>
