<?xml version="1.0" encoding="utf-8"?>
<!-- Generator: Adobe Illustrator 15.0.0, SVG Export Plug-In . SVG Version: 6.00 Build 0)  -->
<!DOCTYPE svg PUBLIC "-//W3C//DTD SVG 1.1//EN" "http://www.w3.org/Graphics/SVG/1.1/DTD/svg11.dtd">
<svg version="1.1" id="Layer_1" xmlns="http://www.w3.org/2000/svg" xmlns:xlink="http://www.w3.org/1999/xlink" x="0px" y="0px"
	 width="176px" height="176px" viewBox="0 0 176 176" enable-background="new 0 0 176 176" xml:space="preserve">
<g>
	<path fill="#1C1C1C" d="M88,40.911c-26.007,0-47.09,21.084-47.09,47.088c0,26.005,21.083,47.091,47.09,47.091
		c26.008,0,47.09-21.084,47.09-47.091C135.09,61.994,114.006,40.911,88,40.911z M88,127.816c-21.988,0-39.813-17.826-39.813-39.817
		c0-21.986,17.826-39.813,39.813-39.813c21.991,0,39.814,17.827,39.814,39.813C127.814,109.99,109.99,127.816,88,127.816z"/>
	<path id="mouth_3_" fill="#1C1C1C" d="M88,113.961c-6.147,0-11.475-4.164-12.957-10.123c-0.358-1.443,0.523-2.904,1.965-3.264
		c1.443-0.359,2.903,0.52,3.26,1.965c0.883,3.555,4.063,6.039,7.732,6.039c3.67,0,6.848-2.484,7.729-6.039
		c0.359-1.441,1.818-2.324,3.267-1.965c1.438,0.357,2.317,1.822,1.963,3.262C99.475,109.797,94.146,113.961,88,113.961z"/>
	<g id="eyes_4_">
		<circle fill="#1C1C1C" cx="75.437" cy="85.294" r="6.968"/>
		<circle fill="#1C1C1C" cx="100.562" cy="85.294" r="6.968"/>
	</g>
</g>
</svg>
